<?xml version="1.0" encoding="UTF-8" standalone="no"?>
<!DOCTYPE svg PUBLIC "-//W3C//DTD SVG 1.1//EN"
 "http://www.w3.org/Graphics/SVG/1.1/DTD/svg11.dtd">
<!-- Generated by graphviz version 2.43.0 (0)
 -->
<!-- Title: T Pages: 1 -->
<svg width="1318pt" height="928pt"
 viewBox="0.00 0.00 1318.00 928.00" xmlns="http://www.w3.org/2000/svg" xmlns:xlink="http://www.w3.org/1999/xlink">
<g id="graph0" class="graph" transform="scale(1 1) rotate(0) translate(4 924)">
<title>T</title>
<polygon fill="white" stroke="transparent" points="-4,4 -4,-924 1314,-924 1314,4 -4,4"/>
<!-- node_0x503000000670 -->
<g id="node1" class="node">
<title>node_0x503000000670</title>
<path fill="#e9fbf5" stroke="#5aa99b" d="M450,-856.5C450,-856.5 654,-856.5 654,-856.5 660,-856.5 666,-862.5 666,-868.5 666,-868.5 666,-907.5 666,-907.5 666,-913.5 660,-919.5 654,-919.5 654,-919.5 450,-919.5 450,-919.5 444,-919.5 438,-913.5 438,-907.5 438,-907.5 438,-868.5 438,-868.5 438,-862.5 444,-856.5 450,-856.5"/>
<text text-anchor="middle" x="552" y="-905.9" font-family="Fira Mono" font-size="12.00">ptr: 0x503000000670</text>
<polyline fill="none" stroke="#5aa99b" points="438,-898.5 666,-898.5 "/>
<text text-anchor="middle" x="552" y="-884.9" font-family="Fira Mono" font-size="12.00">val: VIS_START</text>
<polyline fill="none" stroke="#5aa99b" points="438,-877.5 666,-877.5 "/>
<text text-anchor="middle" x="515.5" y="-863.9" font-family="Fira Mono" font-size="12.00">prev: 0x5030000006a0</text>
<polyline fill="none" stroke="#5aa99b" points="593,-856.5 593,-877.5 "/>
<text text-anchor="middle" x="629.5" y="-863.9" font-family="Fira Mono" font-size="12.00">next: (nil)</text>
</g>
<!-- node_0x5030000006a0 -->
<g id="node2" class="node">
<title>node_0x5030000006a0</title>
<path fill="#f1eafd" stroke="#8e6bd6" d="M409,-749.5C409,-749.5 695,-749.5 695,-749.5 701,-749.5 707,-755.5 707,-761.5 707,-761.5 707,-800.5 707,-800.5 707,-806.5 701,-812.5 695,-812.5 695,-812.5 409,-812.5 409,-812.5 403,-812.5 397,-806.5 397,-800.5 397,-800.5 397,-761.5 397,-761.5 397,-755.5 403,-749.5 409,-749.5"/>
<text text-anchor="middle" x="552" y="-798.9" font-family="Fira Mono" font-size="12.00">ptr: 0x5030000006a0</text>
<polyline fill="none" stroke="#8e6bd6" points="397,-791.5 707,-791.5 "/>
<text text-anchor="middle" x="552" y="-777.9" font-family="Fira Mono" font-size="12.00">val: FUNC_DECL</text>
<polyline fill="none" stroke="#8e6bd6" points="397,-770.5 707,-770.5 "/>
<text text-anchor="middle" x="474.5" y="-756.9" font-family="Fira Mono" font-size="12.00">prev: 0x5030000006d0</text>
<polyline fill="none" stroke="#8e6bd6" points="552,-749.5 552,-770.5 "/>
<text text-anchor="middle" x="629.5" y="-756.9" font-family="Fira Mono" font-size="12.00">next: 0x503000000880</text>
</g>
<!-- node_0x503000000670&#45;&gt;node_0x5030000006a0 -->
<g id="edge1" class="edge">
<title>node_0x503000000670&#45;&gt;node_0x5030000006a0</title>
<path fill="none" stroke="#999999" d="M552,-856.35C552,-845.78 552,-833.78 552,-822.54"/>
<polygon fill="#999999" stroke="#999999" points="555.5,-822.51 552,-812.51 548.5,-822.51 555.5,-822.51"/>
</g>
<!-- node_0x5030000006d0 -->
<g id="node3" class="node">
<title>node_0x5030000006d0</title>
<path fill="#f1eafd" stroke="#8e6bd6" d="M253,-642.5C253,-642.5 539,-642.5 539,-642.5 545,-642.5 551,-648.5 551,-654.5 551,-654.5 551,-693.5 551,-693.5 551,-699.5 545,-705.5 539,-705.5 539,-705.5 253,-705.5 253,-705.5 247,-705.5 241,-699.5 241,-693.5 241,-693.5 241,-654.5 241,-654.5 241,-648.5 247,-642.5 253,-642.5"/>
<text text-anchor="middle" x="396" y="-691.9" font-family="Fira Mono" font-size="12.00">ptr: 0x5030000006d0</text>
<polyline fill="none" stroke="#8e6bd6" points="241,-684.5 551,-684.5 "/>
<text text-anchor="middle" x="396" y="-670.9" font-family="Fira Mono" font-size="12.00">val: FUNC_INFO</text>
<polyline fill="none" stroke="#8e6bd6" points="241,-663.5 551,-663.5 "/>
<text text-anchor="middle" x="318.5" y="-649.9" font-family="Fira Mono" font-size="12.00">prev: 0x503000000760</text>
<polyline fill="none" stroke="#8e6bd6" points="396,-642.5 396,-663.5 "/>
<text text-anchor="middle" x="473.5" y="-649.9" font-family="Fira Mono" font-size="12.00">next: 0x503000000850</text>
</g>
<!-- node_0x5030000006a0&#45;&gt;node_0x5030000006d0 -->
<g id="edge2" class="edge">
<title>node_0x5030000006a0&#45;&gt;node_0x5030000006d0</title>
<path fill="none" stroke="#999999" d="M506.46,-749.35C488.68,-737.38 468.16,-723.57 449.66,-711.12"/>
<polygon fill="#999999" stroke="#999999" points="451.58,-708.19 441.33,-705.51 447.67,-714 451.58,-708.19"/>
</g>
<!-- node_0x503000000880 -->
<g id="node8" class="node">
<title>node_0x503000000880</title>
<path fill="#f1eafd" stroke="#8e6bd6" d="M606,-642.5C606,-642.5 810,-642.5 810,-642.5 816,-642.5 822,-648.5 822,-654.5 822,-654.5 822,-693.5 822,-693.5 822,-699.5 816,-705.5 810,-705.5 810,-705.5 606,-705.5 606,-705.5 600,-705.5 594,-699.5 594,-693.5 594,-693.5 594,-654.5 594,-654.5 594,-648.5 600,-642.5 606,-642.5"/>
<text text-anchor="middle" x="708" y="-691.9" font-family="Fira Mono" font-size="12.00">ptr: 0x503000000880</text>
<polyline fill="none" stroke="#8e6bd6" points="594,-684.5 822,-684.5 "/>
<text text-anchor="middle" x="708" y="-670.9" font-family="Fira Mono" font-size="12.00">val: VIS_START</text>
<polyline fill="none" stroke="#8e6bd6" points="594,-663.5 822,-663.5 "/>
<text text-anchor="middle" x="671.5" y="-649.9" font-family="Fira Mono" font-size="12.00">prev: 0x5030000008b0</text>
<polyline fill="none" stroke="#8e6bd6" points="749,-642.5 749,-663.5 "/>
<text text-anchor="middle" x="785.5" y="-649.9" font-family="Fira Mono" font-size="12.00">next: (nil)</text>
</g>
<!-- node_0x5030000006a0&#45;&gt;node_0x503000000880 -->
<g id="edge3" class="edge">
<title>node_0x5030000006a0&#45;&gt;node_0x503000000880</title>
<path fill="none" stroke="#999999" d="M597.54,-749.35C615.32,-737.38 635.84,-723.57 654.34,-711.12"/>
<polygon fill="#999999" stroke="#999999" points="656.33,-714 662.67,-705.51 652.42,-708.19 656.33,-714"/>
</g>
<!-- node_0x503000000760 -->
<g id="node4" class="node">
<title>node_0x503000000760</title>
<path fill="#f1eafd" stroke="#8e6bd6" d="M25.5,-535.5C25.5,-535.5 308.5,-535.5 308.5,-535.5 314.5,-535.5 320.5,-541.5 320.5,-547.5 320.5,-547.5 320.5,-586.5 320.5,-586.5 320.5,-592.5 314.5,-598.5 308.5,-598.5 308.5,-598.5 25.5,-598.5 25.5,-598.5 19.5,-598.5 13.5,-592.5 13.5,-586.5 13.5,-586.5 13.5,-547.5 13.5,-547.5 13.5,-541.5 19.5,-535.5 25.5,-535.5"/>
<text text-anchor="middle" x="167" y="-584.9" font-family="Fira Mono" font-size="12.00">ptr: 0x503000000760</text>
<polyline fill="none" stroke="#8e6bd6" points="13.5,-577.5 320.5,-577.5 "/>
<text text-anchor="middle" x="167" y="-563.9" font-family="Fira Mono" font-size="12.00">val: ENUM_SEP</text>
<polyline fill="none" stroke="#8e6bd6" points="13.5,-556.5 320.5,-556.5 "/>
<text text-anchor="middle" x="89.5" y="-542.9" font-family="Fira Mono" font-size="12.00">prev: 0x5030000007f0</text>
<polyline fill="none" stroke="#8e6bd6" points="165.5,-535.5 165.5,-556.5 "/>
<text text-anchor="middle" x="243" y="-542.9" font-family="Fira Mono" font-size="12.00">next: 0x503000000820</text>
</g>
<!-- node_0x5030000006d0&#45;&gt;node_0x503000000760 -->
<g id="edge4" class="edge">
<title>node_0x5030000006d0&#45;&gt;node_0x503000000760</title>
<path fill="none" stroke="#999999" d="M329.46,-642.49C302.41,-630.09 271,-615.68 243.04,-602.87"/>
<polygon fill="#999999" stroke="#999999" points="244.26,-599.57 233.71,-598.59 241.34,-605.94 244.26,-599.57"/>
</g>
<!-- node_0x503000000850 -->
<g id="node7" class="node">
<title>node_0x503000000850</title>
<path fill="#e8f9e5" stroke="#c9fbdb" d="M376,-535.5C376,-535.5 498,-535.5 498,-535.5 504,-535.5 510,-541.5 510,-547.5 510,-547.5 510,-586.5 510,-586.5 510,-592.5 504,-598.5 498,-598.5 498,-598.5 376,-598.5 376,-598.5 370,-598.5 364,-592.5 364,-586.5 364,-586.5 364,-547.5 364,-547.5 364,-541.5 370,-535.5 376,-535.5"/>
<text text-anchor="middle" x="437" y="-584.9" font-family="Fira Mono" font-size="12.00">ptr: 0x503000000850</text>
<polyline fill="none" stroke="#c9fbdb" points="364,-577.5 510,-577.5 "/>
<text text-anchor="middle" x="437" y="-563.9" font-family="Fira Mono" font-size="12.00">val: maintr</text>
<polyline fill="none" stroke="#c9fbdb" points="364,-556.5 510,-556.5 "/>
<text text-anchor="middle" x="400.5" y="-542.9" font-family="Fira Mono" font-size="12.00">prev: (nil)</text>
<polyline fill="none" stroke="#c9fbdb" points="437,-535.5 437,-556.5 "/>
<text text-anchor="middle" x="473.5" y="-542.9" font-family="Fira Mono" font-size="12.00">next: (nil)</text>
</g>
<!-- node_0x5030000006d0&#45;&gt;node_0x503000000850 -->
<g id="edge5" class="edge">
<title>node_0x5030000006d0&#45;&gt;node_0x503000000850</title>
<path fill="none" stroke="#999999" d="M407.97,-642.35C412.18,-631.57 416.97,-619.29 421.44,-607.86"/>
<polygon fill="#999999" stroke="#999999" points="424.71,-609.1 425.09,-598.51 418.19,-606.55 424.71,-609.1"/>
</g>
<!-- node_0x5030000007f0 -->
<g id="node5" class="node">
<title>node_0x5030000007f0</title>
<path fill="#e8f9e5" stroke="#c9fbdb" d="M12,-428.5C12,-428.5 134,-428.5 134,-428.5 140,-428.5 146,-434.5 146,-440.5 146,-440.5 146,-479.5 146,-479.5 146,-485.5 140,-491.5 134,-491.5 134,-491.5 12,-491.5 12,-491.5 6,-491.5 0,-485.5 0,-479.5 0,-479.5 0,-440.5 0,-440.5 0,-434.5 6,-428.5 12,-428.5"/>
<text text-anchor="middle" x="73" y="-477.9" font-family="Fira Mono" font-size="12.00">ptr: 0x5030000007f0</text>
<polyline fill="none" stroke="#c9fbdb" points="0,-470.5 146,-470.5 "/>
<text text-anchor="middle" x="73" y="-456.9" font-family="Fira Mono" font-size="12.00">val: atr</text>
<polyline fill="none" stroke="#c9fbdb" points="0,-449.5 146,-449.5 "/>
<text text-anchor="middle" x="36.5" y="-435.9" font-family="Fira Mono" font-size="12.00">prev: (nil)</text>
<polyline fill="none" stroke="#c9fbdb" points="73,-428.5 73,-449.5 "/>
<text text-anchor="middle" x="109.5" y="-435.9" font-family="Fira Mono" font-size="12.00">next: (nil)</text>
</g>
<!-- node_0x503000000760&#45;&gt;node_0x5030000007f0 -->
<g id="edge6" class="edge">
<title>node_0x503000000760&#45;&gt;node_0x5030000007f0</title>
<path fill="none" stroke="#999999" d="M139.56,-535.35C129.42,-524.03 117.81,-511.06 107.15,-499.15"/>
<polygon fill="#999999" stroke="#999999" points="109.59,-496.63 100.31,-491.51 104.38,-501.29 109.59,-496.63"/>
</g>
<!-- node_0x503000000820 -->
<g id="node6" class="node">
<title>node_0x503000000820</title>
<path fill="#e8f9e5" stroke="#c9fbdb" d="M201,-428.5C201,-428.5 323,-428.5 323,-428.5 329,-428.5 335,-434.5 335,-440.5 335,-440.5 335,-479.5 335,-479.5 335,-485.5 329,-491.5 323,-491.5 323,-491.5 201,-491.5 201,-491.5 195,-491.5 189,-485.5 189,-479.5 189,-479.5 189,-440.5 189,-440.5 189,-434.5 195,-428.5 201,-428.5"/>
<text text-anchor="middle" x="262" y="-477.9" font-family="Fira Mono" font-size="12.00">ptr: 0x503000000820</text>
<polyline fill="none" stroke="#c9fbdb" points="189,-470.5 335,-470.5 "/>
<text text-anchor="middle" x="262" y="-456.9" font-family="Fira Mono" font-size="12.00">val: btr</text>
<polyline fill="none" stroke="#c9fbdb" points="189,-449.5 335,-449.5 "/>
<text text-anchor="middle" x="225.5" y="-435.9" font-family="Fira Mono" font-size="12.00">prev: (nil)</text>
<polyline fill="none" stroke="#c9fbdb" points="262,-428.5 262,-449.5 "/>
<text text-anchor="middle" x="298.5" y="-435.9" font-family="Fira Mono" font-size="12.00">next: (nil)</text>
</g>
<!-- node_0x503000000760&#45;&gt;node_0x503000000820 -->
<g id="edge7" class="edge">
<title>node_0x503000000760&#45;&gt;node_0x503000000820</title>
<path fill="none" stroke="#999999" d="M194.73,-535.35C204.98,-524.03 216.71,-511.06 227.48,-499.15"/>
<polygon fill="#999999" stroke="#999999" points="230.28,-501.27 234.4,-491.51 225.09,-496.58 230.28,-501.27"/>
</g>
<!-- node_0x5030000008b0 -->
<g id="node9" class="node">
<title>node_0x5030000008b0</title>
<path fill="#f1eafd" stroke="#8e6bd6" d="M606,-535.5C606,-535.5 810,-535.5 810,-535.5 816,-535.5 822,-541.5 822,-547.5 822,-547.5 822,-586.5 822,-586.5 822,-592.5 816,-598.5 810,-598.5 810,-598.5 606,-598.5 606,-598.5 600,-598.5 594,-592.5 594,-586.5 594,-586.5 594,-547.5 594,-547.5 594,-541.5 600,-535.5 606,-535.5"/>
<text text-anchor="middle" x="708" y="-584.9" font-family="Fira Mono" font-size="12.00">ptr: 0x5030000008b0</text>
<polyline fill="none" stroke="#8e6bd6" points="594,-577.5 822,-577.5 "/>
<text text-anchor="middle" x="708" y="-563.9" font-family="Fira Mono" font-size="12.00">val: LCAT</text>
<polyline fill="none" stroke="#8e6bd6" points="594,-556.5 822,-556.5 "/>
<text text-anchor="middle" x="671.5" y="-542.9" font-family="Fira Mono" font-size="12.00">prev: 0x5030000008e0</text>
<polyline fill="none" stroke="#8e6bd6" points="749,-535.5 749,-556.5 "/>
<text text-anchor="middle" x="785.5" y="-542.9" font-family="Fira Mono" font-size="12.00">next: (nil)</text>
</g>
<!-- node_0x503000000880&#45;&gt;node_0x5030000008b0 -->
<g id="edge8" class="edge">
<title>node_0x503000000880&#45;&gt;node_0x5030000008b0</title>
<path fill="none" stroke="#999999" d="M708,-642.35C708,-631.78 708,-619.78 708,-608.54"/>
<polygon fill="#999999" stroke="#999999" points="711.5,-608.51 708,-598.51 704.5,-608.51 711.5,-608.51"/>
</g>
<!-- node_0x5030000008e0 -->
<g id="node10" class="node">
<title>node_0x5030000008e0</title>
<path fill="#f1eafd" stroke="#8e6bd6" d="M565,-428.5C565,-428.5 851,-428.5 851,-428.5 857,-428.5 863,-434.5 863,-440.5 863,-440.5 863,-479.5 863,-479.5 863,-485.5 857,-491.5 851,-491.5 851,-491.5 565,-491.5 565,-491.5 559,-491.5 553,-485.5 553,-479.5 553,-479.5 553,-440.5 553,-440.5 553,-434.5 559,-428.5 565,-428.5"/>
<text text-anchor="middle" x="708" y="-477.9" font-family="Fira Mono" font-size="12.00">ptr: 0x5030000008e0</text>
<polyline fill="none" stroke="#8e6bd6" points="553,-470.5 863,-470.5 "/>
<text text-anchor="middle" x="708" y="-456.9" font-family="Fira Mono" font-size="12.00">val: LCAT</text>
<polyline fill="none" stroke="#8e6bd6" points="553,-449.5 863,-449.5 "/>
<text text-anchor="middle" x="630.5" y="-435.9" font-family="Fira Mono" font-size="12.00">prev: 0x503000000910</text>
<polyline fill="none" stroke="#8e6bd6" points="708,-428.5 708,-449.5 "/>
<text text-anchor="middle" x="785.5" y="-435.9" font-family="Fira Mono" font-size="12.00">next: 0x503000000a00</text>
</g>
<!-- node_0x5030000008b0&#45;&gt;node_0x5030000008e0 -->
<g id="edge9" class="edge">
<title>node_0x5030000008b0&#45;&gt;node_0x5030000008e0</title>
<path fill="none" stroke="#999999" d="M708,-535.35C708,-524.78 708,-512.78 708,-501.54"/>
<polygon fill="#999999" stroke="#999999" points="711.5,-501.51 708,-491.51 704.5,-501.51 711.5,-501.51"/>
</g>
<!-- node_0x503000000910 -->
<g id="node11" class="node">
<title>node_0x503000000910</title>
<path fill="#f1eafd" stroke="#8e6bd6" d="M389,-321.5C389,-321.5 675,-321.5 675,-321.5 681,-321.5 687,-327.5 687,-333.5 687,-333.5 687,-372.5 687,-372.5 687,-378.5 681,-384.5 675,-384.5 675,-384.5 389,-384.5 389,-384.5 383,-384.5 377,-378.5 377,-372.5 377,-372.5 377,-333.5 377,-333.5 377,-327.5 383,-321.5 389,-321.5"/>
<text text-anchor="middle" x="532" y="-370.9" font-family="Fira Mono" font-size="12.00">ptr: 0x503000000910</text>
<polyline fill="none" stroke="#8e6bd6" points="377,-363.5 687,-363.5 "/>
<text text-anchor="middle" x="532" y="-349.9" font-family="Fira Mono" font-size="12.00">val: ASSIGN</text>
<polyline fill="none" stroke="#8e6bd6" points="377,-342.5 687,-342.5 "/>
<text text-anchor="middle" x="454.5" y="-328.9" font-family="Fira Mono" font-size="12.00">prev: 0x503000000940</text>
<polyline fill="none" stroke="#8e6bd6" points="532,-321.5 532,-342.5 "/>
<text text-anchor="middle" x="609.5" y="-328.9" font-family="Fira Mono" font-size="12.00">next: 0x503000000970</text>
</g>
<!-- node_0x5030000008e0&#45;&gt;node_0x503000000910 -->
<g id="edge10" class="edge">
<title>node_0x5030000008e0&#45;&gt;node_0x503000000910</title>
<path fill="none" stroke="#999999" d="M656.62,-428.35C636.38,-416.27 612.99,-402.32 591.98,-389.78"/>
<polygon fill="#999999" stroke="#999999" points="593.52,-386.63 583.14,-384.51 589.93,-392.64 593.52,-386.63"/>
</g>
<!-- node_0x503000000a00 -->
<g id="node16" class="node">
<title>node_0x503000000a00</title>
<path fill="#f1eafd" stroke="#8e6bd6" d="M742.5,-321.5C742.5,-321.5 1027.5,-321.5 1027.5,-321.5 1033.5,-321.5 1039.5,-327.5 1039.5,-333.5 1039.5,-333.5 1039.5,-372.5 1039.5,-372.5 1039.5,-378.5 1033.5,-384.5 1027.5,-384.5 1027.5,-384.5 742.5,-384.5 742.5,-384.5 736.5,-384.5 730.5,-378.5 730.5,-372.5 730.5,-372.5 730.5,-333.5 730.5,-333.5 730.5,-327.5 736.5,-321.5 742.5,-321.5"/>
<text text-anchor="middle" x="885" y="-370.9" font-family="Fira Mono" font-size="12.00">ptr: 0x503000000a00</text>
<polyline fill="none" stroke="#8e6bd6" points="730.5,-363.5 1039.5,-363.5 "/>
<text text-anchor="middle" x="885" y="-349.9" font-family="Fira Mono" font-size="12.00">val: IF</text>
<polyline fill="none" stroke="#8e6bd6" points="730.5,-342.5 1039.5,-342.5 "/>
<text text-anchor="middle" x="808" y="-328.9" font-family="Fira Mono" font-size="12.00">prev: 0x503000000a30</text>
<polyline fill="none" stroke="#8e6bd6" points="885.5,-321.5 885.5,-342.5 "/>
<text text-anchor="middle" x="962.5" y="-328.9" font-family="Fira Mono" font-size="12.00">next: 0x503000000ac0</text>
</g>
<!-- node_0x5030000008e0&#45;&gt;node_0x503000000a00 -->
<g id="edge11" class="edge">
<title>node_0x5030000008e0&#45;&gt;node_0x503000000a00</title>
<path fill="none" stroke="#999999" d="M759.67,-428.35C780.12,-416.22 803.76,-402.19 824.96,-389.62"/>
<polygon fill="#999999" stroke="#999999" points="826.76,-392.62 833.57,-384.51 823.18,-386.6 826.76,-392.62"/>
</g>
<!-- node_0x503000000940 -->
<g id="node12" class="node">
<title>node_0x503000000940</title>
<path fill="#e8f9e5" stroke="#c9fbdb" d="M200,-214.5C200,-214.5 322,-214.5 322,-214.5 328,-214.5 334,-220.5 334,-226.5 334,-226.5 334,-265.5 334,-265.5 334,-271.5 328,-277.5 322,-277.5 322,-277.5 200,-277.5 200,-277.5 194,-277.5 188,-271.5 188,-265.5 188,-265.5 188,-226.5 188,-226.5 188,-220.5 194,-214.5 200,-214.5"/>
<text text-anchor="middle" x="261" y="-263.9" font-family="Fira Mono" font-size="12.00">ptr: 0x503000000940</text>
<polyline fill="none" stroke="#c9fbdb" points="188,-256.5 334,-256.5 "/>
<text text-anchor="middle" x="261" y="-242.9" font-family="Fira Mono" font-size="12.00">val: xtr</text>
<polyline fill="none" stroke="#c9fbdb" points="188,-235.5 334,-235.5 "/>
<text text-anchor="middle" x="224.5" y="-221.9" font-family="Fira Mono" font-size="12.00">prev: (nil)</text>
<polyline fill="none" stroke="#c9fbdb" points="261,-214.5 261,-235.5 "/>
<text text-anchor="middle" x="297.5" y="-221.9" font-family="Fira Mono" font-size="12.00">next: (nil)</text>
</g>
<!-- node_0x503000000910&#45;&gt;node_0x503000000940 -->
<g id="edge12" class="edge">
<title>node_0x503000000910&#45;&gt;node_0x503000000940</title>
<path fill="none" stroke="#999999" d="M453.25,-321.49C418.97,-308.21 378.77,-292.63 344.02,-279.17"/>
<polygon fill="#999999" stroke="#999999" points="344.96,-275.78 334.37,-275.43 342.43,-282.3 344.96,-275.78"/>
</g>
<!-- node_0x503000000970 -->
<g id="node13" class="node">
<title>node_0x503000000970</title>
<path fill="#f1eafd" stroke="#8e6bd6" d="M389,-214.5C389,-214.5 675,-214.5 675,-214.5 681,-214.5 687,-220.5 687,-226.5 687,-226.5 687,-265.5 687,-265.5 687,-271.5 681,-277.5 675,-277.5 675,-277.5 389,-277.5 389,-277.5 383,-277.5 377,-271.5 377,-265.5 377,-265.5 377,-226.5 377,-226.5 377,-220.5 383,-214.5 389,-214.5"/>
<text text-anchor="middle" x="532" y="-263.9" font-family="Fira Mono" font-size="12.00">ptr: 0x503000000970</text>
<polyline fill="none" stroke="#8e6bd6" points="377,-256.5 687,-256.5 "/>
<text text-anchor="middle" x="532" y="-242.9" font-family="Fira Mono" font-size="12.00">val: ADD</text>
<polyline fill="none" stroke="#8e6bd6" points="377,-235.5 687,-235.5 "/>
<text text-anchor="middle" x="454.5" y="-221.9" font-family="Fira Mono" font-size="12.00">prev: 0x5030000009a0</text>
<polyline fill="none" stroke="#8e6bd6" points="532,-214.5 532,-235.5 "/>
<text text-anchor="middle" x="609.5" y="-221.9" font-family="Fira Mono" font-size="12.00">next: 0x5030000009d0</text>
</g>
<!-- node_0x503000000910&#45;&gt;node_0x503000000970 -->
<g id="edge13" class="edge">
<title>node_0x503000000910&#45;&gt;node_0x503000000970</title>
<path fill="none" stroke="#999999" d="M532,-321.35C532,-310.78 532,-298.78 532,-287.54"/>
<polygon fill="#999999" stroke="#999999" points="535.5,-287.51 532,-277.51 528.5,-287.51 535.5,-287.51"/>
</g>
<!-- node_0x5030000009a0 -->
<g id="node14" class="node">
<title>node_0x5030000009a0</title>
<path fill="#e8f9e5" stroke="#c9fbdb" d="M296,-107.5C296,-107.5 418,-107.5 418,-107.5 424,-107.5 430,-113.5 430,-119.5 430,-119.5 430,-158.5 430,-158.5 430,-164.5 424,-170.5 418,-170.5 418,-170.5 296,-170.5 296,-170.5 290,-170.5 284,-164.5 284,-158.5 284,-158.5 284,-119.5 284,-119.5 284,-113.5 290,-107.5 296,-107.5"/>
<text text-anchor="middle" x="357" y="-156.9" font-family="Fira Mono" font-size="12.00">ptr: 0x5030000009a0</text>
<polyline fill="none" stroke="#c9fbdb" points="284,-149.5 430,-149.5 "/>
<text text-anchor="middle" x="357" y="-135.9" font-family="Fira Mono" font-size="12.00">val: atr</text>
<polyline fill="none" stroke="#c9fbdb" points="284,-128.5 430,-128.5 "/>
<text text-anchor="middle" x="320.5" y="-114.9" font-family="Fira Mono" font-size="12.00">prev: (nil)</text>
<polyline fill="none" stroke="#c9fbdb" points="357,-107.5 357,-128.5 "/>
<text text-anchor="middle" x="393.5" y="-114.9" font-family="Fira Mono" font-size="12.00">next: (nil)</text>
</g>
<!-- node_0x503000000970&#45;&gt;node_0x5030000009a0 -->
<g id="edge14" class="edge">
<title>node_0x503000000970&#45;&gt;node_0x5030000009a0</title>
<path fill="none" stroke="#999999" d="M480.91,-214.35C460.79,-202.27 437.53,-188.32 416.64,-175.78"/>
<polygon fill="#999999" stroke="#999999" points="418.22,-172.65 407.85,-170.51 414.62,-178.66 418.22,-172.65"/>
</g>
<!-- node_0x5030000009d0 -->
<g id="node15" class="node">
<title>node_0x5030000009d0</title>
<path fill="#e8f9e5" stroke="#c9fbdb" d="M485,-107.5C485,-107.5 607,-107.5 607,-107.5 613,-107.5 619,-113.5 619,-119.5 619,-119.5 619,-158.5 619,-158.5 619,-164.5 613,-170.5 607,-170.5 607,-170.5 485,-170.5 485,-170.5 479,-170.5 473,-164.5 473,-158.5 473,-158.5 473,-119.5 473,-119.5 473,-113.5 479,-107.5 485,-107.5"/>
<text text-anchor="middle" x="546" y="-156.9" font-family="Fira Mono" font-size="12.00">ptr: 0x5030000009d0</text>
<polyline fill="none" stroke="#c9fbdb" points="473,-149.5 619,-149.5 "/>
<text text-anchor="middle" x="546" y="-135.9" font-family="Fira Mono" font-size="12.00">val: btr</text>
<polyline fill="none" stroke="#c9fbdb" points="473,-128.5 619,-128.5 "/>
<text text-anchor="middle" x="509.5" y="-114.9" font-family="Fira Mono" font-size="12.00">prev: (nil)</text>
<polyline fill="none" stroke="#c9fbdb" points="546,-107.5 546,-128.5 "/>
<text text-anchor="middle" x="582.5" y="-114.9" font-family="Fira Mono" font-size="12.00">next: (nil)</text>
</g>
<!-- node_0x503000000970&#45;&gt;node_0x5030000009d0 -->
<g id="edge15" class="edge">
<title>node_0x503000000970&#45;&gt;node_0x5030000009d0</title>
<path fill="none" stroke="#999999" d="M536.09,-214.35C537.5,-203.78 539.1,-191.78 540.59,-180.54"/>
<polygon fill="#999999" stroke="#999999" points="544.08,-180.88 541.93,-170.51 537.14,-179.96 544.08,-180.88"/>
</g>
<!-- node_0x503000000a30 -->
<g id="node17" class="node">
<title>node_0x503000000a30</title>
<path fill="#f1eafd" stroke="#8e6bd6" d="M742,-214.5C742,-214.5 1028,-214.5 1028,-214.5 1034,-214.5 1040,-220.5 1040,-226.5 1040,-226.5 1040,-265.5 1040,-265.5 1040,-271.5 1034,-277.5 1028,-277.5 1028,-277.5 742,-277.5 742,-277.5 736,-277.5 730,-271.5 730,-265.5 730,-265.5 730,-226.5 730,-226.5 730,-220.5 736,-214.5 742,-214.5"/>
<text text-anchor="middle" x="885" y="-263.9" font-family="Fira Mono" font-size="12.00">ptr: 0x503000000a30</text>
<polyline fill="none" stroke="#8e6bd6" points="730,-256.5 1040,-256.5 "/>
<text text-anchor="middle" x="885" y="-242.9" font-family="Fira Mono" font-size="12.00">val: EQ</text>
<polyline fill="none" stroke="#8e6bd6" points="730,-235.5 1040,-235.5 "/>
<text text-anchor="middle" x="807.5" y="-221.9" font-family="Fira Mono" font-size="12.00">prev: 0x503000000a60</text>
<polyline fill="none" stroke="#8e6bd6" points="885,-214.5 885,-235.5 "/>
<text text-anchor="middle" x="962.5" y="-221.9" font-family="Fira Mono" font-size="12.00">next: 0x503000000a90</text>
</g>
<!-- node_0x503000000a00&#45;&gt;node_0x503000000a30 -->
<g id="edge16" class="edge">
<title>node_0x503000000a00&#45;&gt;node_0x503000000a30</title>
<path fill="none" stroke="#999999" d="M885,-321.35C885,-310.78 885,-298.78 885,-287.54"/>
<polygon fill="#999999" stroke="#999999" points="888.5,-287.51 885,-277.51 881.5,-287.51 888.5,-287.51"/>
</g>
<!-- node_0x503000000ac0 -->
<g id="node20" class="node">
<title>node_0x503000000ac0</title>
<path fill="#f1eafd" stroke="#8e6bd6" d="M1095.5,-214.5C1095.5,-214.5 1296.5,-214.5 1296.5,-214.5 1302.5,-214.5 1308.5,-220.5 1308.5,-226.5 1308.5,-226.5 1308.5,-265.5 1308.5,-265.5 1308.5,-271.5 1302.5,-277.5 1296.5,-277.5 1296.5,-277.5 1095.5,-277.5 1095.5,-277.5 1089.5,-277.5 1083.5,-271.5 1083.5,-265.5 1083.5,-265.5 1083.5,-226.5 1083.5,-226.5 1083.5,-220.5 1089.5,-214.5 1095.5,-214.5"/>
<text text-anchor="middle" x="1196" y="-263.9" font-family="Fira Mono" font-size="12.00">ptr: 0x503000000ac0</text>
<polyline fill="none" stroke="#8e6bd6" points="1083.5,-256.5 1308.5,-256.5 "/>
<text text-anchor="middle" x="1196" y="-242.9" font-family="Fira Mono" font-size="12.00">val: VIS_START</text>
<polyline fill="none" stroke="#8e6bd6" points="1083.5,-235.5 1308.5,-235.5 "/>
<text text-anchor="middle" x="1159.5" y="-221.9" font-family="Fira Mono" font-size="12.00">prev: 0x503000000af0</text>
<polyline fill="none" stroke="#8e6bd6" points="1235.5,-214.5 1235.5,-235.5 "/>
<text text-anchor="middle" x="1272" y="-221.9" font-family="Fira Mono" font-size="12.00">next: (nil)</text>
</g>
<!-- node_0x503000000a00&#45;&gt;node_0x503000000ac0 -->
<g id="edge17" class="edge">
<title>node_0x503000000a00&#45;&gt;node_0x503000000ac0</title>
<path fill="none" stroke="#999999" d="M975.37,-321.49C1013.07,-308.76 1057,-293.93 1095.69,-280.87"/>
<polygon fill="#999999" stroke="#999999" points="1097.05,-284.1 1105.4,-277.59 1094.81,-277.47 1097.05,-284.1"/>
</g>
<!-- node_0x503000000a60 -->
<g id="node18" class="node">
<title>node_0x503000000a60</title>
<path fill="#e8f9e5" stroke="#c9fbdb" d="M702,-107.5C702,-107.5 824,-107.5 824,-107.5 830,-107.5 836,-113.5 836,-119.5 836,-119.5 836,-158.5 836,-158.5 836,-164.5 830,-170.5 824,-170.5 824,-170.5 702,-170.5 702,-170.5 696,-170.5 690,-164.5 690,-158.5 690,-158.5 690,-119.5 690,-119.5 690,-113.5 696,-107.5 702,-107.5"/>
<text text-anchor="middle" x="763" y="-156.9" font-family="Fira Mono" font-size="12.00">ptr: 0x503000000a60</text>
<polyline fill="none" stroke="#c9fbdb" points="690,-149.5 836,-149.5 "/>
<text text-anchor="middle" x="763" y="-135.9" font-family="Fira Mono" font-size="12.00">val: xtr</text>
<polyline fill="none" stroke="#c9fbdb" points="690,-128.5 836,-128.5 "/>
<text text-anchor="middle" x="726.5" y="-114.9" font-family="Fira Mono" font-size="12.00">prev: (nil)</text>
<polyline fill="none" stroke="#c9fbdb" points="763,-107.5 763,-128.5 "/>
<text text-anchor="middle" x="799.5" y="-114.9" font-family="Fira Mono" font-size="12.00">next: (nil)</text>
</g>
<!-- node_0x503000000a30&#45;&gt;node_0x503000000a60 -->
<g id="edge18" class="edge">
<title>node_0x503000000a30&#45;&gt;node_0x503000000a60</title>
<path fill="none" stroke="#999999" d="M849.38,-214.35C835.85,-202.7 820.3,-189.31 806.14,-177.13"/>
<polygon fill="#999999" stroke="#999999" points="808.31,-174.38 798.45,-170.51 803.75,-179.69 808.31,-174.38"/>
</g>
<!-- node_0x503000000a90 -->
<g id="node19" class="node">
<title>node_0x503000000a90</title>
<path fill="#e8f9e5" stroke="#c9fbdb" d="M891,-107.5C891,-107.5 1013,-107.5 1013,-107.5 1019,-107.5 1025,-113.5 1025,-119.5 1025,-119.5 1025,-158.5 1025,-158.5 1025,-164.5 1019,-170.5 1013,-170.5 1013,-170.5 891,-170.5 891,-170.5 885,-170.5 879,-164.5 879,-158.5 879,-158.5 879,-119.5 879,-119.5 879,-113.5 885,-107.5 891,-107.5"/>
<text text-anchor="middle" x="952" y="-156.9" font-family="Fira Mono" font-size="12.00">ptr: 0x503000000a90</text>
<polyline fill="none" stroke="#c9fbdb" points="879,-149.5 1025,-149.5 "/>
<text text-anchor="middle" x="952" y="-135.9" font-family="Fira Mono" font-size="12.00">val: 1.000000</text>
<polyline fill="none" stroke="#c9fbdb" points="879,-128.5 1025,-128.5 "/>
<text text-anchor="middle" x="915.5" y="-114.9" font-family="Fira Mono" font-size="12.00">prev: (nil)</text>
<polyline fill="none" stroke="#c9fbdb" points="952,-107.5 952,-128.5 "/>
<text text-anchor="middle" x="988.5" y="-114.9" font-family="Fira Mono" font-size="12.00">next: (nil)</text>
</g>
<!-- node_0x503000000a30&#45;&gt;node_0x503000000a90 -->
<g id="edge19" class="edge">
<title>node_0x503000000a30&#45;&gt;node_0x503000000a90</title>
<path fill="none" stroke="#999999" d="M904.56,-214.35C911.58,-203.35 919.59,-190.79 927,-179.17"/>
<polygon fill="#999999" stroke="#999999" points="930.1,-180.82 932.53,-170.51 924.2,-177.06 930.1,-180.82"/>
</g>
<!-- node_0x503000000af0 -->
<g id="node21" class="node">
<title>node_0x503000000af0</title>
<path fill="#f1eafd" stroke="#8e6bd6" d="M1094,-107.5C1094,-107.5 1298,-107.5 1298,-107.5 1304,-107.5 1310,-113.5 1310,-119.5 1310,-119.5 1310,-158.5 1310,-158.5 1310,-164.5 1304,-170.5 1298,-170.5 1298,-170.5 1094,-170.5 1094,-170.5 1088,-170.5 1082,-164.5 1082,-158.5 1082,-158.5 1082,-119.5 1082,-119.5 1082,-113.5 1088,-107.5 1094,-107.5"/>
<text text-anchor="middle" x="1196" y="-156.9" font-family="Fira Mono" font-size="12.00">ptr: 0x503000000af0</text>
<polyline fill="none" stroke="#8e6bd6" points="1082,-149.5 1310,-149.5 "/>
<text text-anchor="middle" x="1196" y="-135.9" font-family="Fira Mono" font-size="12.00">val: PRINT</text>
<polyline fill="none" stroke="#8e6bd6" points="1082,-128.5 1310,-128.5 "/>
<text text-anchor="middle" x="1159.5" y="-114.9" font-family="Fira Mono" font-size="12.00">prev: 0x503000000b20</text>
<polyline fill="none" stroke="#8e6bd6" points="1237,-107.5 1237,-128.5 "/>
<text text-anchor="middle" x="1273.5" y="-114.9" font-family="Fira Mono" font-size="12.00">next: (nil)</text>
</g>
<!-- node_0x503000000ac0&#45;&gt;node_0x503000000af0 -->
<g id="edge20" class="edge">
<title>node_0x503000000ac0&#45;&gt;node_0x503000000af0</title>
<path fill="none" stroke="#999999" d="M1196,-214.35C1196,-203.78 1196,-191.78 1196,-180.54"/>
<polygon fill="#999999" stroke="#999999" points="1199.5,-180.51 1196,-170.51 1192.5,-180.51 1199.5,-180.51"/>
</g>
<!-- node_0x503000000b20 -->
<g id="node22" class="node">
<title>node_0x503000000b20</title>
<path fill="#e8f9e5" stroke="#c9fbdb" d="M1135,-0.5C1135,-0.5 1257,-0.5 1257,-0.5 1263,-0.5 1269,-6.5 1269,-12.5 1269,-12.5 1269,-51.5 1269,-51.5 1269,-57.5 1263,-63.5 1257,-63.5 1257,-63.5 1135,-63.5 1135,-63.5 1129,-63.5 1123,-57.5 1123,-51.5 1123,-51.5 1123,-12.5 1123,-12.5 1123,-6.5 1129,-0.5 1135,-0.5"/>
<text text-anchor="middle" x="1196" y="-49.9" font-family="Fira Mono" font-size="12.00">ptr: 0x503000000b20</text>
<polyline fill="none" stroke="#c9fbdb" points="1123,-42.5 1269,-42.5 "/>
<text text-anchor="middle" x="1196" y="-28.9" font-family="Fira Mono" font-size="12.00">val: xtr</text>
<polyline fill="none" stroke="#c9fbdb" points="1123,-21.5 1269,-21.5 "/>
<text text-anchor="middle" x="1159.5" y="-7.9" font-family="Fira Mono" font-size="12.00">prev: (nil)</text>
<polyline fill="none" stroke="#c9fbdb" points="1196,-0.5 1196,-21.5 "/>
<text text-anchor="middle" x="1232.5" y="-7.9" font-family="Fira Mono" font-size="12.00">next: (nil)</text>
</g>
<!-- node_0x503000000af0&#45;&gt;node_0x503000000b20 -->
<g id="edge21" class="edge">
<title>node_0x503000000af0&#45;&gt;node_0x503000000b20</title>
<path fill="none" stroke="#999999" d="M1196,-107.35C1196,-96.78 1196,-84.78 1196,-73.54"/>
<polygon fill="#999999" stroke="#999999" points="1199.5,-73.51 1196,-63.51 1192.5,-73.51 1199.5,-73.51"/>
</g>
</g>
</svg>
