<?xml version="1.0" encoding="UTF-8" standalone="no"?>
<!DOCTYPE svg PUBLIC "-//W3C//DTD SVG 1.1//EN"
 "http://www.w3.org/Graphics/SVG/1.1/DTD/svg11.dtd">
<!-- Generated by graphviz version 2.43.0 (0)
 -->
<!-- Title: T Pages: 1 -->
<svg width="1237pt" height="821pt"
 viewBox="0.00 0.00 1237.00 821.00" xmlns="http://www.w3.org/2000/svg" xmlns:xlink="http://www.w3.org/1999/xlink">
<g id="graph0" class="graph" transform="scale(1 1) rotate(0) translate(4 817)">
<title>T</title>
<polygon fill="white" stroke="transparent" points="-4,4 -4,-817 1233,-817 1233,4 -4,4"/>
<!-- node_0x503000000670 -->
<g id="node1" class="node">
<title>node_0x503000000670</title>
<path fill="#e9fbf5" stroke="#5aa99b" d="M450,-749.5C450,-749.5 654,-749.5 654,-749.5 660,-749.5 666,-755.5 666,-761.5 666,-761.5 666,-800.5 666,-800.5 666,-806.5 660,-812.5 654,-812.5 654,-812.5 450,-812.5 450,-812.5 444,-812.5 438,-806.5 438,-800.5 438,-800.5 438,-761.5 438,-761.5 438,-755.5 444,-749.5 450,-749.5"/>
<text text-anchor="middle" x="552" y="-798.9" font-family="Fira Mono" font-size="12.00">ptr: 0x503000000670</text>
<polyline fill="none" stroke="#5aa99b" points="438,-791.5 666,-791.5 "/>
<text text-anchor="middle" x="552" y="-777.9" font-family="Fira Mono" font-size="12.00">val: VIS_START</text>
<polyline fill="none" stroke="#5aa99b" points="438,-770.5 666,-770.5 "/>
<text text-anchor="middle" x="515.5" y="-756.9" font-family="Fira Mono" font-size="12.00">prev: 0x5030000006a0</text>
<polyline fill="none" stroke="#5aa99b" points="593,-749.5 593,-770.5 "/>
<text text-anchor="middle" x="629.5" y="-756.9" font-family="Fira Mono" font-size="12.00">next: (nil)</text>
</g>
<!-- node_0x5030000006a0 -->
<g id="node2" class="node">
<title>node_0x5030000006a0</title>
<path fill="#f1eafd" stroke="#8e6bd6" d="M409,-642.5C409,-642.5 695,-642.5 695,-642.5 701,-642.5 707,-648.5 707,-654.5 707,-654.5 707,-693.5 707,-693.5 707,-699.5 701,-705.5 695,-705.5 695,-705.5 409,-705.5 409,-705.5 403,-705.5 397,-699.5 397,-693.5 397,-693.5 397,-654.5 397,-654.5 397,-648.5 403,-642.5 409,-642.5"/>
<text text-anchor="middle" x="552" y="-691.9" font-family="Fira Mono" font-size="12.00">ptr: 0x5030000006a0</text>
<polyline fill="none" stroke="#8e6bd6" points="397,-684.5 707,-684.5 "/>
<text text-anchor="middle" x="552" y="-670.9" font-family="Fira Mono" font-size="12.00">val: FUNC_DECL</text>
<polyline fill="none" stroke="#8e6bd6" points="397,-663.5 707,-663.5 "/>
<text text-anchor="middle" x="474.5" y="-649.9" font-family="Fira Mono" font-size="12.00">prev: 0x5030000006d0</text>
<polyline fill="none" stroke="#8e6bd6" points="552,-642.5 552,-663.5 "/>
<text text-anchor="middle" x="629.5" y="-649.9" font-family="Fira Mono" font-size="12.00">next: 0x503000000880</text>
</g>
<!-- node_0x503000000670&#45;&gt;node_0x5030000006a0 -->
<g id="edge1" class="edge">
<title>node_0x503000000670&#45;&gt;node_0x5030000006a0</title>
<path fill="none" stroke="#999999" d="M552,-749.35C552,-738.78 552,-726.78 552,-715.54"/>
<polygon fill="#999999" stroke="#999999" points="555.5,-715.51 552,-705.51 548.5,-715.51 555.5,-715.51"/>
</g>
<!-- node_0x5030000006d0 -->
<g id="node3" class="node">
<title>node_0x5030000006d0</title>
<path fill="#f1eafd" stroke="#8e6bd6" d="M253,-535.5C253,-535.5 539,-535.5 539,-535.5 545,-535.5 551,-541.5 551,-547.5 551,-547.5 551,-586.5 551,-586.5 551,-592.5 545,-598.5 539,-598.5 539,-598.5 253,-598.5 253,-598.5 247,-598.5 241,-592.5 241,-586.5 241,-586.5 241,-547.5 241,-547.5 241,-541.5 247,-535.5 253,-535.5"/>
<text text-anchor="middle" x="396" y="-584.9" font-family="Fira Mono" font-size="12.00">ptr: 0x5030000006d0</text>
<polyline fill="none" stroke="#8e6bd6" points="241,-577.5 551,-577.5 "/>
<text text-anchor="middle" x="396" y="-563.9" font-family="Fira Mono" font-size="12.00">val: FUNC_INFO</text>
<polyline fill="none" stroke="#8e6bd6" points="241,-556.5 551,-556.5 "/>
<text text-anchor="middle" x="318.5" y="-542.9" font-family="Fira Mono" font-size="12.00">prev: 0x503000000760</text>
<polyline fill="none" stroke="#8e6bd6" points="396,-535.5 396,-556.5 "/>
<text text-anchor="middle" x="473.5" y="-542.9" font-family="Fira Mono" font-size="12.00">next: 0x503000000850</text>
</g>
<!-- node_0x5030000006a0&#45;&gt;node_0x5030000006d0 -->
<g id="edge2" class="edge">
<title>node_0x5030000006a0&#45;&gt;node_0x5030000006d0</title>
<path fill="none" stroke="#999999" d="M506.46,-642.35C488.68,-630.38 468.16,-616.57 449.66,-604.12"/>
<polygon fill="#999999" stroke="#999999" points="451.58,-601.19 441.33,-598.51 447.67,-607 451.58,-601.19"/>
</g>
<!-- node_0x503000000880 -->
<g id="node8" class="node">
<title>node_0x503000000880</title>
<path fill="#f1eafd" stroke="#8e6bd6" d="M606,-535.5C606,-535.5 810,-535.5 810,-535.5 816,-535.5 822,-541.5 822,-547.5 822,-547.5 822,-586.5 822,-586.5 822,-592.5 816,-598.5 810,-598.5 810,-598.5 606,-598.5 606,-598.5 600,-598.5 594,-592.5 594,-586.5 594,-586.5 594,-547.5 594,-547.5 594,-541.5 600,-535.5 606,-535.5"/>
<text text-anchor="middle" x="708" y="-584.9" font-family="Fira Mono" font-size="12.00">ptr: 0x503000000880</text>
<polyline fill="none" stroke="#8e6bd6" points="594,-577.5 822,-577.5 "/>
<text text-anchor="middle" x="708" y="-563.9" font-family="Fira Mono" font-size="12.00">val: VIS_START</text>
<polyline fill="none" stroke="#8e6bd6" points="594,-556.5 822,-556.5 "/>
<text text-anchor="middle" x="671.5" y="-542.9" font-family="Fira Mono" font-size="12.00">prev: 0x5030000008b0</text>
<polyline fill="none" stroke="#8e6bd6" points="749,-535.5 749,-556.5 "/>
<text text-anchor="middle" x="785.5" y="-542.9" font-family="Fira Mono" font-size="12.00">next: (nil)</text>
</g>
<!-- node_0x5030000006a0&#45;&gt;node_0x503000000880 -->
<g id="edge3" class="edge">
<title>node_0x5030000006a0&#45;&gt;node_0x503000000880</title>
<path fill="none" stroke="#999999" d="M597.54,-642.35C615.32,-630.38 635.84,-616.57 654.34,-604.12"/>
<polygon fill="#999999" stroke="#999999" points="656.33,-607 662.67,-598.51 652.42,-601.19 656.33,-607"/>
</g>
<!-- node_0x503000000760 -->
<g id="node4" class="node">
<title>node_0x503000000760</title>
<path fill="#f1eafd" stroke="#8e6bd6" d="M25.5,-428.5C25.5,-428.5 308.5,-428.5 308.5,-428.5 314.5,-428.5 320.5,-434.5 320.5,-440.5 320.5,-440.5 320.5,-479.5 320.5,-479.5 320.5,-485.5 314.5,-491.5 308.5,-491.5 308.5,-491.5 25.5,-491.5 25.5,-491.5 19.5,-491.5 13.5,-485.5 13.5,-479.5 13.5,-479.5 13.5,-440.5 13.5,-440.5 13.5,-434.5 19.5,-428.5 25.5,-428.5"/>
<text text-anchor="middle" x="167" y="-477.9" font-family="Fira Mono" font-size="12.00">ptr: 0x503000000760</text>
<polyline fill="none" stroke="#8e6bd6" points="13.5,-470.5 320.5,-470.5 "/>
<text text-anchor="middle" x="167" y="-456.9" font-family="Fira Mono" font-size="12.00">val: ENUM_SEP</text>
<polyline fill="none" stroke="#8e6bd6" points="13.5,-449.5 320.5,-449.5 "/>
<text text-anchor="middle" x="89.5" y="-435.9" font-family="Fira Mono" font-size="12.00">prev: 0x5030000007f0</text>
<polyline fill="none" stroke="#8e6bd6" points="165.5,-428.5 165.5,-449.5 "/>
<text text-anchor="middle" x="243" y="-435.9" font-family="Fira Mono" font-size="12.00">next: 0x503000000820</text>
</g>
<!-- node_0x5030000006d0&#45;&gt;node_0x503000000760 -->
<g id="edge4" class="edge">
<title>node_0x5030000006d0&#45;&gt;node_0x503000000760</title>
<path fill="none" stroke="#999999" d="M329.46,-535.49C302.41,-523.09 271,-508.68 243.04,-495.87"/>
<polygon fill="#999999" stroke="#999999" points="244.26,-492.57 233.71,-491.59 241.34,-498.94 244.26,-492.57"/>
</g>
<!-- node_0x503000000850 -->
<g id="node7" class="node">
<title>node_0x503000000850</title>
<path fill="#e8f9e5" stroke="#c9fbdb" d="M376,-428.5C376,-428.5 498,-428.5 498,-428.5 504,-428.5 510,-434.5 510,-440.5 510,-440.5 510,-479.5 510,-479.5 510,-485.5 504,-491.5 498,-491.5 498,-491.5 376,-491.5 376,-491.5 370,-491.5 364,-485.5 364,-479.5 364,-479.5 364,-440.5 364,-440.5 364,-434.5 370,-428.5 376,-428.5"/>
<text text-anchor="middle" x="437" y="-477.9" font-family="Fira Mono" font-size="12.00">ptr: 0x503000000850</text>
<polyline fill="none" stroke="#c9fbdb" points="364,-470.5 510,-470.5 "/>
<text text-anchor="middle" x="437" y="-456.9" font-family="Fira Mono" font-size="12.00">val: maintr</text>
<polyline fill="none" stroke="#c9fbdb" points="364,-449.5 510,-449.5 "/>
<text text-anchor="middle" x="400.5" y="-435.9" font-family="Fira Mono" font-size="12.00">prev: (nil)</text>
<polyline fill="none" stroke="#c9fbdb" points="437,-428.5 437,-449.5 "/>
<text text-anchor="middle" x="473.5" y="-435.9" font-family="Fira Mono" font-size="12.00">next: (nil)</text>
</g>
<!-- node_0x5030000006d0&#45;&gt;node_0x503000000850 -->
<g id="edge5" class="edge">
<title>node_0x5030000006d0&#45;&gt;node_0x503000000850</title>
<path fill="none" stroke="#999999" d="M407.97,-535.35C412.18,-524.57 416.97,-512.29 421.44,-500.86"/>
<polygon fill="#999999" stroke="#999999" points="424.71,-502.1 425.09,-491.51 418.19,-499.55 424.71,-502.1"/>
</g>
<!-- node_0x5030000007f0 -->
<g id="node5" class="node">
<title>node_0x5030000007f0</title>
<path fill="#e8f9e5" stroke="#c9fbdb" d="M12,-321.5C12,-321.5 134,-321.5 134,-321.5 140,-321.5 146,-327.5 146,-333.5 146,-333.5 146,-372.5 146,-372.5 146,-378.5 140,-384.5 134,-384.5 134,-384.5 12,-384.5 12,-384.5 6,-384.5 0,-378.5 0,-372.5 0,-372.5 0,-333.5 0,-333.5 0,-327.5 6,-321.5 12,-321.5"/>
<text text-anchor="middle" x="73" y="-370.9" font-family="Fira Mono" font-size="12.00">ptr: 0x5030000007f0</text>
<polyline fill="none" stroke="#c9fbdb" points="0,-363.5 146,-363.5 "/>
<text text-anchor="middle" x="73" y="-349.9" font-family="Fira Mono" font-size="12.00">val: atr</text>
<polyline fill="none" stroke="#c9fbdb" points="0,-342.5 146,-342.5 "/>
<text text-anchor="middle" x="36.5" y="-328.9" font-family="Fira Mono" font-size="12.00">prev: (nil)</text>
<polyline fill="none" stroke="#c9fbdb" points="73,-321.5 73,-342.5 "/>
<text text-anchor="middle" x="109.5" y="-328.9" font-family="Fira Mono" font-size="12.00">next: (nil)</text>
</g>
<!-- node_0x503000000760&#45;&gt;node_0x5030000007f0 -->
<g id="edge6" class="edge">
<title>node_0x503000000760&#45;&gt;node_0x5030000007f0</title>
<path fill="none" stroke="#999999" d="M139.56,-428.35C129.42,-417.03 117.81,-404.06 107.15,-392.15"/>
<polygon fill="#999999" stroke="#999999" points="109.59,-389.63 100.31,-384.51 104.38,-394.29 109.59,-389.63"/>
</g>
<!-- node_0x503000000820 -->
<g id="node6" class="node">
<title>node_0x503000000820</title>
<path fill="#e8f9e5" stroke="#c9fbdb" d="M201,-321.5C201,-321.5 323,-321.5 323,-321.5 329,-321.5 335,-327.5 335,-333.5 335,-333.5 335,-372.5 335,-372.5 335,-378.5 329,-384.5 323,-384.5 323,-384.5 201,-384.5 201,-384.5 195,-384.5 189,-378.5 189,-372.5 189,-372.5 189,-333.5 189,-333.5 189,-327.5 195,-321.5 201,-321.5"/>
<text text-anchor="middle" x="262" y="-370.9" font-family="Fira Mono" font-size="12.00">ptr: 0x503000000820</text>
<polyline fill="none" stroke="#c9fbdb" points="189,-363.5 335,-363.5 "/>
<text text-anchor="middle" x="262" y="-349.9" font-family="Fira Mono" font-size="12.00">val: btr</text>
<polyline fill="none" stroke="#c9fbdb" points="189,-342.5 335,-342.5 "/>
<text text-anchor="middle" x="225.5" y="-328.9" font-family="Fira Mono" font-size="12.00">prev: (nil)</text>
<polyline fill="none" stroke="#c9fbdb" points="262,-321.5 262,-342.5 "/>
<text text-anchor="middle" x="298.5" y="-328.9" font-family="Fira Mono" font-size="12.00">next: (nil)</text>
</g>
<!-- node_0x503000000760&#45;&gt;node_0x503000000820 -->
<g id="edge7" class="edge">
<title>node_0x503000000760&#45;&gt;node_0x503000000820</title>
<path fill="none" stroke="#999999" d="M194.73,-428.35C204.98,-417.03 216.71,-404.06 227.48,-392.15"/>
<polygon fill="#999999" stroke="#999999" points="230.28,-394.27 234.4,-384.51 225.09,-389.58 230.28,-394.27"/>
</g>
<!-- node_0x5030000008b0 -->
<g id="node9" class="node">
<title>node_0x5030000008b0</title>
<path fill="#f1eafd" stroke="#8e6bd6" d="M606,-428.5C606,-428.5 810,-428.5 810,-428.5 816,-428.5 822,-434.5 822,-440.5 822,-440.5 822,-479.5 822,-479.5 822,-485.5 816,-491.5 810,-491.5 810,-491.5 606,-491.5 606,-491.5 600,-491.5 594,-485.5 594,-479.5 594,-479.5 594,-440.5 594,-440.5 594,-434.5 600,-428.5 606,-428.5"/>
<text text-anchor="middle" x="708" y="-477.9" font-family="Fira Mono" font-size="12.00">ptr: 0x5030000008b0</text>
<polyline fill="none" stroke="#8e6bd6" points="594,-470.5 822,-470.5 "/>
<text text-anchor="middle" x="708" y="-456.9" font-family="Fira Mono" font-size="12.00">val: LCAT</text>
<polyline fill="none" stroke="#8e6bd6" points="594,-449.5 822,-449.5 "/>
<text text-anchor="middle" x="671.5" y="-435.9" font-family="Fira Mono" font-size="12.00">prev: 0x5030000008e0</text>
<polyline fill="none" stroke="#8e6bd6" points="749,-428.5 749,-449.5 "/>
<text text-anchor="middle" x="785.5" y="-435.9" font-family="Fira Mono" font-size="12.00">next: (nil)</text>
</g>
<!-- node_0x503000000880&#45;&gt;node_0x5030000008b0 -->
<g id="edge8" class="edge">
<title>node_0x503000000880&#45;&gt;node_0x5030000008b0</title>
<path fill="none" stroke="#999999" d="M708,-535.35C708,-524.78 708,-512.78 708,-501.54"/>
<polygon fill="#999999" stroke="#999999" points="711.5,-501.51 708,-491.51 704.5,-501.51 711.5,-501.51"/>
</g>
<!-- node_0x5030000008e0 -->
<g id="node10" class="node">
<title>node_0x5030000008e0</title>
<path fill="#f1eafd" stroke="#8e6bd6" d="M565,-321.5C565,-321.5 851,-321.5 851,-321.5 857,-321.5 863,-327.5 863,-333.5 863,-333.5 863,-372.5 863,-372.5 863,-378.5 857,-384.5 851,-384.5 851,-384.5 565,-384.5 565,-384.5 559,-384.5 553,-378.5 553,-372.5 553,-372.5 553,-333.5 553,-333.5 553,-327.5 559,-321.5 565,-321.5"/>
<text text-anchor="middle" x="708" y="-370.9" font-family="Fira Mono" font-size="12.00">ptr: 0x5030000008e0</text>
<polyline fill="none" stroke="#8e6bd6" points="553,-363.5 863,-363.5 "/>
<text text-anchor="middle" x="708" y="-349.9" font-family="Fira Mono" font-size="12.00">val: LCAT</text>
<polyline fill="none" stroke="#8e6bd6" points="553,-342.5 863,-342.5 "/>
<text text-anchor="middle" x="630.5" y="-328.9" font-family="Fira Mono" font-size="12.00">prev: 0x503000000910</text>
<polyline fill="none" stroke="#8e6bd6" points="708,-321.5 708,-342.5 "/>
<text text-anchor="middle" x="785.5" y="-328.9" font-family="Fira Mono" font-size="12.00">next: 0x503000000a00</text>
</g>
<!-- node_0x5030000008b0&#45;&gt;node_0x5030000008e0 -->
<g id="edge9" class="edge">
<title>node_0x5030000008b0&#45;&gt;node_0x5030000008e0</title>
<path fill="none" stroke="#999999" d="M708,-428.35C708,-417.78 708,-405.78 708,-394.54"/>
<polygon fill="#999999" stroke="#999999" points="711.5,-394.51 708,-384.51 704.5,-394.51 711.5,-394.51"/>
</g>
<!-- node_0x503000000910 -->
<g id="node11" class="node">
<title>node_0x503000000910</title>
<path fill="#f1eafd" stroke="#8e6bd6" d="M389,-214.5C389,-214.5 675,-214.5 675,-214.5 681,-214.5 687,-220.5 687,-226.5 687,-226.5 687,-265.5 687,-265.5 687,-271.5 681,-277.5 675,-277.5 675,-277.5 389,-277.5 389,-277.5 383,-277.5 377,-271.5 377,-265.5 377,-265.5 377,-226.5 377,-226.5 377,-220.5 383,-214.5 389,-214.5"/>
<text text-anchor="middle" x="532" y="-263.9" font-family="Fira Mono" font-size="12.00">ptr: 0x503000000910</text>
<polyline fill="none" stroke="#8e6bd6" points="377,-256.5 687,-256.5 "/>
<text text-anchor="middle" x="532" y="-242.9" font-family="Fira Mono" font-size="12.00">val: ASSIGN</text>
<polyline fill="none" stroke="#8e6bd6" points="377,-235.5 687,-235.5 "/>
<text text-anchor="middle" x="454.5" y="-221.9" font-family="Fira Mono" font-size="12.00">prev: 0x503000000940</text>
<polyline fill="none" stroke="#8e6bd6" points="532,-214.5 532,-235.5 "/>
<text text-anchor="middle" x="609.5" y="-221.9" font-family="Fira Mono" font-size="12.00">next: 0x503000000970</text>
</g>
<!-- node_0x5030000008e0&#45;&gt;node_0x503000000910 -->
<g id="edge10" class="edge">
<title>node_0x5030000008e0&#45;&gt;node_0x503000000910</title>
<path fill="none" stroke="#999999" d="M656.62,-321.35C636.38,-309.27 612.99,-295.32 591.98,-282.78"/>
<polygon fill="#999999" stroke="#999999" points="593.52,-279.63 583.14,-277.51 589.93,-285.64 593.52,-279.63"/>
</g>
<!-- node_0x503000000a00 -->
<g id="node16" class="node">
<title>node_0x503000000a00</title>
<path fill="#f1eafd" stroke="#8e6bd6" d="M742.5,-214.5C742.5,-214.5 1027.5,-214.5 1027.5,-214.5 1033.5,-214.5 1039.5,-220.5 1039.5,-226.5 1039.5,-226.5 1039.5,-265.5 1039.5,-265.5 1039.5,-271.5 1033.5,-277.5 1027.5,-277.5 1027.5,-277.5 742.5,-277.5 742.5,-277.5 736.5,-277.5 730.5,-271.5 730.5,-265.5 730.5,-265.5 730.5,-226.5 730.5,-226.5 730.5,-220.5 736.5,-214.5 742.5,-214.5"/>
<text text-anchor="middle" x="885" y="-263.9" font-family="Fira Mono" font-size="12.00">ptr: 0x503000000a00</text>
<polyline fill="none" stroke="#8e6bd6" points="730.5,-256.5 1039.5,-256.5 "/>
<text text-anchor="middle" x="885" y="-242.9" font-family="Fira Mono" font-size="12.00">val: IF</text>
<polyline fill="none" stroke="#8e6bd6" points="730.5,-235.5 1039.5,-235.5 "/>
<text text-anchor="middle" x="808" y="-221.9" font-family="Fira Mono" font-size="12.00">prev: 0x503000000a30</text>
<polyline fill="none" stroke="#8e6bd6" points="885.5,-214.5 885.5,-235.5 "/>
<text text-anchor="middle" x="962.5" y="-221.9" font-family="Fira Mono" font-size="12.00">next: 0x503000000ac0</text>
</g>
<!-- node_0x5030000008e0&#45;&gt;node_0x503000000a00 -->
<g id="edge11" class="edge">
<title>node_0x5030000008e0&#45;&gt;node_0x503000000a00</title>
<path fill="none" stroke="#999999" d="M759.67,-321.35C780.12,-309.22 803.76,-295.19 824.96,-282.62"/>
<polygon fill="#999999" stroke="#999999" points="826.76,-285.62 833.57,-277.51 823.18,-279.6 826.76,-285.62"/>
</g>
<!-- node_0x503000000940 -->
<g id="node12" class="node">
<title>node_0x503000000940</title>
<path fill="#e8f9e5" stroke="#c9fbdb" d="M200,-107.5C200,-107.5 322,-107.5 322,-107.5 328,-107.5 334,-113.5 334,-119.5 334,-119.5 334,-158.5 334,-158.5 334,-164.5 328,-170.5 322,-170.5 322,-170.5 200,-170.5 200,-170.5 194,-170.5 188,-164.5 188,-158.5 188,-158.5 188,-119.5 188,-119.5 188,-113.5 194,-107.5 200,-107.5"/>
<text text-anchor="middle" x="261" y="-156.9" font-family="Fira Mono" font-size="12.00">ptr: 0x503000000940</text>
<polyline fill="none" stroke="#c9fbdb" points="188,-149.5 334,-149.5 "/>
<text text-anchor="middle" x="261" y="-135.9" font-family="Fira Mono" font-size="12.00">val: xtr</text>
<polyline fill="none" stroke="#c9fbdb" points="188,-128.5 334,-128.5 "/>
<text text-anchor="middle" x="224.5" y="-114.9" font-family="Fira Mono" font-size="12.00">prev: (nil)</text>
<polyline fill="none" stroke="#c9fbdb" points="261,-107.5 261,-128.5 "/>
<text text-anchor="middle" x="297.5" y="-114.9" font-family="Fira Mono" font-size="12.00">next: (nil)</text>
</g>
<!-- node_0x503000000910&#45;&gt;node_0x503000000940 -->
<g id="edge12" class="edge">
<title>node_0x503000000910&#45;&gt;node_0x503000000940</title>
<path fill="none" stroke="#999999" d="M453.25,-214.49C418.97,-201.21 378.77,-185.63 344.02,-172.17"/>
<polygon fill="#999999" stroke="#999999" points="344.96,-168.78 334.37,-168.43 342.43,-175.3 344.96,-168.78"/>
</g>
<!-- node_0x503000000970 -->
<g id="node13" class="node">
<title>node_0x503000000970</title>
<path fill="#f1eafd" stroke="#8e6bd6" d="M389,-107.5C389,-107.5 675,-107.5 675,-107.5 681,-107.5 687,-113.5 687,-119.5 687,-119.5 687,-158.5 687,-158.5 687,-164.5 681,-170.5 675,-170.5 675,-170.5 389,-170.5 389,-170.5 383,-170.5 377,-164.5 377,-158.5 377,-158.5 377,-119.5 377,-119.5 377,-113.5 383,-107.5 389,-107.5"/>
<text text-anchor="middle" x="532" y="-156.9" font-family="Fira Mono" font-size="12.00">ptr: 0x503000000970</text>
<polyline fill="none" stroke="#8e6bd6" points="377,-149.5 687,-149.5 "/>
<text text-anchor="middle" x="532" y="-135.9" font-family="Fira Mono" font-size="12.00">val: ADD</text>
<polyline fill="none" stroke="#8e6bd6" points="377,-128.5 687,-128.5 "/>
<text text-anchor="middle" x="454.5" y="-114.9" font-family="Fira Mono" font-size="12.00">prev: 0x5030000009a0</text>
<polyline fill="none" stroke="#8e6bd6" points="532,-107.5 532,-128.5 "/>
<text text-anchor="middle" x="609.5" y="-114.9" font-family="Fira Mono" font-size="12.00">next: 0x5030000009d0</text>
</g>
<!-- node_0x503000000910&#45;&gt;node_0x503000000970 -->
<g id="edge13" class="edge">
<title>node_0x503000000910&#45;&gt;node_0x503000000970</title>
<path fill="none" stroke="#999999" d="M532,-214.35C532,-203.78 532,-191.78 532,-180.54"/>
<polygon fill="#999999" stroke="#999999" points="535.5,-180.51 532,-170.51 528.5,-180.51 535.5,-180.51"/>
</g>
<!-- node_0x5030000009a0 -->
<g id="node14" class="node">
<title>node_0x5030000009a0</title>
<path fill="#e8f9e5" stroke="#c9fbdb" d="M323,-0.5C323,-0.5 445,-0.5 445,-0.5 451,-0.5 457,-6.5 457,-12.5 457,-12.5 457,-51.5 457,-51.5 457,-57.5 451,-63.5 445,-63.5 445,-63.5 323,-63.5 323,-63.5 317,-63.5 311,-57.5 311,-51.5 311,-51.5 311,-12.5 311,-12.5 311,-6.5 317,-0.5 323,-0.5"/>
<text text-anchor="middle" x="384" y="-49.9" font-family="Fira Mono" font-size="12.00">ptr: 0x5030000009a0</text>
<polyline fill="none" stroke="#c9fbdb" points="311,-42.5 457,-42.5 "/>
<text text-anchor="middle" x="384" y="-28.9" font-family="Fira Mono" font-size="12.00">val: atr</text>
<polyline fill="none" stroke="#c9fbdb" points="311,-21.5 457,-21.5 "/>
<text text-anchor="middle" x="347.5" y="-7.9" font-family="Fira Mono" font-size="12.00">prev: (nil)</text>
<polyline fill="none" stroke="#c9fbdb" points="384,-0.5 384,-21.5 "/>
<text text-anchor="middle" x="420.5" y="-7.9" font-family="Fira Mono" font-size="12.00">next: (nil)</text>
</g>
<!-- node_0x503000000970&#45;&gt;node_0x5030000009a0 -->
<g id="edge14" class="edge">
<title>node_0x503000000970&#45;&gt;node_0x5030000009a0</title>
<path fill="none" stroke="#999999" d="M488.79,-107.35C472.08,-95.49 452.81,-81.82 435.39,-69.46"/>
<polygon fill="#999999" stroke="#999999" points="437.18,-66.44 427,-63.51 433.13,-72.15 437.18,-66.44"/>
</g>
<!-- node_0x5030000009d0 -->
<g id="node15" class="node">
<title>node_0x5030000009d0</title>
<path fill="#e8f9e5" stroke="#c9fbdb" d="M512,-0.5C512,-0.5 634,-0.5 634,-0.5 640,-0.5 646,-6.5 646,-12.5 646,-12.5 646,-51.5 646,-51.5 646,-57.5 640,-63.5 634,-63.5 634,-63.5 512,-63.5 512,-63.5 506,-63.5 500,-57.5 500,-51.5 500,-51.5 500,-12.5 500,-12.5 500,-6.5 506,-0.5 512,-0.5"/>
<text text-anchor="middle" x="573" y="-49.9" font-family="Fira Mono" font-size="12.00">ptr: 0x5030000009d0</text>
<polyline fill="none" stroke="#c9fbdb" points="500,-42.5 646,-42.5 "/>
<text text-anchor="middle" x="573" y="-28.9" font-family="Fira Mono" font-size="12.00">val: btr</text>
<polyline fill="none" stroke="#c9fbdb" points="500,-21.5 646,-21.5 "/>
<text text-anchor="middle" x="536.5" y="-7.9" font-family="Fira Mono" font-size="12.00">prev: (nil)</text>
<polyline fill="none" stroke="#c9fbdb" points="573,-0.5 573,-21.5 "/>
<text text-anchor="middle" x="609.5" y="-7.9" font-family="Fira Mono" font-size="12.00">next: (nil)</text>
</g>
<!-- node_0x503000000970&#45;&gt;node_0x5030000009d0 -->
<g id="edge15" class="edge">
<title>node_0x503000000970&#45;&gt;node_0x5030000009d0</title>
<path fill="none" stroke="#999999" d="M543.97,-107.35C548.18,-96.57 552.97,-84.29 557.44,-72.86"/>
<polygon fill="#999999" stroke="#999999" points="560.71,-74.1 561.09,-63.51 554.19,-71.55 560.71,-74.1"/>
</g>
<!-- node_0x503000000a30 -->
<g id="node17" class="node">
<title>node_0x503000000a30</title>
<path fill="#f1eafd" stroke="#8e6bd6" d="M742,-107.5C742,-107.5 1028,-107.5 1028,-107.5 1034,-107.5 1040,-113.5 1040,-119.5 1040,-119.5 1040,-158.5 1040,-158.5 1040,-164.5 1034,-170.5 1028,-170.5 1028,-170.5 742,-170.5 742,-170.5 736,-170.5 730,-164.5 730,-158.5 730,-158.5 730,-119.5 730,-119.5 730,-113.5 736,-107.5 742,-107.5"/>
<text text-anchor="middle" x="885" y="-156.9" font-family="Fira Mono" font-size="12.00">ptr: 0x503000000a30</text>
<polyline fill="none" stroke="#8e6bd6" points="730,-149.5 1040,-149.5 "/>
<text text-anchor="middle" x="885" y="-135.9" font-family="Fira Mono" font-size="12.00">val: EQ</text>
<polyline fill="none" stroke="#8e6bd6" points="730,-128.5 1040,-128.5 "/>
<text text-anchor="middle" x="807.5" y="-114.9" font-family="Fira Mono" font-size="12.00">prev: 0x503000000a60</text>
<polyline fill="none" stroke="#8e6bd6" points="885,-107.5 885,-128.5 "/>
<text text-anchor="middle" x="962.5" y="-114.9" font-family="Fira Mono" font-size="12.00">next: 0x503000000a90</text>
</g>
<!-- node_0x503000000a00&#45;&gt;node_0x503000000a30 -->
<g id="edge16" class="edge">
<title>node_0x503000000a00&#45;&gt;node_0x503000000a30</title>
<path fill="none" stroke="#999999" d="M885,-214.35C885,-203.78 885,-191.78 885,-180.54"/>
<polygon fill="#999999" stroke="#999999" points="888.5,-180.51 885,-170.51 881.5,-180.51 888.5,-180.51"/>
</g>
<!-- node_0x503000000ac0 -->
<g id="node20" class="node">
<title>node_0x503000000ac0</title>
<path fill="#e8f9e5" stroke="#c9fbdb" d="M1095,-107.5C1095,-107.5 1217,-107.5 1217,-107.5 1223,-107.5 1229,-113.5 1229,-119.5 1229,-119.5 1229,-158.5 1229,-158.5 1229,-164.5 1223,-170.5 1217,-170.5 1217,-170.5 1095,-170.5 1095,-170.5 1089,-170.5 1083,-164.5 1083,-158.5 1083,-158.5 1083,-119.5 1083,-119.5 1083,-113.5 1089,-107.5 1095,-107.5"/>
<text text-anchor="middle" x="1156" y="-156.9" font-family="Fira Mono" font-size="12.00">ptr: 0x503000000ac0</text>
<polyline fill="none" stroke="#c9fbdb" points="1083,-149.5 1229,-149.5 "/>
<text text-anchor="middle" x="1156" y="-135.9" font-family="Fira Mono" font-size="12.00">val: VIS_START</text>
<polyline fill="none" stroke="#c9fbdb" points="1083,-128.5 1229,-128.5 "/>
<text text-anchor="middle" x="1119.5" y="-114.9" font-family="Fira Mono" font-size="12.00">prev: (nil)</text>
<polyline fill="none" stroke="#c9fbdb" points="1156,-107.5 1156,-128.5 "/>
<text text-anchor="middle" x="1192.5" y="-114.9" font-family="Fira Mono" font-size="12.00">next: (nil)</text>
</g>
<!-- node_0x503000000a00&#45;&gt;node_0x503000000ac0 -->
<g id="edge17" class="edge">
<title>node_0x503000000a00&#45;&gt;node_0x503000000ac0</title>
<path fill="none" stroke="#999999" d="M963.75,-214.49C998.03,-201.21 1038.23,-185.63 1072.98,-172.17"/>
<polygon fill="#999999" stroke="#999999" points="1074.57,-175.3 1082.63,-168.43 1072.04,-168.78 1074.57,-175.3"/>
</g>
<!-- node_0x503000000a60 -->
<g id="node18" class="node">
<title>node_0x503000000a60</title>
<path fill="#e8f9e5" stroke="#c9fbdb" d="M783,-0.5C783,-0.5 905,-0.5 905,-0.5 911,-0.5 917,-6.5 917,-12.5 917,-12.5 917,-51.5 917,-51.5 917,-57.5 911,-63.5 905,-63.5 905,-63.5 783,-63.5 783,-63.5 777,-63.5 771,-57.5 771,-51.5 771,-51.5 771,-12.5 771,-12.5 771,-6.5 777,-0.5 783,-0.5"/>
<text text-anchor="middle" x="844" y="-49.9" font-family="Fira Mono" font-size="12.00">ptr: 0x503000000a60</text>
<polyline fill="none" stroke="#c9fbdb" points="771,-42.5 917,-42.5 "/>
<text text-anchor="middle" x="844" y="-28.9" font-family="Fira Mono" font-size="12.00">val: xtr</text>
<polyline fill="none" stroke="#c9fbdb" points="771,-21.5 917,-21.5 "/>
<text text-anchor="middle" x="807.5" y="-7.9" font-family="Fira Mono" font-size="12.00">prev: (nil)</text>
<polyline fill="none" stroke="#c9fbdb" points="844,-0.5 844,-21.5 "/>
<text text-anchor="middle" x="880.5" y="-7.9" font-family="Fira Mono" font-size="12.00">next: (nil)</text>
</g>
<!-- node_0x503000000a30&#45;&gt;node_0x503000000a60 -->
<g id="edge18" class="edge">
<title>node_0x503000000a30&#45;&gt;node_0x503000000a60</title>
<path fill="none" stroke="#999999" d="M873.03,-107.35C868.82,-96.57 864.03,-84.29 859.56,-72.86"/>
<polygon fill="#999999" stroke="#999999" points="862.81,-71.55 855.91,-63.51 856.29,-74.1 862.81,-71.55"/>
</g>
<!-- node_0x503000000a90 -->
<g id="node19" class="node">
<title>node_0x503000000a90</title>
<path fill="#e8f9e5" stroke="#c9fbdb" d="M972,-0.5C972,-0.5 1094,-0.5 1094,-0.5 1100,-0.5 1106,-6.5 1106,-12.5 1106,-12.5 1106,-51.5 1106,-51.5 1106,-57.5 1100,-63.5 1094,-63.5 1094,-63.5 972,-63.5 972,-63.5 966,-63.5 960,-57.5 960,-51.5 960,-51.5 960,-12.5 960,-12.5 960,-6.5 966,-0.5 972,-0.5"/>
<text text-anchor="middle" x="1033" y="-49.9" font-family="Fira Mono" font-size="12.00">ptr: 0x503000000a90</text>
<polyline fill="none" stroke="#c9fbdb" points="960,-42.5 1106,-42.5 "/>
<text text-anchor="middle" x="1033" y="-28.9" font-family="Fira Mono" font-size="12.00">val: 1.000000</text>
<polyline fill="none" stroke="#c9fbdb" points="960,-21.5 1106,-21.5 "/>
<text text-anchor="middle" x="996.5" y="-7.9" font-family="Fira Mono" font-size="12.00">prev: (nil)</text>
<polyline fill="none" stroke="#c9fbdb" points="1033,-0.5 1033,-21.5 "/>
<text text-anchor="middle" x="1069.5" y="-7.9" font-family="Fira Mono" font-size="12.00">next: (nil)</text>
</g>
<!-- node_0x503000000a30&#45;&gt;node_0x503000000a90 -->
<g id="edge19" class="edge">
<title>node_0x503000000a30&#45;&gt;node_0x503000000a90</title>
<path fill="none" stroke="#999999" d="M928.21,-107.35C944.92,-95.49 964.19,-81.82 981.61,-69.46"/>
<polygon fill="#999999" stroke="#999999" points="983.87,-72.15 990,-63.51 979.82,-66.44 983.87,-72.15"/>
</g>
</g>
</svg>
