<?xml version="1.0" encoding="UTF-8" standalone="no"?>
<!DOCTYPE svg PUBLIC "-//W3C//DTD SVG 1.1//EN"
 "http://www.w3.org/Graphics/SVG/1.1/DTD/svg11.dtd">
<!-- Generated by graphviz version 2.43.0 (0)
 -->
<!-- Title: T Pages: 1 -->
<svg width="1307pt" height="928pt"
 viewBox="0.00 0.00 1307.00 928.00" xmlns="http://www.w3.org/2000/svg" xmlns:xlink="http://www.w3.org/1999/xlink">
<g id="graph0" class="graph" transform="scale(1 1) rotate(0) translate(4 924)">
<title>T</title>
<polygon fill="white" stroke="transparent" points="-4,4 -4,-924 1303,-924 1303,4 -4,4"/>
<!-- node_0x503000000670 -->
<g id="node1" class="node">
<title>node_0x503000000670</title>
<path fill="#e9fbf5" stroke="#5aa99b" d="M470,-856.5C470,-856.5 674,-856.5 674,-856.5 680,-856.5 686,-862.5 686,-868.5 686,-868.5 686,-907.5 686,-907.5 686,-913.5 680,-919.5 674,-919.5 674,-919.5 470,-919.5 470,-919.5 464,-919.5 458,-913.5 458,-907.5 458,-907.5 458,-868.5 458,-868.5 458,-862.5 464,-856.5 470,-856.5"/>
<text text-anchor="middle" x="572" y="-905.9" font-family="Fira Mono" font-size="12.00">ptr: 0x503000000670</text>
<polyline fill="none" stroke="#5aa99b" points="458,-898.5 686,-898.5 "/>
<text text-anchor="middle" x="572" y="-884.9" font-family="Fira Mono" font-size="12.00">val: VIS_START</text>
<polyline fill="none" stroke="#5aa99b" points="458,-877.5 686,-877.5 "/>
<text text-anchor="middle" x="535.5" y="-863.9" font-family="Fira Mono" font-size="12.00">prev: 0x5030000006a0</text>
<polyline fill="none" stroke="#5aa99b" points="613,-856.5 613,-877.5 "/>
<text text-anchor="middle" x="649.5" y="-863.9" font-family="Fira Mono" font-size="12.00">next: (nil)</text>
</g>
<!-- node_0x5030000006a0 -->
<g id="node2" class="node">
<title>node_0x5030000006a0</title>
<path fill="#f1eafd" stroke="#8e6bd6" d="M429,-749.5C429,-749.5 715,-749.5 715,-749.5 721,-749.5 727,-755.5 727,-761.5 727,-761.5 727,-800.5 727,-800.5 727,-806.5 721,-812.5 715,-812.5 715,-812.5 429,-812.5 429,-812.5 423,-812.5 417,-806.5 417,-800.5 417,-800.5 417,-761.5 417,-761.5 417,-755.5 423,-749.5 429,-749.5"/>
<text text-anchor="middle" x="572" y="-798.9" font-family="Fira Mono" font-size="12.00">ptr: 0x5030000006a0</text>
<polyline fill="none" stroke="#8e6bd6" points="417,-791.5 727,-791.5 "/>
<text text-anchor="middle" x="572" y="-777.9" font-family="Fira Mono" font-size="12.00">val: FUNC_DECL</text>
<polyline fill="none" stroke="#8e6bd6" points="417,-770.5 727,-770.5 "/>
<text text-anchor="middle" x="494.5" y="-756.9" font-family="Fira Mono" font-size="12.00">prev: 0x5030000006d0</text>
<polyline fill="none" stroke="#8e6bd6" points="572,-749.5 572,-770.5 "/>
<text text-anchor="middle" x="649.5" y="-756.9" font-family="Fira Mono" font-size="12.00">next: 0x503000000880</text>
</g>
<!-- node_0x503000000670&#45;&gt;node_0x5030000006a0 -->
<g id="edge1" class="edge">
<title>node_0x503000000670&#45;&gt;node_0x5030000006a0</title>
<path fill="none" stroke="#999999" d="M572,-856.35C572,-845.78 572,-833.78 572,-822.54"/>
<polygon fill="#999999" stroke="#999999" points="575.5,-822.51 572,-812.51 568.5,-822.51 575.5,-822.51"/>
</g>
<!-- node_0x5030000006d0 -->
<g id="node3" class="node">
<title>node_0x5030000006d0</title>
<path fill="#f1eafd" stroke="#8e6bd6" d="M273,-642.5C273,-642.5 559,-642.5 559,-642.5 565,-642.5 571,-648.5 571,-654.5 571,-654.5 571,-693.5 571,-693.5 571,-699.5 565,-705.5 559,-705.5 559,-705.5 273,-705.5 273,-705.5 267,-705.5 261,-699.5 261,-693.5 261,-693.5 261,-654.5 261,-654.5 261,-648.5 267,-642.5 273,-642.5"/>
<text text-anchor="middle" x="416" y="-691.9" font-family="Fira Mono" font-size="12.00">ptr: 0x5030000006d0</text>
<polyline fill="none" stroke="#8e6bd6" points="261,-684.5 571,-684.5 "/>
<text text-anchor="middle" x="416" y="-670.9" font-family="Fira Mono" font-size="12.00">val: FUNC_INFO</text>
<polyline fill="none" stroke="#8e6bd6" points="261,-663.5 571,-663.5 "/>
<text text-anchor="middle" x="338.5" y="-649.9" font-family="Fira Mono" font-size="12.00">prev: 0x503000000760</text>
<polyline fill="none" stroke="#8e6bd6" points="416,-642.5 416,-663.5 "/>
<text text-anchor="middle" x="493.5" y="-649.9" font-family="Fira Mono" font-size="12.00">next: 0x503000000850</text>
</g>
<!-- node_0x5030000006a0&#45;&gt;node_0x5030000006d0 -->
<g id="edge2" class="edge">
<title>node_0x5030000006a0&#45;&gt;node_0x5030000006d0</title>
<path fill="none" stroke="#999999" d="M526.46,-749.35C508.68,-737.38 488.16,-723.57 469.66,-711.12"/>
<polygon fill="#999999" stroke="#999999" points="471.58,-708.19 461.33,-705.51 467.67,-714 471.58,-708.19"/>
</g>
<!-- node_0x503000000880 -->
<g id="node8" class="node">
<title>node_0x503000000880</title>
<path fill="#f1eafd" stroke="#8e6bd6" d="M626,-642.5C626,-642.5 830,-642.5 830,-642.5 836,-642.5 842,-648.5 842,-654.5 842,-654.5 842,-693.5 842,-693.5 842,-699.5 836,-705.5 830,-705.5 830,-705.5 626,-705.5 626,-705.5 620,-705.5 614,-699.5 614,-693.5 614,-693.5 614,-654.5 614,-654.5 614,-648.5 620,-642.5 626,-642.5"/>
<text text-anchor="middle" x="728" y="-691.9" font-family="Fira Mono" font-size="12.00">ptr: 0x503000000880</text>
<polyline fill="none" stroke="#8e6bd6" points="614,-684.5 842,-684.5 "/>
<text text-anchor="middle" x="728" y="-670.9" font-family="Fira Mono" font-size="12.00">val: VIS_START</text>
<polyline fill="none" stroke="#8e6bd6" points="614,-663.5 842,-663.5 "/>
<text text-anchor="middle" x="691.5" y="-649.9" font-family="Fira Mono" font-size="12.00">prev: 0x5030000008b0</text>
<polyline fill="none" stroke="#8e6bd6" points="769,-642.5 769,-663.5 "/>
<text text-anchor="middle" x="805.5" y="-649.9" font-family="Fira Mono" font-size="12.00">next: (nil)</text>
</g>
<!-- node_0x5030000006a0&#45;&gt;node_0x503000000880 -->
<g id="edge3" class="edge">
<title>node_0x5030000006a0&#45;&gt;node_0x503000000880</title>
<path fill="none" stroke="#999999" d="M617.54,-749.35C635.32,-737.38 655.84,-723.57 674.34,-711.12"/>
<polygon fill="#999999" stroke="#999999" points="676.33,-714 682.67,-705.51 672.42,-708.19 676.33,-714"/>
</g>
<!-- node_0x503000000760 -->
<g id="node4" class="node">
<title>node_0x503000000760</title>
<path fill="#f1eafd" stroke="#8e6bd6" d="M25.5,-535.5C25.5,-535.5 308.5,-535.5 308.5,-535.5 314.5,-535.5 320.5,-541.5 320.5,-547.5 320.5,-547.5 320.5,-586.5 320.5,-586.5 320.5,-592.5 314.5,-598.5 308.5,-598.5 308.5,-598.5 25.5,-598.5 25.5,-598.5 19.5,-598.5 13.5,-592.5 13.5,-586.5 13.5,-586.5 13.5,-547.5 13.5,-547.5 13.5,-541.5 19.5,-535.5 25.5,-535.5"/>
<text text-anchor="middle" x="167" y="-584.9" font-family="Fira Mono" font-size="12.00">ptr: 0x503000000760</text>
<polyline fill="none" stroke="#8e6bd6" points="13.5,-577.5 320.5,-577.5 "/>
<text text-anchor="middle" x="167" y="-563.9" font-family="Fira Mono" font-size="12.00">val: ENUM_SEP</text>
<polyline fill="none" stroke="#8e6bd6" points="13.5,-556.5 320.5,-556.5 "/>
<text text-anchor="middle" x="89.5" y="-542.9" font-family="Fira Mono" font-size="12.00">prev: 0x5030000007f0</text>
<polyline fill="none" stroke="#8e6bd6" points="165.5,-535.5 165.5,-556.5 "/>
<text text-anchor="middle" x="243" y="-542.9" font-family="Fira Mono" font-size="12.00">next: 0x503000000820</text>
</g>
<!-- node_0x5030000006d0&#45;&gt;node_0x503000000760 -->
<g id="edge4" class="edge">
<title>node_0x5030000006d0&#45;&gt;node_0x503000000760</title>
<path fill="none" stroke="#999999" d="M343.64,-642.49C313.98,-629.98 279.48,-615.43 248.89,-602.53"/>
<polygon fill="#999999" stroke="#999999" points="250.11,-599.25 239.54,-598.59 247.39,-605.7 250.11,-599.25"/>
</g>
<!-- node_0x503000000850 -->
<g id="node7" class="node">
<title>node_0x503000000850</title>
<path fill="#e8f9e5" stroke="#c9fbdb" d="M376,-535.5C376,-535.5 498,-535.5 498,-535.5 504,-535.5 510,-541.5 510,-547.5 510,-547.5 510,-586.5 510,-586.5 510,-592.5 504,-598.5 498,-598.5 498,-598.5 376,-598.5 376,-598.5 370,-598.5 364,-592.5 364,-586.5 364,-586.5 364,-547.5 364,-547.5 364,-541.5 370,-535.5 376,-535.5"/>
<text text-anchor="middle" x="437" y="-584.9" font-family="Fira Mono" font-size="12.00">ptr: 0x503000000850</text>
<polyline fill="none" stroke="#c9fbdb" points="364,-577.5 510,-577.5 "/>
<text text-anchor="middle" x="437" y="-563.9" font-family="Fira Mono" font-size="12.00">val: maintr</text>
<polyline fill="none" stroke="#c9fbdb" points="364,-556.5 510,-556.5 "/>
<text text-anchor="middle" x="400.5" y="-542.9" font-family="Fira Mono" font-size="12.00">prev: (nil)</text>
<polyline fill="none" stroke="#c9fbdb" points="437,-535.5 437,-556.5 "/>
<text text-anchor="middle" x="473.5" y="-542.9" font-family="Fira Mono" font-size="12.00">next: (nil)</text>
</g>
<!-- node_0x5030000006d0&#45;&gt;node_0x503000000850 -->
<g id="edge5" class="edge">
<title>node_0x5030000006d0&#45;&gt;node_0x503000000850</title>
<path fill="none" stroke="#999999" d="M422.13,-642.35C424.24,-631.78 426.64,-619.78 428.89,-608.54"/>
<polygon fill="#999999" stroke="#999999" points="432.37,-609 430.9,-598.51 425.5,-607.63 432.37,-609"/>
</g>
<!-- node_0x5030000007f0 -->
<g id="node5" class="node">
<title>node_0x5030000007f0</title>
<path fill="#e8f9e5" stroke="#c9fbdb" d="M12,-428.5C12,-428.5 134,-428.5 134,-428.5 140,-428.5 146,-434.5 146,-440.5 146,-440.5 146,-479.5 146,-479.5 146,-485.5 140,-491.5 134,-491.5 134,-491.5 12,-491.5 12,-491.5 6,-491.5 0,-485.5 0,-479.5 0,-479.5 0,-440.5 0,-440.5 0,-434.5 6,-428.5 12,-428.5"/>
<text text-anchor="middle" x="73" y="-477.9" font-family="Fira Mono" font-size="12.00">ptr: 0x5030000007f0</text>
<polyline fill="none" stroke="#c9fbdb" points="0,-470.5 146,-470.5 "/>
<text text-anchor="middle" x="73" y="-456.9" font-family="Fira Mono" font-size="12.00">val: atr</text>
<polyline fill="none" stroke="#c9fbdb" points="0,-449.5 146,-449.5 "/>
<text text-anchor="middle" x="36.5" y="-435.9" font-family="Fira Mono" font-size="12.00">prev: (nil)</text>
<polyline fill="none" stroke="#c9fbdb" points="73,-428.5 73,-449.5 "/>
<text text-anchor="middle" x="109.5" y="-435.9" font-family="Fira Mono" font-size="12.00">next: (nil)</text>
</g>
<!-- node_0x503000000760&#45;&gt;node_0x5030000007f0 -->
<g id="edge6" class="edge">
<title>node_0x503000000760&#45;&gt;node_0x5030000007f0</title>
<path fill="none" stroke="#999999" d="M139.56,-535.35C129.42,-524.03 117.81,-511.06 107.15,-499.15"/>
<polygon fill="#999999" stroke="#999999" points="109.59,-496.63 100.31,-491.51 104.38,-501.29 109.59,-496.63"/>
</g>
<!-- node_0x503000000820 -->
<g id="node6" class="node">
<title>node_0x503000000820</title>
<path fill="#e8f9e5" stroke="#c9fbdb" d="M201,-428.5C201,-428.5 323,-428.5 323,-428.5 329,-428.5 335,-434.5 335,-440.5 335,-440.5 335,-479.5 335,-479.5 335,-485.5 329,-491.5 323,-491.5 323,-491.5 201,-491.5 201,-491.5 195,-491.5 189,-485.5 189,-479.5 189,-479.5 189,-440.5 189,-440.5 189,-434.5 195,-428.5 201,-428.5"/>
<text text-anchor="middle" x="262" y="-477.9" font-family="Fira Mono" font-size="12.00">ptr: 0x503000000820</text>
<polyline fill="none" stroke="#c9fbdb" points="189,-470.5 335,-470.5 "/>
<text text-anchor="middle" x="262" y="-456.9" font-family="Fira Mono" font-size="12.00">val: btr</text>
<polyline fill="none" stroke="#c9fbdb" points="189,-449.5 335,-449.5 "/>
<text text-anchor="middle" x="225.5" y="-435.9" font-family="Fira Mono" font-size="12.00">prev: (nil)</text>
<polyline fill="none" stroke="#c9fbdb" points="262,-428.5 262,-449.5 "/>
<text text-anchor="middle" x="298.5" y="-435.9" font-family="Fira Mono" font-size="12.00">next: (nil)</text>
</g>
<!-- node_0x503000000760&#45;&gt;node_0x503000000820 -->
<g id="edge7" class="edge">
<title>node_0x503000000760&#45;&gt;node_0x503000000820</title>
<path fill="none" stroke="#999999" d="M194.73,-535.35C204.98,-524.03 216.71,-511.06 227.48,-499.15"/>
<polygon fill="#999999" stroke="#999999" points="230.28,-501.27 234.4,-491.51 225.09,-496.58 230.28,-501.27"/>
</g>
<!-- node_0x5030000008b0 -->
<g id="node9" class="node">
<title>node_0x5030000008b0</title>
<path fill="#f1eafd" stroke="#8e6bd6" d="M585,-535.5C585,-535.5 871,-535.5 871,-535.5 877,-535.5 883,-541.5 883,-547.5 883,-547.5 883,-586.5 883,-586.5 883,-592.5 877,-598.5 871,-598.5 871,-598.5 585,-598.5 585,-598.5 579,-598.5 573,-592.5 573,-586.5 573,-586.5 573,-547.5 573,-547.5 573,-541.5 579,-535.5 585,-535.5"/>
<text text-anchor="middle" x="728" y="-584.9" font-family="Fira Mono" font-size="12.00">ptr: 0x5030000008b0</text>
<polyline fill="none" stroke="#8e6bd6" points="573,-577.5 883,-577.5 "/>
<text text-anchor="middle" x="728" y="-563.9" font-family="Fira Mono" font-size="12.00">val: LCAT</text>
<polyline fill="none" stroke="#8e6bd6" points="573,-556.5 883,-556.5 "/>
<text text-anchor="middle" x="650.5" y="-542.9" font-family="Fira Mono" font-size="12.00">prev: 0x5030000008e0</text>
<polyline fill="none" stroke="#8e6bd6" points="728,-535.5 728,-556.5 "/>
<text text-anchor="middle" x="805.5" y="-542.9" font-family="Fira Mono" font-size="12.00">next: 0x503000000b50</text>
</g>
<!-- node_0x503000000880&#45;&gt;node_0x5030000008b0 -->
<g id="edge8" class="edge">
<title>node_0x503000000880&#45;&gt;node_0x5030000008b0</title>
<path fill="none" stroke="#999999" d="M728,-642.35C728,-631.78 728,-619.78 728,-608.54"/>
<polygon fill="#999999" stroke="#999999" points="731.5,-608.51 728,-598.51 724.5,-608.51 731.5,-608.51"/>
</g>
<!-- node_0x5030000008e0 -->
<g id="node10" class="node">
<title>node_0x5030000008e0</title>
<path fill="#f1eafd" stroke="#8e6bd6" d="M477,-428.5C477,-428.5 763,-428.5 763,-428.5 769,-428.5 775,-434.5 775,-440.5 775,-440.5 775,-479.5 775,-479.5 775,-485.5 769,-491.5 763,-491.5 763,-491.5 477,-491.5 477,-491.5 471,-491.5 465,-485.5 465,-479.5 465,-479.5 465,-440.5 465,-440.5 465,-434.5 471,-428.5 477,-428.5"/>
<text text-anchor="middle" x="620" y="-477.9" font-family="Fira Mono" font-size="12.00">ptr: 0x5030000008e0</text>
<polyline fill="none" stroke="#8e6bd6" points="465,-470.5 775,-470.5 "/>
<text text-anchor="middle" x="620" y="-456.9" font-family="Fira Mono" font-size="12.00">val: LCAT</text>
<polyline fill="none" stroke="#8e6bd6" points="465,-449.5 775,-449.5 "/>
<text text-anchor="middle" x="542.5" y="-435.9" font-family="Fira Mono" font-size="12.00">prev: 0x503000000910</text>
<polyline fill="none" stroke="#8e6bd6" points="620,-428.5 620,-449.5 "/>
<text text-anchor="middle" x="697.5" y="-435.9" font-family="Fira Mono" font-size="12.00">next: 0x503000000a00</text>
</g>
<!-- node_0x5030000008b0&#45;&gt;node_0x5030000008e0 -->
<g id="edge9" class="edge">
<title>node_0x5030000008b0&#45;&gt;node_0x5030000008e0</title>
<path fill="none" stroke="#999999" d="M696.47,-535.35C684.72,-523.92 671.23,-510.81 658.89,-498.81"/>
<polygon fill="#999999" stroke="#999999" points="660.99,-495.97 651.38,-491.51 656.11,-500.99 660.99,-495.97"/>
</g>
<!-- node_0x503000000b50 -->
<g id="node23" class="node">
<title>node_0x503000000b50</title>
<path fill="#e8f9e5" stroke="#c9fbdb" d="M830,-428.5C830,-428.5 952,-428.5 952,-428.5 958,-428.5 964,-434.5 964,-440.5 964,-440.5 964,-479.5 964,-479.5 964,-485.5 958,-491.5 952,-491.5 952,-491.5 830,-491.5 830,-491.5 824,-491.5 818,-485.5 818,-479.5 818,-479.5 818,-440.5 818,-440.5 818,-434.5 824,-428.5 830,-428.5"/>
<text text-anchor="middle" x="891" y="-477.9" font-family="Fira Mono" font-size="12.00">ptr: 0x503000000b50</text>
<polyline fill="none" stroke="#c9fbdb" points="818,-470.5 964,-470.5 "/>
<text text-anchor="middle" x="891" y="-456.9" font-family="Fira Mono" font-size="12.00">val: RETURN</text>
<polyline fill="none" stroke="#c9fbdb" points="818,-449.5 964,-449.5 "/>
<text text-anchor="middle" x="854.5" y="-435.9" font-family="Fira Mono" font-size="12.00">prev: (nil)</text>
<polyline fill="none" stroke="#c9fbdb" points="891,-428.5 891,-449.5 "/>
<text text-anchor="middle" x="927.5" y="-435.9" font-family="Fira Mono" font-size="12.00">next: (nil)</text>
</g>
<!-- node_0x5030000008b0&#45;&gt;node_0x503000000b50 -->
<g id="edge10" class="edge">
<title>node_0x5030000008b0&#45;&gt;node_0x503000000b50</title>
<path fill="none" stroke="#999999" d="M775.58,-535.35C794.25,-523.33 815.8,-509.44 835.19,-496.95"/>
<polygon fill="#999999" stroke="#999999" points="837.13,-499.87 843.64,-491.51 833.34,-493.98 837.13,-499.87"/>
</g>
<!-- node_0x503000000910 -->
<g id="node11" class="node">
<title>node_0x503000000910</title>
<path fill="#f1eafd" stroke="#8e6bd6" d="M301,-321.5C301,-321.5 587,-321.5 587,-321.5 593,-321.5 599,-327.5 599,-333.5 599,-333.5 599,-372.5 599,-372.5 599,-378.5 593,-384.5 587,-384.5 587,-384.5 301,-384.5 301,-384.5 295,-384.5 289,-378.5 289,-372.5 289,-372.5 289,-333.5 289,-333.5 289,-327.5 295,-321.5 301,-321.5"/>
<text text-anchor="middle" x="444" y="-370.9" font-family="Fira Mono" font-size="12.00">ptr: 0x503000000910</text>
<polyline fill="none" stroke="#8e6bd6" points="289,-363.5 599,-363.5 "/>
<text text-anchor="middle" x="444" y="-349.9" font-family="Fira Mono" font-size="12.00">val: ASSIGN</text>
<polyline fill="none" stroke="#8e6bd6" points="289,-342.5 599,-342.5 "/>
<text text-anchor="middle" x="366.5" y="-328.9" font-family="Fira Mono" font-size="12.00">prev: 0x503000000940</text>
<polyline fill="none" stroke="#8e6bd6" points="444,-321.5 444,-342.5 "/>
<text text-anchor="middle" x="521.5" y="-328.9" font-family="Fira Mono" font-size="12.00">next: 0x503000000970</text>
</g>
<!-- node_0x5030000008e0&#45;&gt;node_0x503000000910 -->
<g id="edge11" class="edge">
<title>node_0x5030000008e0&#45;&gt;node_0x503000000910</title>
<path fill="none" stroke="#999999" d="M568.62,-428.35C548.38,-416.27 524.99,-402.32 503.98,-389.78"/>
<polygon fill="#999999" stroke="#999999" points="505.52,-386.63 495.14,-384.51 501.93,-392.64 505.52,-386.63"/>
</g>
<!-- node_0x503000000a00 -->
<g id="node16" class="node">
<title>node_0x503000000a00</title>
<path fill="#f1eafd" stroke="#8e6bd6" d="M654.5,-321.5C654.5,-321.5 939.5,-321.5 939.5,-321.5 945.5,-321.5 951.5,-327.5 951.5,-333.5 951.5,-333.5 951.5,-372.5 951.5,-372.5 951.5,-378.5 945.5,-384.5 939.5,-384.5 939.5,-384.5 654.5,-384.5 654.5,-384.5 648.5,-384.5 642.5,-378.5 642.5,-372.5 642.5,-372.5 642.5,-333.5 642.5,-333.5 642.5,-327.5 648.5,-321.5 654.5,-321.5"/>
<text text-anchor="middle" x="797" y="-370.9" font-family="Fira Mono" font-size="12.00">ptr: 0x503000000a00</text>
<polyline fill="none" stroke="#8e6bd6" points="642.5,-363.5 951.5,-363.5 "/>
<text text-anchor="middle" x="797" y="-349.9" font-family="Fira Mono" font-size="12.00">val: IF</text>
<polyline fill="none" stroke="#8e6bd6" points="642.5,-342.5 951.5,-342.5 "/>
<text text-anchor="middle" x="720" y="-328.9" font-family="Fira Mono" font-size="12.00">prev: 0x503000000a30</text>
<polyline fill="none" stroke="#8e6bd6" points="797.5,-321.5 797.5,-342.5 "/>
<text text-anchor="middle" x="874.5" y="-328.9" font-family="Fira Mono" font-size="12.00">next: 0x503000000ac0</text>
</g>
<!-- node_0x5030000008e0&#45;&gt;node_0x503000000a00 -->
<g id="edge12" class="edge">
<title>node_0x5030000008e0&#45;&gt;node_0x503000000a00</title>
<path fill="none" stroke="#999999" d="M671.67,-428.35C692.12,-416.22 715.76,-402.19 736.96,-389.62"/>
<polygon fill="#999999" stroke="#999999" points="738.76,-392.62 745.57,-384.51 735.18,-386.6 738.76,-392.62"/>
</g>
<!-- node_0x503000000940 -->
<g id="node12" class="node">
<title>node_0x503000000940</title>
<path fill="#e8f9e5" stroke="#c9fbdb" d="M112,-214.5C112,-214.5 234,-214.5 234,-214.5 240,-214.5 246,-220.5 246,-226.5 246,-226.5 246,-265.5 246,-265.5 246,-271.5 240,-277.5 234,-277.5 234,-277.5 112,-277.5 112,-277.5 106,-277.5 100,-271.5 100,-265.5 100,-265.5 100,-226.5 100,-226.5 100,-220.5 106,-214.5 112,-214.5"/>
<text text-anchor="middle" x="173" y="-263.9" font-family="Fira Mono" font-size="12.00">ptr: 0x503000000940</text>
<polyline fill="none" stroke="#c9fbdb" points="100,-256.5 246,-256.5 "/>
<text text-anchor="middle" x="173" y="-242.9" font-family="Fira Mono" font-size="12.00">val: xtr</text>
<polyline fill="none" stroke="#c9fbdb" points="100,-235.5 246,-235.5 "/>
<text text-anchor="middle" x="136.5" y="-221.9" font-family="Fira Mono" font-size="12.00">prev: (nil)</text>
<polyline fill="none" stroke="#c9fbdb" points="173,-214.5 173,-235.5 "/>
<text text-anchor="middle" x="209.5" y="-221.9" font-family="Fira Mono" font-size="12.00">next: (nil)</text>
</g>
<!-- node_0x503000000910&#45;&gt;node_0x503000000940 -->
<g id="edge13" class="edge">
<title>node_0x503000000910&#45;&gt;node_0x503000000940</title>
<path fill="none" stroke="#999999" d="M365.25,-321.49C330.97,-308.21 290.77,-292.63 256.02,-279.17"/>
<polygon fill="#999999" stroke="#999999" points="256.96,-275.78 246.37,-275.43 254.43,-282.3 256.96,-275.78"/>
</g>
<!-- node_0x503000000970 -->
<g id="node13" class="node">
<title>node_0x503000000970</title>
<path fill="#f1eafd" stroke="#8e6bd6" d="M301,-214.5C301,-214.5 587,-214.5 587,-214.5 593,-214.5 599,-220.5 599,-226.5 599,-226.5 599,-265.5 599,-265.5 599,-271.5 593,-277.5 587,-277.5 587,-277.5 301,-277.5 301,-277.5 295,-277.5 289,-271.5 289,-265.5 289,-265.5 289,-226.5 289,-226.5 289,-220.5 295,-214.5 301,-214.5"/>
<text text-anchor="middle" x="444" y="-263.9" font-family="Fira Mono" font-size="12.00">ptr: 0x503000000970</text>
<polyline fill="none" stroke="#8e6bd6" points="289,-256.5 599,-256.5 "/>
<text text-anchor="middle" x="444" y="-242.9" font-family="Fira Mono" font-size="12.00">val: ADD</text>
<polyline fill="none" stroke="#8e6bd6" points="289,-235.5 599,-235.5 "/>
<text text-anchor="middle" x="366.5" y="-221.9" font-family="Fira Mono" font-size="12.00">prev: 0x5030000009a0</text>
<polyline fill="none" stroke="#8e6bd6" points="444,-214.5 444,-235.5 "/>
<text text-anchor="middle" x="521.5" y="-221.9" font-family="Fira Mono" font-size="12.00">next: 0x5030000009d0</text>
</g>
<!-- node_0x503000000910&#45;&gt;node_0x503000000970 -->
<g id="edge14" class="edge">
<title>node_0x503000000910&#45;&gt;node_0x503000000970</title>
<path fill="none" stroke="#999999" d="M444,-321.35C444,-310.78 444,-298.78 444,-287.54"/>
<polygon fill="#999999" stroke="#999999" points="447.5,-287.51 444,-277.51 440.5,-287.51 447.5,-287.51"/>
</g>
<!-- node_0x5030000009a0 -->
<g id="node14" class="node">
<title>node_0x5030000009a0</title>
<path fill="#e8f9e5" stroke="#c9fbdb" d="M218,-107.5C218,-107.5 340,-107.5 340,-107.5 346,-107.5 352,-113.5 352,-119.5 352,-119.5 352,-158.5 352,-158.5 352,-164.5 346,-170.5 340,-170.5 340,-170.5 218,-170.5 218,-170.5 212,-170.5 206,-164.5 206,-158.5 206,-158.5 206,-119.5 206,-119.5 206,-113.5 212,-107.5 218,-107.5"/>
<text text-anchor="middle" x="279" y="-156.9" font-family="Fira Mono" font-size="12.00">ptr: 0x5030000009a0</text>
<polyline fill="none" stroke="#c9fbdb" points="206,-149.5 352,-149.5 "/>
<text text-anchor="middle" x="279" y="-135.9" font-family="Fira Mono" font-size="12.00">val: atr</text>
<polyline fill="none" stroke="#c9fbdb" points="206,-128.5 352,-128.5 "/>
<text text-anchor="middle" x="242.5" y="-114.9" font-family="Fira Mono" font-size="12.00">prev: (nil)</text>
<polyline fill="none" stroke="#c9fbdb" points="279,-107.5 279,-128.5 "/>
<text text-anchor="middle" x="315.5" y="-114.9" font-family="Fira Mono" font-size="12.00">next: (nil)</text>
</g>
<!-- node_0x503000000970&#45;&gt;node_0x5030000009a0 -->
<g id="edge15" class="edge">
<title>node_0x503000000970&#45;&gt;node_0x5030000009a0</title>
<path fill="none" stroke="#999999" d="M395.83,-214.35C376.94,-202.33 355.12,-188.44 335.5,-175.95"/>
<polygon fill="#999999" stroke="#999999" points="337.26,-172.93 326.94,-170.51 333.5,-178.83 337.26,-172.93"/>
</g>
<!-- node_0x5030000009d0 -->
<g id="node15" class="node">
<title>node_0x5030000009d0</title>
<path fill="#e8f9e5" stroke="#c9fbdb" d="M407,-107.5C407,-107.5 529,-107.5 529,-107.5 535,-107.5 541,-113.5 541,-119.5 541,-119.5 541,-158.5 541,-158.5 541,-164.5 535,-170.5 529,-170.5 529,-170.5 407,-170.5 407,-170.5 401,-170.5 395,-164.5 395,-158.5 395,-158.5 395,-119.5 395,-119.5 395,-113.5 401,-107.5 407,-107.5"/>
<text text-anchor="middle" x="468" y="-156.9" font-family="Fira Mono" font-size="12.00">ptr: 0x5030000009d0</text>
<polyline fill="none" stroke="#c9fbdb" points="395,-149.5 541,-149.5 "/>
<text text-anchor="middle" x="468" y="-135.9" font-family="Fira Mono" font-size="12.00">val: btr</text>
<polyline fill="none" stroke="#c9fbdb" points="395,-128.5 541,-128.5 "/>
<text text-anchor="middle" x="431.5" y="-114.9" font-family="Fira Mono" font-size="12.00">prev: (nil)</text>
<polyline fill="none" stroke="#c9fbdb" points="468,-107.5 468,-128.5 "/>
<text text-anchor="middle" x="504.5" y="-114.9" font-family="Fira Mono" font-size="12.00">next: (nil)</text>
</g>
<!-- node_0x503000000970&#45;&gt;node_0x5030000009d0 -->
<g id="edge16" class="edge">
<title>node_0x503000000970&#45;&gt;node_0x5030000009d0</title>
<path fill="none" stroke="#999999" d="M451.01,-214.35C453.42,-203.78 456.17,-191.78 458.73,-180.54"/>
<polygon fill="#999999" stroke="#999999" points="462.21,-181.04 461.03,-170.51 455.39,-179.48 462.21,-181.04"/>
</g>
<!-- node_0x503000000a30 -->
<g id="node17" class="node">
<title>node_0x503000000a30</title>
<path fill="#f1eafd" stroke="#8e6bd6" d="M654,-214.5C654,-214.5 940,-214.5 940,-214.5 946,-214.5 952,-220.5 952,-226.5 952,-226.5 952,-265.5 952,-265.5 952,-271.5 946,-277.5 940,-277.5 940,-277.5 654,-277.5 654,-277.5 648,-277.5 642,-271.5 642,-265.5 642,-265.5 642,-226.5 642,-226.5 642,-220.5 648,-214.5 654,-214.5"/>
<text text-anchor="middle" x="797" y="-263.9" font-family="Fira Mono" font-size="12.00">ptr: 0x503000000a30</text>
<polyline fill="none" stroke="#8e6bd6" points="642,-256.5 952,-256.5 "/>
<text text-anchor="middle" x="797" y="-242.9" font-family="Fira Mono" font-size="12.00">val: EQ</text>
<polyline fill="none" stroke="#8e6bd6" points="642,-235.5 952,-235.5 "/>
<text text-anchor="middle" x="719.5" y="-221.9" font-family="Fira Mono" font-size="12.00">prev: 0x503000000a60</text>
<polyline fill="none" stroke="#8e6bd6" points="797,-214.5 797,-235.5 "/>
<text text-anchor="middle" x="874.5" y="-221.9" font-family="Fira Mono" font-size="12.00">next: 0x503000000a90</text>
</g>
<!-- node_0x503000000a00&#45;&gt;node_0x503000000a30 -->
<g id="edge17" class="edge">
<title>node_0x503000000a00&#45;&gt;node_0x503000000a30</title>
<path fill="none" stroke="#999999" d="M797,-321.35C797,-310.78 797,-298.78 797,-287.54"/>
<polygon fill="#999999" stroke="#999999" points="800.5,-287.51 797,-277.51 793.5,-287.51 800.5,-287.51"/>
</g>
<!-- node_0x503000000ac0 -->
<g id="node20" class="node">
<title>node_0x503000000ac0</title>
<path fill="#f1eafd" stroke="#8e6bd6" d="M1007,-214.5C1007,-214.5 1287,-214.5 1287,-214.5 1293,-214.5 1299,-220.5 1299,-226.5 1299,-226.5 1299,-265.5 1299,-265.5 1299,-271.5 1293,-277.5 1287,-277.5 1287,-277.5 1007,-277.5 1007,-277.5 1001,-277.5 995,-271.5 995,-265.5 995,-265.5 995,-226.5 995,-226.5 995,-220.5 1001,-214.5 1007,-214.5"/>
<text text-anchor="middle" x="1147" y="-263.9" font-family="Fira Mono" font-size="12.00">ptr: 0x503000000ac0</text>
<polyline fill="none" stroke="#8e6bd6" points="995,-256.5 1299,-256.5 "/>
<text text-anchor="middle" x="1147" y="-242.9" font-family="Fira Mono" font-size="12.00">val: VIS_START</text>
<polyline fill="none" stroke="#8e6bd6" points="995,-235.5 1299,-235.5 "/>
<text text-anchor="middle" x="1071" y="-221.9" font-family="Fira Mono" font-size="12.00">prev: 0x503000000af0</text>
<polyline fill="none" stroke="#8e6bd6" points="1147,-214.5 1147,-235.5 "/>
<text text-anchor="middle" x="1223" y="-221.9" font-family="Fira Mono" font-size="12.00">next: 0x503000000af0</text>
</g>
<!-- node_0x503000000a00&#45;&gt;node_0x503000000ac0 -->
<g id="edge18" class="edge">
<title>node_0x503000000a00&#45;&gt;node_0x503000000ac0</title>
<path fill="none" stroke="#999999" d="M898.7,-321.49C941.49,-308.65 991.4,-293.68 1035.21,-280.54"/>
<polygon fill="#999999" stroke="#999999" points="1036.47,-283.81 1045.04,-277.59 1034.46,-277.11 1036.47,-283.81"/>
</g>
<!-- node_0x503000000a60 -->
<g id="node18" class="node">
<title>node_0x503000000a60</title>
<path fill="#e8f9e5" stroke="#c9fbdb" d="M643,-107.5C643,-107.5 765,-107.5 765,-107.5 771,-107.5 777,-113.5 777,-119.5 777,-119.5 777,-158.5 777,-158.5 777,-164.5 771,-170.5 765,-170.5 765,-170.5 643,-170.5 643,-170.5 637,-170.5 631,-164.5 631,-158.5 631,-158.5 631,-119.5 631,-119.5 631,-113.5 637,-107.5 643,-107.5"/>
<text text-anchor="middle" x="704" y="-156.9" font-family="Fira Mono" font-size="12.00">ptr: 0x503000000a60</text>
<polyline fill="none" stroke="#c9fbdb" points="631,-149.5 777,-149.5 "/>
<text text-anchor="middle" x="704" y="-135.9" font-family="Fira Mono" font-size="12.00">val: xtr</text>
<polyline fill="none" stroke="#c9fbdb" points="631,-128.5 777,-128.5 "/>
<text text-anchor="middle" x="667.5" y="-114.9" font-family="Fira Mono" font-size="12.00">prev: (nil)</text>
<polyline fill="none" stroke="#c9fbdb" points="704,-107.5 704,-128.5 "/>
<text text-anchor="middle" x="740.5" y="-114.9" font-family="Fira Mono" font-size="12.00">next: (nil)</text>
</g>
<!-- node_0x503000000a30&#45;&gt;node_0x503000000a60 -->
<g id="edge19" class="edge">
<title>node_0x503000000a30&#45;&gt;node_0x503000000a60</title>
<path fill="none" stroke="#999999" d="M769.85,-214.35C759.82,-203.03 748.33,-190.06 737.79,-178.15"/>
<polygon fill="#999999" stroke="#999999" points="740.27,-175.67 731.02,-170.51 735.03,-180.32 740.27,-175.67"/>
</g>
<!-- node_0x503000000a90 -->
<g id="node19" class="node">
<title>node_0x503000000a90</title>
<path fill="#e8f9e5" stroke="#c9fbdb" d="M832,-107.5C832,-107.5 954,-107.5 954,-107.5 960,-107.5 966,-113.5 966,-119.5 966,-119.5 966,-158.5 966,-158.5 966,-164.5 960,-170.5 954,-170.5 954,-170.5 832,-170.5 832,-170.5 826,-170.5 820,-164.5 820,-158.5 820,-158.5 820,-119.5 820,-119.5 820,-113.5 826,-107.5 832,-107.5"/>
<text text-anchor="middle" x="893" y="-156.9" font-family="Fira Mono" font-size="12.00">ptr: 0x503000000a90</text>
<polyline fill="none" stroke="#c9fbdb" points="820,-149.5 966,-149.5 "/>
<text text-anchor="middle" x="893" y="-135.9" font-family="Fira Mono" font-size="12.00">val: 1.000000</text>
<polyline fill="none" stroke="#c9fbdb" points="820,-128.5 966,-128.5 "/>
<text text-anchor="middle" x="856.5" y="-114.9" font-family="Fira Mono" font-size="12.00">prev: (nil)</text>
<polyline fill="none" stroke="#c9fbdb" points="893,-107.5 893,-128.5 "/>
<text text-anchor="middle" x="929.5" y="-114.9" font-family="Fira Mono" font-size="12.00">next: (nil)</text>
</g>
<!-- node_0x503000000a30&#45;&gt;node_0x503000000a90 -->
<g id="edge20" class="edge">
<title>node_0x503000000a30&#45;&gt;node_0x503000000a90</title>
<path fill="none" stroke="#999999" d="M825.03,-214.35C835.38,-203.03 847.24,-190.06 858.12,-178.15"/>
<polygon fill="#999999" stroke="#999999" points="860.94,-180.25 865.11,-170.51 855.78,-175.53 860.94,-180.25"/>
</g>
<!-- node_0x503000000af0 -->
<g id="node21" class="node">
<title>node_0x503000000af0</title>
<path fill="#f1eafd" stroke="#8e6bd6" d="M1045,-107.5C1045,-107.5 1249,-107.5 1249,-107.5 1255,-107.5 1261,-113.5 1261,-119.5 1261,-119.5 1261,-158.5 1261,-158.5 1261,-164.5 1255,-170.5 1249,-170.5 1249,-170.5 1045,-170.5 1045,-170.5 1039,-170.5 1033,-164.5 1033,-158.5 1033,-158.5 1033,-119.5 1033,-119.5 1033,-113.5 1039,-107.5 1045,-107.5"/>
<text text-anchor="middle" x="1147" y="-156.9" font-family="Fira Mono" font-size="12.00">ptr: 0x503000000af0</text>
<polyline fill="none" stroke="#8e6bd6" points="1033,-149.5 1261,-149.5 "/>
<text text-anchor="middle" x="1147" y="-135.9" font-family="Fira Mono" font-size="12.00">val: PRINT</text>
<polyline fill="none" stroke="#8e6bd6" points="1033,-128.5 1261,-128.5 "/>
<text text-anchor="middle" x="1110.5" y="-114.9" font-family="Fira Mono" font-size="12.00">prev: 0x503000000b20</text>
<polyline fill="none" stroke="#8e6bd6" points="1188,-107.5 1188,-128.5 "/>
<text text-anchor="middle" x="1224.5" y="-114.9" font-family="Fira Mono" font-size="12.00">next: (nil)</text>
</g>
<!-- node_0x503000000ac0&#45;&gt;node_0x503000000af0 -->
<g id="edge21" class="edge">
<title>node_0x503000000ac0&#45;&gt;node_0x503000000af0</title>
<path fill="none" stroke="#999999" d="M1132.53,-214.35C1131.22,-203.78 1130.91,-191.78 1131.62,-180.54"/>
<polygon fill="#999999" stroke="#999999" points="1135.11,-180.79 1132.55,-170.51 1128.14,-180.14 1135.11,-180.79"/>
</g>
<!-- node_0x503000000ac0&#45;&gt;node_0x503000000af0 -->
<g id="edge22" class="edge">
<title>node_0x503000000ac0&#45;&gt;node_0x503000000af0</title>
<path fill="none" stroke="#999999" d="M1162.16,-214.35C1163.53,-203.78 1163.85,-191.78 1163.11,-180.54"/>
<polygon fill="#999999" stroke="#999999" points="1166.59,-180.12 1162.14,-170.51 1159.62,-180.8 1166.59,-180.12"/>
</g>
<!-- node_0x503000000b20 -->
<g id="node22" class="node">
<title>node_0x503000000b20</title>
<path fill="#e8f9e5" stroke="#c9fbdb" d="M1086,-0.5C1086,-0.5 1208,-0.5 1208,-0.5 1214,-0.5 1220,-6.5 1220,-12.5 1220,-12.5 1220,-51.5 1220,-51.5 1220,-57.5 1214,-63.5 1208,-63.5 1208,-63.5 1086,-63.5 1086,-63.5 1080,-63.5 1074,-57.5 1074,-51.5 1074,-51.5 1074,-12.5 1074,-12.5 1074,-6.5 1080,-0.5 1086,-0.5"/>
<text text-anchor="middle" x="1147" y="-49.9" font-family="Fira Mono" font-size="12.00">ptr: 0x503000000b20</text>
<polyline fill="none" stroke="#c9fbdb" points="1074,-42.5 1220,-42.5 "/>
<text text-anchor="middle" x="1147" y="-28.9" font-family="Fira Mono" font-size="12.00">val: xtr</text>
<polyline fill="none" stroke="#c9fbdb" points="1074,-21.5 1220,-21.5 "/>
<text text-anchor="middle" x="1110.5" y="-7.9" font-family="Fira Mono" font-size="12.00">prev: (nil)</text>
<polyline fill="none" stroke="#c9fbdb" points="1147,-0.5 1147,-21.5 "/>
<text text-anchor="middle" x="1183.5" y="-7.9" font-family="Fira Mono" font-size="12.00">next: (nil)</text>
</g>
<!-- node_0x503000000af0&#45;&gt;node_0x503000000b20 -->
<g id="edge23" class="edge">
<title>node_0x503000000af0&#45;&gt;node_0x503000000b20</title>
<path fill="none" stroke="#999999" d="M1132.53,-107.35C1131.22,-96.78 1130.91,-84.78 1131.62,-73.54"/>
<polygon fill="#999999" stroke="#999999" points="1135.11,-73.79 1132.55,-63.51 1128.14,-73.14 1135.11,-73.79"/>
</g>
<!-- node_0x503000000af0&#45;&gt;node_0x503000000b20 -->
<g id="edge24" class="edge">
<title>node_0x503000000af0&#45;&gt;node_0x503000000b20</title>
<path fill="none" stroke="#999999" d="M1162.16,-107.35C1163.53,-96.78 1163.85,-84.78 1163.11,-73.54"/>
<polygon fill="#999999" stroke="#999999" points="1166.59,-73.12 1162.14,-63.51 1159.62,-73.8 1166.59,-73.12"/>
</g>
</g>
</svg>
