<?xml version="1.0" encoding="UTF-8" standalone="no"?>
<!DOCTYPE svg PUBLIC "-//W3C//DTD SVG 1.1//EN"
 "http://www.w3.org/Graphics/SVG/1.1/DTD/svg11.dtd">
<!-- Generated by graphviz version 2.43.0 (0)
 -->
<!-- Title: T Pages: 1 -->
<svg width="1019pt" height="821pt"
 viewBox="0.00 0.00 1019.00 821.00" xmlns="http://www.w3.org/2000/svg" xmlns:xlink="http://www.w3.org/1999/xlink">
<g id="graph0" class="graph" transform="scale(1 1) rotate(0) translate(4 817)">
<title>T</title>
<polygon fill="white" stroke="transparent" points="-4,4 -4,-817 1015,-817 1015,4 -4,4"/>
<!-- node_0x503000000670 -->
<g id="node1" class="node">
<title>node_0x503000000670</title>
<path fill="#e9fbf5" stroke="#5aa99b" d="M450,-749.5C450,-749.5 654,-749.5 654,-749.5 660,-749.5 666,-755.5 666,-761.5 666,-761.5 666,-800.5 666,-800.5 666,-806.5 660,-812.5 654,-812.5 654,-812.5 450,-812.5 450,-812.5 444,-812.5 438,-806.5 438,-800.5 438,-800.5 438,-761.5 438,-761.5 438,-755.5 444,-749.5 450,-749.5"/>
<text text-anchor="middle" x="552" y="-798.9" font-family="Fira Mono" font-size="12.00">ptr: 0x503000000670</text>
<polyline fill="none" stroke="#5aa99b" points="438,-791.5 666,-791.5 "/>
<text text-anchor="middle" x="552" y="-777.9" font-family="Fira Mono" font-size="12.00">val: VIS_START</text>
<polyline fill="none" stroke="#5aa99b" points="438,-770.5 666,-770.5 "/>
<text text-anchor="middle" x="515.5" y="-756.9" font-family="Fira Mono" font-size="12.00">prev: 0x5030000006a0</text>
<polyline fill="none" stroke="#5aa99b" points="593,-749.5 593,-770.5 "/>
<text text-anchor="middle" x="629.5" y="-756.9" font-family="Fira Mono" font-size="12.00">next: (nil)</text>
</g>
<!-- node_0x5030000006a0 -->
<g id="node2" class="node">
<title>node_0x5030000006a0</title>
<path fill="#f1eafd" stroke="#8e6bd6" d="M409,-642.5C409,-642.5 695,-642.5 695,-642.5 701,-642.5 707,-648.5 707,-654.5 707,-654.5 707,-693.5 707,-693.5 707,-699.5 701,-705.5 695,-705.5 695,-705.5 409,-705.5 409,-705.5 403,-705.5 397,-699.5 397,-693.5 397,-693.5 397,-654.5 397,-654.5 397,-648.5 403,-642.5 409,-642.5"/>
<text text-anchor="middle" x="552" y="-691.9" font-family="Fira Mono" font-size="12.00">ptr: 0x5030000006a0</text>
<polyline fill="none" stroke="#8e6bd6" points="397,-684.5 707,-684.5 "/>
<text text-anchor="middle" x="552" y="-670.9" font-family="Fira Mono" font-size="12.00">val: FUNC_DECL</text>
<polyline fill="none" stroke="#8e6bd6" points="397,-663.5 707,-663.5 "/>
<text text-anchor="middle" x="474.5" y="-649.9" font-family="Fira Mono" font-size="12.00">prev: 0x5030000006d0</text>
<polyline fill="none" stroke="#8e6bd6" points="552,-642.5 552,-663.5 "/>
<text text-anchor="middle" x="629.5" y="-649.9" font-family="Fira Mono" font-size="12.00">next: 0x503000000880</text>
</g>
<!-- node_0x503000000670&#45;&gt;node_0x5030000006a0 -->
<g id="edge1" class="edge">
<title>node_0x503000000670&#45;&gt;node_0x5030000006a0</title>
<path fill="none" stroke="#999999" d="M552,-749.35C552,-738.78 552,-726.78 552,-715.54"/>
<polygon fill="#999999" stroke="#999999" points="555.5,-715.51 552,-705.51 548.5,-715.51 555.5,-715.51"/>
</g>
<!-- node_0x5030000006d0 -->
<g id="node3" class="node">
<title>node_0x5030000006d0</title>
<path fill="#f1eafd" stroke="#8e6bd6" d="M253,-535.5C253,-535.5 539,-535.5 539,-535.5 545,-535.5 551,-541.5 551,-547.5 551,-547.5 551,-586.5 551,-586.5 551,-592.5 545,-598.5 539,-598.5 539,-598.5 253,-598.5 253,-598.5 247,-598.5 241,-592.5 241,-586.5 241,-586.5 241,-547.5 241,-547.5 241,-541.5 247,-535.5 253,-535.5"/>
<text text-anchor="middle" x="396" y="-584.9" font-family="Fira Mono" font-size="12.00">ptr: 0x5030000006d0</text>
<polyline fill="none" stroke="#8e6bd6" points="241,-577.5 551,-577.5 "/>
<text text-anchor="middle" x="396" y="-563.9" font-family="Fira Mono" font-size="12.00">val: FUNC_INFO</text>
<polyline fill="none" stroke="#8e6bd6" points="241,-556.5 551,-556.5 "/>
<text text-anchor="middle" x="318.5" y="-542.9" font-family="Fira Mono" font-size="12.00">prev: 0x503000000760</text>
<polyline fill="none" stroke="#8e6bd6" points="396,-535.5 396,-556.5 "/>
<text text-anchor="middle" x="473.5" y="-542.9" font-family="Fira Mono" font-size="12.00">next: 0x503000000850</text>
</g>
<!-- node_0x5030000006a0&#45;&gt;node_0x5030000006d0 -->
<g id="edge2" class="edge">
<title>node_0x5030000006a0&#45;&gt;node_0x5030000006d0</title>
<path fill="none" stroke="#999999" d="M506.46,-642.35C488.68,-630.38 468.16,-616.57 449.66,-604.12"/>
<polygon fill="#999999" stroke="#999999" points="451.58,-601.19 441.33,-598.51 447.67,-607 451.58,-601.19"/>
</g>
<!-- node_0x503000000880 -->
<g id="node8" class="node">
<title>node_0x503000000880</title>
<path fill="#f1eafd" stroke="#8e6bd6" d="M606,-535.5C606,-535.5 810,-535.5 810,-535.5 816,-535.5 822,-541.5 822,-547.5 822,-547.5 822,-586.5 822,-586.5 822,-592.5 816,-598.5 810,-598.5 810,-598.5 606,-598.5 606,-598.5 600,-598.5 594,-592.5 594,-586.5 594,-586.5 594,-547.5 594,-547.5 594,-541.5 600,-535.5 606,-535.5"/>
<text text-anchor="middle" x="708" y="-584.9" font-family="Fira Mono" font-size="12.00">ptr: 0x503000000880</text>
<polyline fill="none" stroke="#8e6bd6" points="594,-577.5 822,-577.5 "/>
<text text-anchor="middle" x="708" y="-563.9" font-family="Fira Mono" font-size="12.00">val: VIS_START</text>
<polyline fill="none" stroke="#8e6bd6" points="594,-556.5 822,-556.5 "/>
<text text-anchor="middle" x="671.5" y="-542.9" font-family="Fira Mono" font-size="12.00">prev: 0x5030000008b0</text>
<polyline fill="none" stroke="#8e6bd6" points="749,-535.5 749,-556.5 "/>
<text text-anchor="middle" x="785.5" y="-542.9" font-family="Fira Mono" font-size="12.00">next: (nil)</text>
</g>
<!-- node_0x5030000006a0&#45;&gt;node_0x503000000880 -->
<g id="edge3" class="edge">
<title>node_0x5030000006a0&#45;&gt;node_0x503000000880</title>
<path fill="none" stroke="#999999" d="M597.54,-642.35C615.32,-630.38 635.84,-616.57 654.34,-604.12"/>
<polygon fill="#999999" stroke="#999999" points="656.33,-607 662.67,-598.51 652.42,-601.19 656.33,-607"/>
</g>
<!-- node_0x503000000760 -->
<g id="node4" class="node">
<title>node_0x503000000760</title>
<path fill="#f1eafd" stroke="#8e6bd6" d="M25.5,-428.5C25.5,-428.5 308.5,-428.5 308.5,-428.5 314.5,-428.5 320.5,-434.5 320.5,-440.5 320.5,-440.5 320.5,-479.5 320.5,-479.5 320.5,-485.5 314.5,-491.5 308.5,-491.5 308.5,-491.5 25.5,-491.5 25.5,-491.5 19.5,-491.5 13.5,-485.5 13.5,-479.5 13.5,-479.5 13.5,-440.5 13.5,-440.5 13.5,-434.5 19.5,-428.5 25.5,-428.5"/>
<text text-anchor="middle" x="167" y="-477.9" font-family="Fira Mono" font-size="12.00">ptr: 0x503000000760</text>
<polyline fill="none" stroke="#8e6bd6" points="13.5,-470.5 320.5,-470.5 "/>
<text text-anchor="middle" x="167" y="-456.9" font-family="Fira Mono" font-size="12.00">val: ENUM_SEP</text>
<polyline fill="none" stroke="#8e6bd6" points="13.5,-449.5 320.5,-449.5 "/>
<text text-anchor="middle" x="89.5" y="-435.9" font-family="Fira Mono" font-size="12.00">prev: 0x5030000007f0</text>
<polyline fill="none" stroke="#8e6bd6" points="165.5,-428.5 165.5,-449.5 "/>
<text text-anchor="middle" x="243" y="-435.9" font-family="Fira Mono" font-size="12.00">next: 0x503000000820</text>
</g>
<!-- node_0x5030000006d0&#45;&gt;node_0x503000000760 -->
<g id="edge4" class="edge">
<title>node_0x5030000006d0&#45;&gt;node_0x503000000760</title>
<path fill="none" stroke="#999999" d="M329.46,-535.49C302.41,-523.09 271,-508.68 243.04,-495.87"/>
<polygon fill="#999999" stroke="#999999" points="244.26,-492.57 233.71,-491.59 241.34,-498.94 244.26,-492.57"/>
</g>
<!-- node_0x503000000850 -->
<g id="node7" class="node">
<title>node_0x503000000850</title>
<path fill="#e8f9e5" stroke="#c9fbdb" d="M376,-428.5C376,-428.5 498,-428.5 498,-428.5 504,-428.5 510,-434.5 510,-440.5 510,-440.5 510,-479.5 510,-479.5 510,-485.5 504,-491.5 498,-491.5 498,-491.5 376,-491.5 376,-491.5 370,-491.5 364,-485.5 364,-479.5 364,-479.5 364,-440.5 364,-440.5 364,-434.5 370,-428.5 376,-428.5"/>
<text text-anchor="middle" x="437" y="-477.9" font-family="Fira Mono" font-size="12.00">ptr: 0x503000000850</text>
<polyline fill="none" stroke="#c9fbdb" points="364,-470.5 510,-470.5 "/>
<text text-anchor="middle" x="437" y="-456.9" font-family="Fira Mono" font-size="12.00">val: maintr</text>
<polyline fill="none" stroke="#c9fbdb" points="364,-449.5 510,-449.5 "/>
<text text-anchor="middle" x="400.5" y="-435.9" font-family="Fira Mono" font-size="12.00">prev: (nil)</text>
<polyline fill="none" stroke="#c9fbdb" points="437,-428.5 437,-449.5 "/>
<text text-anchor="middle" x="473.5" y="-435.9" font-family="Fira Mono" font-size="12.00">next: (nil)</text>
</g>
<!-- node_0x5030000006d0&#45;&gt;node_0x503000000850 -->
<g id="edge5" class="edge">
<title>node_0x5030000006d0&#45;&gt;node_0x503000000850</title>
<path fill="none" stroke="#999999" d="M407.97,-535.35C412.18,-524.57 416.97,-512.29 421.44,-500.86"/>
<polygon fill="#999999" stroke="#999999" points="424.71,-502.1 425.09,-491.51 418.19,-499.55 424.71,-502.1"/>
</g>
<!-- node_0x5030000007f0 -->
<g id="node5" class="node">
<title>node_0x5030000007f0</title>
<path fill="#e8f9e5" stroke="#c9fbdb" d="M12,-321.5C12,-321.5 134,-321.5 134,-321.5 140,-321.5 146,-327.5 146,-333.5 146,-333.5 146,-372.5 146,-372.5 146,-378.5 140,-384.5 134,-384.5 134,-384.5 12,-384.5 12,-384.5 6,-384.5 0,-378.5 0,-372.5 0,-372.5 0,-333.5 0,-333.5 0,-327.5 6,-321.5 12,-321.5"/>
<text text-anchor="middle" x="73" y="-370.9" font-family="Fira Mono" font-size="12.00">ptr: 0x5030000007f0</text>
<polyline fill="none" stroke="#c9fbdb" points="0,-363.5 146,-363.5 "/>
<text text-anchor="middle" x="73" y="-349.9" font-family="Fira Mono" font-size="12.00">val: atr</text>
<polyline fill="none" stroke="#c9fbdb" points="0,-342.5 146,-342.5 "/>
<text text-anchor="middle" x="36.5" y="-328.9" font-family="Fira Mono" font-size="12.00">prev: (nil)</text>
<polyline fill="none" stroke="#c9fbdb" points="73,-321.5 73,-342.5 "/>
<text text-anchor="middle" x="109.5" y="-328.9" font-family="Fira Mono" font-size="12.00">next: (nil)</text>
</g>
<!-- node_0x503000000760&#45;&gt;node_0x5030000007f0 -->
<g id="edge6" class="edge">
<title>node_0x503000000760&#45;&gt;node_0x5030000007f0</title>
<path fill="none" stroke="#999999" d="M139.56,-428.35C129.42,-417.03 117.81,-404.06 107.15,-392.15"/>
<polygon fill="#999999" stroke="#999999" points="109.59,-389.63 100.31,-384.51 104.38,-394.29 109.59,-389.63"/>
</g>
<!-- node_0x503000000820 -->
<g id="node6" class="node">
<title>node_0x503000000820</title>
<path fill="#e8f9e5" stroke="#c9fbdb" d="M201,-321.5C201,-321.5 323,-321.5 323,-321.5 329,-321.5 335,-327.5 335,-333.5 335,-333.5 335,-372.5 335,-372.5 335,-378.5 329,-384.5 323,-384.5 323,-384.5 201,-384.5 201,-384.5 195,-384.5 189,-378.5 189,-372.5 189,-372.5 189,-333.5 189,-333.5 189,-327.5 195,-321.5 201,-321.5"/>
<text text-anchor="middle" x="262" y="-370.9" font-family="Fira Mono" font-size="12.00">ptr: 0x503000000820</text>
<polyline fill="none" stroke="#c9fbdb" points="189,-363.5 335,-363.5 "/>
<text text-anchor="middle" x="262" y="-349.9" font-family="Fira Mono" font-size="12.00">val: btr</text>
<polyline fill="none" stroke="#c9fbdb" points="189,-342.5 335,-342.5 "/>
<text text-anchor="middle" x="225.5" y="-328.9" font-family="Fira Mono" font-size="12.00">prev: (nil)</text>
<polyline fill="none" stroke="#c9fbdb" points="262,-321.5 262,-342.5 "/>
<text text-anchor="middle" x="298.5" y="-328.9" font-family="Fira Mono" font-size="12.00">next: (nil)</text>
</g>
<!-- node_0x503000000760&#45;&gt;node_0x503000000820 -->
<g id="edge7" class="edge">
<title>node_0x503000000760&#45;&gt;node_0x503000000820</title>
<path fill="none" stroke="#999999" d="M194.73,-428.35C204.98,-417.03 216.71,-404.06 227.48,-392.15"/>
<polygon fill="#999999" stroke="#999999" points="230.28,-394.27 234.4,-384.51 225.09,-389.58 230.28,-394.27"/>
</g>
<!-- node_0x5030000008b0 -->
<g id="node9" class="node">
<title>node_0x5030000008b0</title>
<path fill="#f1eafd" stroke="#8e6bd6" d="M606,-428.5C606,-428.5 810,-428.5 810,-428.5 816,-428.5 822,-434.5 822,-440.5 822,-440.5 822,-479.5 822,-479.5 822,-485.5 816,-491.5 810,-491.5 810,-491.5 606,-491.5 606,-491.5 600,-491.5 594,-485.5 594,-479.5 594,-479.5 594,-440.5 594,-440.5 594,-434.5 600,-428.5 606,-428.5"/>
<text text-anchor="middle" x="708" y="-477.9" font-family="Fira Mono" font-size="12.00">ptr: 0x5030000008b0</text>
<polyline fill="none" stroke="#8e6bd6" points="594,-470.5 822,-470.5 "/>
<text text-anchor="middle" x="708" y="-456.9" font-family="Fira Mono" font-size="12.00">val: LCAT</text>
<polyline fill="none" stroke="#8e6bd6" points="594,-449.5 822,-449.5 "/>
<text text-anchor="middle" x="671.5" y="-435.9" font-family="Fira Mono" font-size="12.00">prev: 0x5030000008e0</text>
<polyline fill="none" stroke="#8e6bd6" points="749,-428.5 749,-449.5 "/>
<text text-anchor="middle" x="785.5" y="-435.9" font-family="Fira Mono" font-size="12.00">next: (nil)</text>
</g>
<!-- node_0x503000000880&#45;&gt;node_0x5030000008b0 -->
<g id="edge8" class="edge">
<title>node_0x503000000880&#45;&gt;node_0x5030000008b0</title>
<path fill="none" stroke="#999999" d="M708,-535.35C708,-524.78 708,-512.78 708,-501.54"/>
<polygon fill="#999999" stroke="#999999" points="711.5,-501.51 708,-491.51 704.5,-501.51 711.5,-501.51"/>
</g>
<!-- node_0x5030000008e0 -->
<g id="node10" class="node">
<title>node_0x5030000008e0</title>
<path fill="#f1eafd" stroke="#8e6bd6" d="M606,-321.5C606,-321.5 810,-321.5 810,-321.5 816,-321.5 822,-327.5 822,-333.5 822,-333.5 822,-372.5 822,-372.5 822,-378.5 816,-384.5 810,-384.5 810,-384.5 606,-384.5 606,-384.5 600,-384.5 594,-378.5 594,-372.5 594,-372.5 594,-333.5 594,-333.5 594,-327.5 600,-321.5 606,-321.5"/>
<text text-anchor="middle" x="708" y="-370.9" font-family="Fira Mono" font-size="12.00">ptr: 0x5030000008e0</text>
<polyline fill="none" stroke="#8e6bd6" points="594,-363.5 822,-363.5 "/>
<text text-anchor="middle" x="708" y="-349.9" font-family="Fira Mono" font-size="12.00">val: LCAT</text>
<polyline fill="none" stroke="#8e6bd6" points="594,-342.5 822,-342.5 "/>
<text text-anchor="middle" x="671.5" y="-328.9" font-family="Fira Mono" font-size="12.00">prev: 0x503000000910</text>
<polyline fill="none" stroke="#8e6bd6" points="749,-321.5 749,-342.5 "/>
<text text-anchor="middle" x="785.5" y="-328.9" font-family="Fira Mono" font-size="12.00">next: (nil)</text>
</g>
<!-- node_0x5030000008b0&#45;&gt;node_0x5030000008e0 -->
<g id="edge9" class="edge">
<title>node_0x5030000008b0&#45;&gt;node_0x5030000008e0</title>
<path fill="none" stroke="#999999" d="M708,-428.35C708,-417.78 708,-405.78 708,-394.54"/>
<polygon fill="#999999" stroke="#999999" points="711.5,-394.51 708,-384.51 704.5,-394.51 711.5,-394.51"/>
</g>
<!-- node_0x503000000910 -->
<g id="node11" class="node">
<title>node_0x503000000910</title>
<path fill="#f1eafd" stroke="#8e6bd6" d="M565,-214.5C565,-214.5 851,-214.5 851,-214.5 857,-214.5 863,-220.5 863,-226.5 863,-226.5 863,-265.5 863,-265.5 863,-271.5 857,-277.5 851,-277.5 851,-277.5 565,-277.5 565,-277.5 559,-277.5 553,-271.5 553,-265.5 553,-265.5 553,-226.5 553,-226.5 553,-220.5 559,-214.5 565,-214.5"/>
<text text-anchor="middle" x="708" y="-263.9" font-family="Fira Mono" font-size="12.00">ptr: 0x503000000910</text>
<polyline fill="none" stroke="#8e6bd6" points="553,-256.5 863,-256.5 "/>
<text text-anchor="middle" x="708" y="-242.9" font-family="Fira Mono" font-size="12.00">val: ASSIGN</text>
<polyline fill="none" stroke="#8e6bd6" points="553,-235.5 863,-235.5 "/>
<text text-anchor="middle" x="630.5" y="-221.9" font-family="Fira Mono" font-size="12.00">prev: 0x503000000940</text>
<polyline fill="none" stroke="#8e6bd6" points="708,-214.5 708,-235.5 "/>
<text text-anchor="middle" x="785.5" y="-221.9" font-family="Fira Mono" font-size="12.00">next: 0x503000000970</text>
</g>
<!-- node_0x5030000008e0&#45;&gt;node_0x503000000910 -->
<g id="edge10" class="edge">
<title>node_0x5030000008e0&#45;&gt;node_0x503000000910</title>
<path fill="none" stroke="#999999" d="M708,-321.35C708,-310.78 708,-298.78 708,-287.54"/>
<polygon fill="#999999" stroke="#999999" points="711.5,-287.51 708,-277.51 704.5,-287.51 711.5,-287.51"/>
</g>
<!-- node_0x503000000940 -->
<g id="node12" class="node">
<title>node_0x503000000940</title>
<path fill="#e8f9e5" stroke="#c9fbdb" d="M512,-107.5C512,-107.5 634,-107.5 634,-107.5 640,-107.5 646,-113.5 646,-119.5 646,-119.5 646,-158.5 646,-158.5 646,-164.5 640,-170.5 634,-170.5 634,-170.5 512,-170.5 512,-170.5 506,-170.5 500,-164.5 500,-158.5 500,-158.5 500,-119.5 500,-119.5 500,-113.5 506,-107.5 512,-107.5"/>
<text text-anchor="middle" x="573" y="-156.9" font-family="Fira Mono" font-size="12.00">ptr: 0x503000000940</text>
<polyline fill="none" stroke="#c9fbdb" points="500,-149.5 646,-149.5 "/>
<text text-anchor="middle" x="573" y="-135.9" font-family="Fira Mono" font-size="12.00">val: xtr</text>
<polyline fill="none" stroke="#c9fbdb" points="500,-128.5 646,-128.5 "/>
<text text-anchor="middle" x="536.5" y="-114.9" font-family="Fira Mono" font-size="12.00">prev: (nil)</text>
<polyline fill="none" stroke="#c9fbdb" points="573,-107.5 573,-128.5 "/>
<text text-anchor="middle" x="609.5" y="-114.9" font-family="Fira Mono" font-size="12.00">next: (nil)</text>
</g>
<!-- node_0x503000000910&#45;&gt;node_0x503000000940 -->
<g id="edge11" class="edge">
<title>node_0x503000000910&#45;&gt;node_0x503000000940</title>
<path fill="none" stroke="#999999" d="M668.59,-214.35C653.48,-202.59 636.08,-189.06 620.31,-176.79"/>
<polygon fill="#999999" stroke="#999999" points="622.27,-173.89 612.23,-170.51 617.97,-179.41 622.27,-173.89"/>
</g>
<!-- node_0x503000000970 -->
<g id="node13" class="node">
<title>node_0x503000000970</title>
<path fill="#f1eafd" stroke="#8e6bd6" d="M701,-107.5C701,-107.5 987,-107.5 987,-107.5 993,-107.5 999,-113.5 999,-119.5 999,-119.5 999,-158.5 999,-158.5 999,-164.5 993,-170.5 987,-170.5 987,-170.5 701,-170.5 701,-170.5 695,-170.5 689,-164.5 689,-158.5 689,-158.5 689,-119.5 689,-119.5 689,-113.5 695,-107.5 701,-107.5"/>
<text text-anchor="middle" x="844" y="-156.9" font-family="Fira Mono" font-size="12.00">ptr: 0x503000000970</text>
<polyline fill="none" stroke="#8e6bd6" points="689,-149.5 999,-149.5 "/>
<text text-anchor="middle" x="844" y="-135.9" font-family="Fira Mono" font-size="12.00">val: ADD</text>
<polyline fill="none" stroke="#8e6bd6" points="689,-128.5 999,-128.5 "/>
<text text-anchor="middle" x="766.5" y="-114.9" font-family="Fira Mono" font-size="12.00">prev: 0x5030000009a0</text>
<polyline fill="none" stroke="#8e6bd6" points="844,-107.5 844,-128.5 "/>
<text text-anchor="middle" x="921.5" y="-114.9" font-family="Fira Mono" font-size="12.00">next: 0x5030000009d0</text>
</g>
<!-- node_0x503000000910&#45;&gt;node_0x503000000970 -->
<g id="edge12" class="edge">
<title>node_0x503000000910&#45;&gt;node_0x503000000970</title>
<path fill="none" stroke="#999999" d="M747.7,-214.35C762.92,-202.59 780.45,-189.06 796.34,-176.79"/>
<polygon fill="#999999" stroke="#999999" points="798.71,-179.39 804.48,-170.51 794.43,-173.85 798.71,-179.39"/>
</g>
<!-- node_0x5030000009a0 -->
<g id="node14" class="node">
<title>node_0x5030000009a0</title>
<path fill="#e8f9e5" stroke="#c9fbdb" d="M688,-0.5C688,-0.5 810,-0.5 810,-0.5 816,-0.5 822,-6.5 822,-12.5 822,-12.5 822,-51.5 822,-51.5 822,-57.5 816,-63.5 810,-63.5 810,-63.5 688,-63.5 688,-63.5 682,-63.5 676,-57.5 676,-51.5 676,-51.5 676,-12.5 676,-12.5 676,-6.5 682,-0.5 688,-0.5"/>
<text text-anchor="middle" x="749" y="-49.9" font-family="Fira Mono" font-size="12.00">ptr: 0x5030000009a0</text>
<polyline fill="none" stroke="#c9fbdb" points="676,-42.5 822,-42.5 "/>
<text text-anchor="middle" x="749" y="-28.9" font-family="Fira Mono" font-size="12.00">val: atr</text>
<polyline fill="none" stroke="#c9fbdb" points="676,-21.5 822,-21.5 "/>
<text text-anchor="middle" x="712.5" y="-7.9" font-family="Fira Mono" font-size="12.00">prev: (nil)</text>
<polyline fill="none" stroke="#c9fbdb" points="749,-0.5 749,-21.5 "/>
<text text-anchor="middle" x="785.5" y="-7.9" font-family="Fira Mono" font-size="12.00">next: (nil)</text>
</g>
<!-- node_0x503000000970&#45;&gt;node_0x5030000009a0 -->
<g id="edge13" class="edge">
<title>node_0x503000000970&#45;&gt;node_0x5030000009a0</title>
<path fill="none" stroke="#999999" d="M816.27,-107.35C806.02,-96.03 794.29,-83.06 783.52,-71.15"/>
<polygon fill="#999999" stroke="#999999" points="785.91,-68.58 776.6,-63.51 780.72,-73.27 785.91,-68.58"/>
</g>
<!-- node_0x5030000009d0 -->
<g id="node15" class="node">
<title>node_0x5030000009d0</title>
<path fill="#e8f9e5" stroke="#c9fbdb" d="M877,-0.5C877,-0.5 999,-0.5 999,-0.5 1005,-0.5 1011,-6.5 1011,-12.5 1011,-12.5 1011,-51.5 1011,-51.5 1011,-57.5 1005,-63.5 999,-63.5 999,-63.5 877,-63.5 877,-63.5 871,-63.5 865,-57.5 865,-51.5 865,-51.5 865,-12.5 865,-12.5 865,-6.5 871,-0.5 877,-0.5"/>
<text text-anchor="middle" x="938" y="-49.9" font-family="Fira Mono" font-size="12.00">ptr: 0x5030000009d0</text>
<polyline fill="none" stroke="#c9fbdb" points="865,-42.5 1011,-42.5 "/>
<text text-anchor="middle" x="938" y="-28.9" font-family="Fira Mono" font-size="12.00">val: btr</text>
<polyline fill="none" stroke="#c9fbdb" points="865,-21.5 1011,-21.5 "/>
<text text-anchor="middle" x="901.5" y="-7.9" font-family="Fira Mono" font-size="12.00">prev: (nil)</text>
<polyline fill="none" stroke="#c9fbdb" points="938,-0.5 938,-21.5 "/>
<text text-anchor="middle" x="974.5" y="-7.9" font-family="Fira Mono" font-size="12.00">next: (nil)</text>
</g>
<!-- node_0x503000000970&#45;&gt;node_0x5030000009d0 -->
<g id="edge14" class="edge">
<title>node_0x503000000970&#45;&gt;node_0x5030000009d0</title>
<path fill="none" stroke="#999999" d="M871.44,-107.35C881.58,-96.03 893.19,-83.06 903.85,-71.15"/>
<polygon fill="#999999" stroke="#999999" points="906.62,-73.29 910.69,-63.51 901.41,-68.63 906.62,-73.29"/>
</g>
</g>
</svg>
