<?xml version="1.0" encoding="UTF-8" standalone="no"?>
<!DOCTYPE svg PUBLIC "-//W3C//DTD SVG 1.1//EN"
 "http://www.w3.org/Graphics/SVG/1.1/DTD/svg11.dtd">
<!-- Generated by graphviz version 2.43.0 (0)
 -->
<!-- Title: T Pages: 1 -->
<svg width="1207pt" height="928pt"
 viewBox="0.00 0.00 1207.00 928.00" xmlns="http://www.w3.org/2000/svg" xmlns:xlink="http://www.w3.org/1999/xlink">
<g id="graph0" class="graph" transform="scale(1 1) rotate(0) translate(4 924)">
<title>T</title>
<polygon fill="white" stroke="transparent" points="-4,4 -4,-924 1203,-924 1203,4 -4,4"/>
<!-- node_0x503000000670 -->
<g id="node1" class="node">
<title>node_0x503000000670</title>
<path fill="#e9fbf5" stroke="#5aa99b" d="M527,-856.5C527,-856.5 731,-856.5 731,-856.5 737,-856.5 743,-862.5 743,-868.5 743,-868.5 743,-907.5 743,-907.5 743,-913.5 737,-919.5 731,-919.5 731,-919.5 527,-919.5 527,-919.5 521,-919.5 515,-913.5 515,-907.5 515,-907.5 515,-868.5 515,-868.5 515,-862.5 521,-856.5 527,-856.5"/>
<text text-anchor="middle" x="629" y="-905.9" font-family="Fira Mono" font-size="12.00">ptr: 0x503000000670</text>
<polyline fill="none" stroke="#5aa99b" points="515,-898.5 743,-898.5 "/>
<text text-anchor="middle" x="629" y="-884.9" font-family="Fira Mono" font-size="12.00">val: VIS_START</text>
<polyline fill="none" stroke="#5aa99b" points="515,-877.5 743,-877.5 "/>
<text text-anchor="middle" x="592.5" y="-863.9" font-family="Fira Mono" font-size="12.00">prev: 0x5030000006a0</text>
<polyline fill="none" stroke="#5aa99b" points="670,-856.5 670,-877.5 "/>
<text text-anchor="middle" x="706.5" y="-863.9" font-family="Fira Mono" font-size="12.00">next: (nil)</text>
</g>
<!-- node_0x5030000006a0 -->
<g id="node2" class="node">
<title>node_0x5030000006a0</title>
<path fill="#f1eafd" stroke="#8e6bd6" d="M486,-749.5C486,-749.5 772,-749.5 772,-749.5 778,-749.5 784,-755.5 784,-761.5 784,-761.5 784,-800.5 784,-800.5 784,-806.5 778,-812.5 772,-812.5 772,-812.5 486,-812.5 486,-812.5 480,-812.5 474,-806.5 474,-800.5 474,-800.5 474,-761.5 474,-761.5 474,-755.5 480,-749.5 486,-749.5"/>
<text text-anchor="middle" x="629" y="-798.9" font-family="Fira Mono" font-size="12.00">ptr: 0x5030000006a0</text>
<polyline fill="none" stroke="#8e6bd6" points="474,-791.5 784,-791.5 "/>
<text text-anchor="middle" x="629" y="-777.9" font-family="Fira Mono" font-size="12.00">val: FUNC_DECL</text>
<polyline fill="none" stroke="#8e6bd6" points="474,-770.5 784,-770.5 "/>
<text text-anchor="middle" x="551.5" y="-756.9" font-family="Fira Mono" font-size="12.00">prev: 0x5030000006d0</text>
<polyline fill="none" stroke="#8e6bd6" points="629,-749.5 629,-770.5 "/>
<text text-anchor="middle" x="706.5" y="-756.9" font-family="Fira Mono" font-size="12.00">next: 0x503000000880</text>
</g>
<!-- node_0x503000000670&#45;&gt;node_0x5030000006a0 -->
<g id="edge1" class="edge">
<title>node_0x503000000670&#45;&gt;node_0x5030000006a0</title>
<path fill="none" stroke="#999999" d="M629,-856.35C629,-845.78 629,-833.78 629,-822.54"/>
<polygon fill="#999999" stroke="#999999" points="632.5,-822.51 629,-812.51 625.5,-822.51 632.5,-822.51"/>
</g>
<!-- node_0x5030000006d0 -->
<g id="node3" class="node">
<title>node_0x5030000006d0</title>
<path fill="#f1eafd" stroke="#8e6bd6" d="M330,-642.5C330,-642.5 616,-642.5 616,-642.5 622,-642.5 628,-648.5 628,-654.5 628,-654.5 628,-693.5 628,-693.5 628,-699.5 622,-705.5 616,-705.5 616,-705.5 330,-705.5 330,-705.5 324,-705.5 318,-699.5 318,-693.5 318,-693.5 318,-654.5 318,-654.5 318,-648.5 324,-642.5 330,-642.5"/>
<text text-anchor="middle" x="473" y="-691.9" font-family="Fira Mono" font-size="12.00">ptr: 0x5030000006d0</text>
<polyline fill="none" stroke="#8e6bd6" points="318,-684.5 628,-684.5 "/>
<text text-anchor="middle" x="473" y="-670.9" font-family="Fira Mono" font-size="12.00">val: FUNC_INFO</text>
<polyline fill="none" stroke="#8e6bd6" points="318,-663.5 628,-663.5 "/>
<text text-anchor="middle" x="395.5" y="-649.9" font-family="Fira Mono" font-size="12.00">prev: 0x503000000760</text>
<polyline fill="none" stroke="#8e6bd6" points="473,-642.5 473,-663.5 "/>
<text text-anchor="middle" x="550.5" y="-649.9" font-family="Fira Mono" font-size="12.00">next: 0x503000000850</text>
</g>
<!-- node_0x5030000006a0&#45;&gt;node_0x5030000006d0 -->
<g id="edge2" class="edge">
<title>node_0x5030000006a0&#45;&gt;node_0x5030000006d0</title>
<path fill="none" stroke="#999999" d="M583.46,-749.35C565.68,-737.38 545.16,-723.57 526.66,-711.12"/>
<polygon fill="#999999" stroke="#999999" points="528.58,-708.19 518.33,-705.51 524.67,-714 528.58,-708.19"/>
</g>
<!-- node_0x503000000880 -->
<g id="node8" class="node">
<title>node_0x503000000880</title>
<path fill="#f1eafd" stroke="#8e6bd6" d="M683,-642.5C683,-642.5 887,-642.5 887,-642.5 893,-642.5 899,-648.5 899,-654.5 899,-654.5 899,-693.5 899,-693.5 899,-699.5 893,-705.5 887,-705.5 887,-705.5 683,-705.5 683,-705.5 677,-705.5 671,-699.5 671,-693.5 671,-693.5 671,-654.5 671,-654.5 671,-648.5 677,-642.5 683,-642.5"/>
<text text-anchor="middle" x="785" y="-691.9" font-family="Fira Mono" font-size="12.00">ptr: 0x503000000880</text>
<polyline fill="none" stroke="#8e6bd6" points="671,-684.5 899,-684.5 "/>
<text text-anchor="middle" x="785" y="-670.9" font-family="Fira Mono" font-size="12.00">val: VIS_START</text>
<polyline fill="none" stroke="#8e6bd6" points="671,-663.5 899,-663.5 "/>
<text text-anchor="middle" x="748.5" y="-649.9" font-family="Fira Mono" font-size="12.00">prev: 0x5030000008b0</text>
<polyline fill="none" stroke="#8e6bd6" points="826,-642.5 826,-663.5 "/>
<text text-anchor="middle" x="862.5" y="-649.9" font-family="Fira Mono" font-size="12.00">next: (nil)</text>
</g>
<!-- node_0x5030000006a0&#45;&gt;node_0x503000000880 -->
<g id="edge3" class="edge">
<title>node_0x5030000006a0&#45;&gt;node_0x503000000880</title>
<path fill="none" stroke="#999999" d="M674.54,-749.35C692.32,-737.38 712.84,-723.57 731.34,-711.12"/>
<polygon fill="#999999" stroke="#999999" points="733.33,-714 739.67,-705.51 729.42,-708.19 733.33,-714"/>
</g>
<!-- node_0x503000000760 -->
<g id="node4" class="node">
<title>node_0x503000000760</title>
<path fill="#f1eafd" stroke="#8e6bd6" d="M82.5,-535.5C82.5,-535.5 365.5,-535.5 365.5,-535.5 371.5,-535.5 377.5,-541.5 377.5,-547.5 377.5,-547.5 377.5,-586.5 377.5,-586.5 377.5,-592.5 371.5,-598.5 365.5,-598.5 365.5,-598.5 82.5,-598.5 82.5,-598.5 76.5,-598.5 70.5,-592.5 70.5,-586.5 70.5,-586.5 70.5,-547.5 70.5,-547.5 70.5,-541.5 76.5,-535.5 82.5,-535.5"/>
<text text-anchor="middle" x="224" y="-584.9" font-family="Fira Mono" font-size="12.00">ptr: 0x503000000760</text>
<polyline fill="none" stroke="#8e6bd6" points="70.5,-577.5 377.5,-577.5 "/>
<text text-anchor="middle" x="224" y="-563.9" font-family="Fira Mono" font-size="12.00">val: ENUM_SEP</text>
<polyline fill="none" stroke="#8e6bd6" points="70.5,-556.5 377.5,-556.5 "/>
<text text-anchor="middle" x="146.5" y="-542.9" font-family="Fira Mono" font-size="12.00">prev: 0x5030000007f0</text>
<polyline fill="none" stroke="#8e6bd6" points="222.5,-535.5 222.5,-556.5 "/>
<text text-anchor="middle" x="300" y="-542.9" font-family="Fira Mono" font-size="12.00">next: 0x503000000820</text>
</g>
<!-- node_0x5030000006d0&#45;&gt;node_0x503000000760 -->
<g id="edge4" class="edge">
<title>node_0x5030000006d0&#45;&gt;node_0x503000000760</title>
<path fill="none" stroke="#999999" d="M400.64,-642.49C370.98,-629.98 336.48,-615.43 305.89,-602.53"/>
<polygon fill="#999999" stroke="#999999" points="307.11,-599.25 296.54,-598.59 304.39,-605.7 307.11,-599.25"/>
</g>
<!-- node_0x503000000850 -->
<g id="node7" class="node">
<title>node_0x503000000850</title>
<path fill="#e8f9e5" stroke="#c9fbdb" d="M433,-535.5C433,-535.5 555,-535.5 555,-535.5 561,-535.5 567,-541.5 567,-547.5 567,-547.5 567,-586.5 567,-586.5 567,-592.5 561,-598.5 555,-598.5 555,-598.5 433,-598.5 433,-598.5 427,-598.5 421,-592.5 421,-586.5 421,-586.5 421,-547.5 421,-547.5 421,-541.5 427,-535.5 433,-535.5"/>
<text text-anchor="middle" x="494" y="-584.9" font-family="Fira Mono" font-size="12.00">ptr: 0x503000000850</text>
<polyline fill="none" stroke="#c9fbdb" points="421,-577.5 567,-577.5 "/>
<text text-anchor="middle" x="494" y="-563.9" font-family="Fira Mono" font-size="12.00">val: maintr</text>
<polyline fill="none" stroke="#c9fbdb" points="421,-556.5 567,-556.5 "/>
<text text-anchor="middle" x="457.5" y="-542.9" font-family="Fira Mono" font-size="12.00">prev: (nil)</text>
<polyline fill="none" stroke="#c9fbdb" points="494,-535.5 494,-556.5 "/>
<text text-anchor="middle" x="530.5" y="-542.9" font-family="Fira Mono" font-size="12.00">next: (nil)</text>
</g>
<!-- node_0x5030000006d0&#45;&gt;node_0x503000000850 -->
<g id="edge5" class="edge">
<title>node_0x5030000006d0&#45;&gt;node_0x503000000850</title>
<path fill="none" stroke="#999999" d="M479.13,-642.35C481.24,-631.78 483.64,-619.78 485.89,-608.54"/>
<polygon fill="#999999" stroke="#999999" points="489.37,-609 487.9,-598.51 482.5,-607.63 489.37,-609"/>
</g>
<!-- node_0x5030000007f0 -->
<g id="node5" class="node">
<title>node_0x5030000007f0</title>
<path fill="#e8f9e5" stroke="#c9fbdb" d="M69,-428.5C69,-428.5 191,-428.5 191,-428.5 197,-428.5 203,-434.5 203,-440.5 203,-440.5 203,-479.5 203,-479.5 203,-485.5 197,-491.5 191,-491.5 191,-491.5 69,-491.5 69,-491.5 63,-491.5 57,-485.5 57,-479.5 57,-479.5 57,-440.5 57,-440.5 57,-434.5 63,-428.5 69,-428.5"/>
<text text-anchor="middle" x="130" y="-477.9" font-family="Fira Mono" font-size="12.00">ptr: 0x5030000007f0</text>
<polyline fill="none" stroke="#c9fbdb" points="57,-470.5 203,-470.5 "/>
<text text-anchor="middle" x="130" y="-456.9" font-family="Fira Mono" font-size="12.00">val: atr</text>
<polyline fill="none" stroke="#c9fbdb" points="57,-449.5 203,-449.5 "/>
<text text-anchor="middle" x="93.5" y="-435.9" font-family="Fira Mono" font-size="12.00">prev: (nil)</text>
<polyline fill="none" stroke="#c9fbdb" points="130,-428.5 130,-449.5 "/>
<text text-anchor="middle" x="166.5" y="-435.9" font-family="Fira Mono" font-size="12.00">next: (nil)</text>
</g>
<!-- node_0x503000000760&#45;&gt;node_0x5030000007f0 -->
<g id="edge6" class="edge">
<title>node_0x503000000760&#45;&gt;node_0x5030000007f0</title>
<path fill="none" stroke="#999999" d="M196.56,-535.35C186.42,-524.03 174.81,-511.06 164.15,-499.15"/>
<polygon fill="#999999" stroke="#999999" points="166.59,-496.63 157.31,-491.51 161.38,-501.29 166.59,-496.63"/>
</g>
<!-- node_0x503000000820 -->
<g id="node6" class="node">
<title>node_0x503000000820</title>
<path fill="#e8f9e5" stroke="#c9fbdb" d="M258,-428.5C258,-428.5 380,-428.5 380,-428.5 386,-428.5 392,-434.5 392,-440.5 392,-440.5 392,-479.5 392,-479.5 392,-485.5 386,-491.5 380,-491.5 380,-491.5 258,-491.5 258,-491.5 252,-491.5 246,-485.5 246,-479.5 246,-479.5 246,-440.5 246,-440.5 246,-434.5 252,-428.5 258,-428.5"/>
<text text-anchor="middle" x="319" y="-477.9" font-family="Fira Mono" font-size="12.00">ptr: 0x503000000820</text>
<polyline fill="none" stroke="#c9fbdb" points="246,-470.5 392,-470.5 "/>
<text text-anchor="middle" x="319" y="-456.9" font-family="Fira Mono" font-size="12.00">val: btr</text>
<polyline fill="none" stroke="#c9fbdb" points="246,-449.5 392,-449.5 "/>
<text text-anchor="middle" x="282.5" y="-435.9" font-family="Fira Mono" font-size="12.00">prev: (nil)</text>
<polyline fill="none" stroke="#c9fbdb" points="319,-428.5 319,-449.5 "/>
<text text-anchor="middle" x="355.5" y="-435.9" font-family="Fira Mono" font-size="12.00">next: (nil)</text>
</g>
<!-- node_0x503000000760&#45;&gt;node_0x503000000820 -->
<g id="edge7" class="edge">
<title>node_0x503000000760&#45;&gt;node_0x503000000820</title>
<path fill="none" stroke="#999999" d="M251.73,-535.35C261.98,-524.03 273.71,-511.06 284.48,-499.15"/>
<polygon fill="#999999" stroke="#999999" points="287.28,-501.27 291.4,-491.51 282.09,-496.58 287.28,-501.27"/>
</g>
<!-- node_0x5030000008b0 -->
<g id="node9" class="node">
<title>node_0x5030000008b0</title>
<path fill="#f1eafd" stroke="#8e6bd6" d="M642,-535.5C642,-535.5 928,-535.5 928,-535.5 934,-535.5 940,-541.5 940,-547.5 940,-547.5 940,-586.5 940,-586.5 940,-592.5 934,-598.5 928,-598.5 928,-598.5 642,-598.5 642,-598.5 636,-598.5 630,-592.5 630,-586.5 630,-586.5 630,-547.5 630,-547.5 630,-541.5 636,-535.5 642,-535.5"/>
<text text-anchor="middle" x="785" y="-584.9" font-family="Fira Mono" font-size="12.00">ptr: 0x5030000008b0</text>
<polyline fill="none" stroke="#8e6bd6" points="630,-577.5 940,-577.5 "/>
<text text-anchor="middle" x="785" y="-563.9" font-family="Fira Mono" font-size="12.00">val: LCAT</text>
<polyline fill="none" stroke="#8e6bd6" points="630,-556.5 940,-556.5 "/>
<text text-anchor="middle" x="707.5" y="-542.9" font-family="Fira Mono" font-size="12.00">prev: 0x5030000008e0</text>
<polyline fill="none" stroke="#8e6bd6" points="785,-535.5 785,-556.5 "/>
<text text-anchor="middle" x="862.5" y="-542.9" font-family="Fira Mono" font-size="12.00">next: 0x503000000b50</text>
</g>
<!-- node_0x503000000880&#45;&gt;node_0x5030000008b0 -->
<g id="edge8" class="edge">
<title>node_0x503000000880&#45;&gt;node_0x5030000008b0</title>
<path fill="none" stroke="#999999" d="M785,-642.35C785,-631.78 785,-619.78 785,-608.54"/>
<polygon fill="#999999" stroke="#999999" points="788.5,-608.51 785,-598.51 781.5,-608.51 788.5,-608.51"/>
</g>
<!-- node_0x5030000008e0 -->
<g id="node10" class="node">
<title>node_0x5030000008e0</title>
<path fill="#f1eafd" stroke="#8e6bd6" d="M534,-428.5C534,-428.5 820,-428.5 820,-428.5 826,-428.5 832,-434.5 832,-440.5 832,-440.5 832,-479.5 832,-479.5 832,-485.5 826,-491.5 820,-491.5 820,-491.5 534,-491.5 534,-491.5 528,-491.5 522,-485.5 522,-479.5 522,-479.5 522,-440.5 522,-440.5 522,-434.5 528,-428.5 534,-428.5"/>
<text text-anchor="middle" x="677" y="-477.9" font-family="Fira Mono" font-size="12.00">ptr: 0x5030000008e0</text>
<polyline fill="none" stroke="#8e6bd6" points="522,-470.5 832,-470.5 "/>
<text text-anchor="middle" x="677" y="-456.9" font-family="Fira Mono" font-size="12.00">val: LCAT</text>
<polyline fill="none" stroke="#8e6bd6" points="522,-449.5 832,-449.5 "/>
<text text-anchor="middle" x="599.5" y="-435.9" font-family="Fira Mono" font-size="12.00">prev: 0x503000000910</text>
<polyline fill="none" stroke="#8e6bd6" points="677,-428.5 677,-449.5 "/>
<text text-anchor="middle" x="754.5" y="-435.9" font-family="Fira Mono" font-size="12.00">next: 0x503000000a00</text>
</g>
<!-- node_0x5030000008b0&#45;&gt;node_0x5030000008e0 -->
<g id="edge9" class="edge">
<title>node_0x5030000008b0&#45;&gt;node_0x5030000008e0</title>
<path fill="none" stroke="#999999" d="M753.47,-535.35C741.72,-523.92 728.23,-510.81 715.89,-498.81"/>
<polygon fill="#999999" stroke="#999999" points="717.99,-495.97 708.38,-491.51 713.11,-500.99 717.99,-495.97"/>
</g>
<!-- node_0x503000000b50 -->
<g id="node23" class="node">
<title>node_0x503000000b50</title>
<path fill="#f1eafd" stroke="#8e6bd6" d="M887,-428.5C887,-428.5 1091,-428.5 1091,-428.5 1097,-428.5 1103,-434.5 1103,-440.5 1103,-440.5 1103,-479.5 1103,-479.5 1103,-485.5 1097,-491.5 1091,-491.5 1091,-491.5 887,-491.5 887,-491.5 881,-491.5 875,-485.5 875,-479.5 875,-479.5 875,-440.5 875,-440.5 875,-434.5 881,-428.5 887,-428.5"/>
<text text-anchor="middle" x="989" y="-477.9" font-family="Fira Mono" font-size="12.00">ptr: 0x503000000b50</text>
<polyline fill="none" stroke="#8e6bd6" points="875,-470.5 1103,-470.5 "/>
<text text-anchor="middle" x="989" y="-456.9" font-family="Fira Mono" font-size="12.00">val: RETURN</text>
<polyline fill="none" stroke="#8e6bd6" points="875,-449.5 1103,-449.5 "/>
<text text-anchor="middle" x="952.5" y="-435.9" font-family="Fira Mono" font-size="12.00">prev: 0x503000000bb0</text>
<polyline fill="none" stroke="#8e6bd6" points="1030,-428.5 1030,-449.5 "/>
<text text-anchor="middle" x="1066.5" y="-435.9" font-family="Fira Mono" font-size="12.00">next: (nil)</text>
</g>
<!-- node_0x5030000008b0&#45;&gt;node_0x503000000b50 -->
<g id="edge10" class="edge">
<title>node_0x5030000008b0&#45;&gt;node_0x503000000b50</title>
<path fill="none" stroke="#999999" d="M844.28,-535.49C868.17,-523.19 895.87,-508.93 920.61,-496.2"/>
<polygon fill="#999999" stroke="#999999" points="922.28,-499.28 929.57,-491.59 919.08,-493.05 922.28,-499.28"/>
</g>
<!-- node_0x503000000910 -->
<g id="node11" class="node">
<title>node_0x503000000910</title>
<path fill="#f1eafd" stroke="#8e6bd6" d="M201,-321.5C201,-321.5 487,-321.5 487,-321.5 493,-321.5 499,-327.5 499,-333.5 499,-333.5 499,-372.5 499,-372.5 499,-378.5 493,-384.5 487,-384.5 487,-384.5 201,-384.5 201,-384.5 195,-384.5 189,-378.5 189,-372.5 189,-372.5 189,-333.5 189,-333.5 189,-327.5 195,-321.5 201,-321.5"/>
<text text-anchor="middle" x="344" y="-370.9" font-family="Fira Mono" font-size="12.00">ptr: 0x503000000910</text>
<polyline fill="none" stroke="#8e6bd6" points="189,-363.5 499,-363.5 "/>
<text text-anchor="middle" x="344" y="-349.9" font-family="Fira Mono" font-size="12.00">val: ASSIGN</text>
<polyline fill="none" stroke="#8e6bd6" points="189,-342.5 499,-342.5 "/>
<text text-anchor="middle" x="266.5" y="-328.9" font-family="Fira Mono" font-size="12.00">prev: 0x503000000940</text>
<polyline fill="none" stroke="#8e6bd6" points="344,-321.5 344,-342.5 "/>
<text text-anchor="middle" x="421.5" y="-328.9" font-family="Fira Mono" font-size="12.00">next: 0x503000000970</text>
</g>
<!-- node_0x5030000008e0&#45;&gt;node_0x503000000910 -->
<g id="edge11" class="edge">
<title>node_0x5030000008e0&#45;&gt;node_0x503000000910</title>
<path fill="none" stroke="#999999" d="M580.24,-428.49C539.62,-415.68 492.24,-400.74 450.62,-387.62"/>
<polygon fill="#999999" stroke="#999999" points="451.6,-384.26 441.01,-384.59 449.49,-390.93 451.6,-384.26"/>
</g>
<!-- node_0x503000000a00 -->
<g id="node16" class="node">
<title>node_0x503000000a00</title>
<path fill="#f1eafd" stroke="#8e6bd6" d="M554.5,-321.5C554.5,-321.5 839.5,-321.5 839.5,-321.5 845.5,-321.5 851.5,-327.5 851.5,-333.5 851.5,-333.5 851.5,-372.5 851.5,-372.5 851.5,-378.5 845.5,-384.5 839.5,-384.5 839.5,-384.5 554.5,-384.5 554.5,-384.5 548.5,-384.5 542.5,-378.5 542.5,-372.5 542.5,-372.5 542.5,-333.5 542.5,-333.5 542.5,-327.5 548.5,-321.5 554.5,-321.5"/>
<text text-anchor="middle" x="697" y="-370.9" font-family="Fira Mono" font-size="12.00">ptr: 0x503000000a00</text>
<polyline fill="none" stroke="#8e6bd6" points="542.5,-363.5 851.5,-363.5 "/>
<text text-anchor="middle" x="697" y="-349.9" font-family="Fira Mono" font-size="12.00">val: IF</text>
<polyline fill="none" stroke="#8e6bd6" points="542.5,-342.5 851.5,-342.5 "/>
<text text-anchor="middle" x="620" y="-328.9" font-family="Fira Mono" font-size="12.00">prev: 0x503000000a30</text>
<polyline fill="none" stroke="#8e6bd6" points="697.5,-321.5 697.5,-342.5 "/>
<text text-anchor="middle" x="774.5" y="-328.9" font-family="Fira Mono" font-size="12.00">next: 0x503000000ac0</text>
</g>
<!-- node_0x5030000008e0&#45;&gt;node_0x503000000a00 -->
<g id="edge12" class="edge">
<title>node_0x5030000008e0&#45;&gt;node_0x503000000a00</title>
<path fill="none" stroke="#999999" d="M682.84,-428.35C684.85,-417.78 687.14,-405.78 689.28,-394.54"/>
<polygon fill="#999999" stroke="#999999" points="692.76,-394.99 691.19,-384.51 685.88,-393.68 692.76,-394.99"/>
</g>
<!-- node_0x503000000940 -->
<g id="node12" class="node">
<title>node_0x503000000940</title>
<path fill="#e8f9e5" stroke="#c9fbdb" d="M12,-214.5C12,-214.5 134,-214.5 134,-214.5 140,-214.5 146,-220.5 146,-226.5 146,-226.5 146,-265.5 146,-265.5 146,-271.5 140,-277.5 134,-277.5 134,-277.5 12,-277.5 12,-277.5 6,-277.5 0,-271.5 0,-265.5 0,-265.5 0,-226.5 0,-226.5 0,-220.5 6,-214.5 12,-214.5"/>
<text text-anchor="middle" x="73" y="-263.9" font-family="Fira Mono" font-size="12.00">ptr: 0x503000000940</text>
<polyline fill="none" stroke="#c9fbdb" points="0,-256.5 146,-256.5 "/>
<text text-anchor="middle" x="73" y="-242.9" font-family="Fira Mono" font-size="12.00">val: xtr</text>
<polyline fill="none" stroke="#c9fbdb" points="0,-235.5 146,-235.5 "/>
<text text-anchor="middle" x="36.5" y="-221.9" font-family="Fira Mono" font-size="12.00">prev: (nil)</text>
<polyline fill="none" stroke="#c9fbdb" points="73,-214.5 73,-235.5 "/>
<text text-anchor="middle" x="109.5" y="-221.9" font-family="Fira Mono" font-size="12.00">next: (nil)</text>
</g>
<!-- node_0x503000000910&#45;&gt;node_0x503000000940 -->
<g id="edge13" class="edge">
<title>node_0x503000000910&#45;&gt;node_0x503000000940</title>
<path fill="none" stroke="#999999" d="M265.25,-321.49C230.97,-308.21 190.77,-292.63 156.02,-279.17"/>
<polygon fill="#999999" stroke="#999999" points="156.96,-275.78 146.37,-275.43 154.43,-282.3 156.96,-275.78"/>
</g>
<!-- node_0x503000000970 -->
<g id="node13" class="node">
<title>node_0x503000000970</title>
<path fill="#f1eafd" stroke="#8e6bd6" d="M201,-214.5C201,-214.5 487,-214.5 487,-214.5 493,-214.5 499,-220.5 499,-226.5 499,-226.5 499,-265.5 499,-265.5 499,-271.5 493,-277.5 487,-277.5 487,-277.5 201,-277.5 201,-277.5 195,-277.5 189,-271.5 189,-265.5 189,-265.5 189,-226.5 189,-226.5 189,-220.5 195,-214.5 201,-214.5"/>
<text text-anchor="middle" x="344" y="-263.9" font-family="Fira Mono" font-size="12.00">ptr: 0x503000000970</text>
<polyline fill="none" stroke="#8e6bd6" points="189,-256.5 499,-256.5 "/>
<text text-anchor="middle" x="344" y="-242.9" font-family="Fira Mono" font-size="12.00">val: ADD</text>
<polyline fill="none" stroke="#8e6bd6" points="189,-235.5 499,-235.5 "/>
<text text-anchor="middle" x="266.5" y="-221.9" font-family="Fira Mono" font-size="12.00">prev: 0x5030000009a0</text>
<polyline fill="none" stroke="#8e6bd6" points="344,-214.5 344,-235.5 "/>
<text text-anchor="middle" x="421.5" y="-221.9" font-family="Fira Mono" font-size="12.00">next: 0x5030000009d0</text>
</g>
<!-- node_0x503000000910&#45;&gt;node_0x503000000970 -->
<g id="edge14" class="edge">
<title>node_0x503000000910&#45;&gt;node_0x503000000970</title>
<path fill="none" stroke="#999999" d="M344,-321.35C344,-310.78 344,-298.78 344,-287.54"/>
<polygon fill="#999999" stroke="#999999" points="347.5,-287.51 344,-277.51 340.5,-287.51 347.5,-287.51"/>
</g>
<!-- node_0x5030000009a0 -->
<g id="node14" class="node">
<title>node_0x5030000009a0</title>
<path fill="#e8f9e5" stroke="#c9fbdb" d="M118,-107.5C118,-107.5 240,-107.5 240,-107.5 246,-107.5 252,-113.5 252,-119.5 252,-119.5 252,-158.5 252,-158.5 252,-164.5 246,-170.5 240,-170.5 240,-170.5 118,-170.5 118,-170.5 112,-170.5 106,-164.5 106,-158.5 106,-158.5 106,-119.5 106,-119.5 106,-113.5 112,-107.5 118,-107.5"/>
<text text-anchor="middle" x="179" y="-156.9" font-family="Fira Mono" font-size="12.00">ptr: 0x5030000009a0</text>
<polyline fill="none" stroke="#c9fbdb" points="106,-149.5 252,-149.5 "/>
<text text-anchor="middle" x="179" y="-135.9" font-family="Fira Mono" font-size="12.00">val: atr</text>
<polyline fill="none" stroke="#c9fbdb" points="106,-128.5 252,-128.5 "/>
<text text-anchor="middle" x="142.5" y="-114.9" font-family="Fira Mono" font-size="12.00">prev: (nil)</text>
<polyline fill="none" stroke="#c9fbdb" points="179,-107.5 179,-128.5 "/>
<text text-anchor="middle" x="215.5" y="-114.9" font-family="Fira Mono" font-size="12.00">next: (nil)</text>
</g>
<!-- node_0x503000000970&#45;&gt;node_0x5030000009a0 -->
<g id="edge15" class="edge">
<title>node_0x503000000970&#45;&gt;node_0x5030000009a0</title>
<path fill="none" stroke="#999999" d="M295.83,-214.35C276.94,-202.33 255.12,-188.44 235.5,-175.95"/>
<polygon fill="#999999" stroke="#999999" points="237.26,-172.93 226.94,-170.51 233.5,-178.83 237.26,-172.93"/>
</g>
<!-- node_0x5030000009d0 -->
<g id="node15" class="node">
<title>node_0x5030000009d0</title>
<path fill="#e8f9e5" stroke="#c9fbdb" d="M307,-107.5C307,-107.5 429,-107.5 429,-107.5 435,-107.5 441,-113.5 441,-119.5 441,-119.5 441,-158.5 441,-158.5 441,-164.5 435,-170.5 429,-170.5 429,-170.5 307,-170.5 307,-170.5 301,-170.5 295,-164.5 295,-158.5 295,-158.5 295,-119.5 295,-119.5 295,-113.5 301,-107.5 307,-107.5"/>
<text text-anchor="middle" x="368" y="-156.9" font-family="Fira Mono" font-size="12.00">ptr: 0x5030000009d0</text>
<polyline fill="none" stroke="#c9fbdb" points="295,-149.5 441,-149.5 "/>
<text text-anchor="middle" x="368" y="-135.9" font-family="Fira Mono" font-size="12.00">val: btr</text>
<polyline fill="none" stroke="#c9fbdb" points="295,-128.5 441,-128.5 "/>
<text text-anchor="middle" x="331.5" y="-114.9" font-family="Fira Mono" font-size="12.00">prev: (nil)</text>
<polyline fill="none" stroke="#c9fbdb" points="368,-107.5 368,-128.5 "/>
<text text-anchor="middle" x="404.5" y="-114.9" font-family="Fira Mono" font-size="12.00">next: (nil)</text>
</g>
<!-- node_0x503000000970&#45;&gt;node_0x5030000009d0 -->
<g id="edge16" class="edge">
<title>node_0x503000000970&#45;&gt;node_0x5030000009d0</title>
<path fill="none" stroke="#999999" d="M351.01,-214.35C353.42,-203.78 356.17,-191.78 358.73,-180.54"/>
<polygon fill="#999999" stroke="#999999" points="362.21,-181.04 361.03,-170.51 355.39,-179.48 362.21,-181.04"/>
</g>
<!-- node_0x503000000a30 -->
<g id="node17" class="node">
<title>node_0x503000000a30</title>
<path fill="#f1eafd" stroke="#8e6bd6" d="M554,-214.5C554,-214.5 840,-214.5 840,-214.5 846,-214.5 852,-220.5 852,-226.5 852,-226.5 852,-265.5 852,-265.5 852,-271.5 846,-277.5 840,-277.5 840,-277.5 554,-277.5 554,-277.5 548,-277.5 542,-271.5 542,-265.5 542,-265.5 542,-226.5 542,-226.5 542,-220.5 548,-214.5 554,-214.5"/>
<text text-anchor="middle" x="697" y="-263.9" font-family="Fira Mono" font-size="12.00">ptr: 0x503000000a30</text>
<polyline fill="none" stroke="#8e6bd6" points="542,-256.5 852,-256.5 "/>
<text text-anchor="middle" x="697" y="-242.9" font-family="Fira Mono" font-size="12.00">val: EQ</text>
<polyline fill="none" stroke="#8e6bd6" points="542,-235.5 852,-235.5 "/>
<text text-anchor="middle" x="619.5" y="-221.9" font-family="Fira Mono" font-size="12.00">prev: 0x503000000a60</text>
<polyline fill="none" stroke="#8e6bd6" points="697,-214.5 697,-235.5 "/>
<text text-anchor="middle" x="774.5" y="-221.9" font-family="Fira Mono" font-size="12.00">next: 0x503000000a90</text>
</g>
<!-- node_0x503000000a00&#45;&gt;node_0x503000000a30 -->
<g id="edge17" class="edge">
<title>node_0x503000000a00&#45;&gt;node_0x503000000a30</title>
<path fill="none" stroke="#999999" d="M697,-321.35C697,-310.78 697,-298.78 697,-287.54"/>
<polygon fill="#999999" stroke="#999999" points="700.5,-287.51 697,-277.51 693.5,-287.51 700.5,-287.51"/>
</g>
<!-- node_0x503000000ac0 -->
<g id="node20" class="node">
<title>node_0x503000000ac0</title>
<path fill="#f1eafd" stroke="#8e6bd6" d="M907,-214.5C907,-214.5 1187,-214.5 1187,-214.5 1193,-214.5 1199,-220.5 1199,-226.5 1199,-226.5 1199,-265.5 1199,-265.5 1199,-271.5 1193,-277.5 1187,-277.5 1187,-277.5 907,-277.5 907,-277.5 901,-277.5 895,-271.5 895,-265.5 895,-265.5 895,-226.5 895,-226.5 895,-220.5 901,-214.5 907,-214.5"/>
<text text-anchor="middle" x="1047" y="-263.9" font-family="Fira Mono" font-size="12.00">ptr: 0x503000000ac0</text>
<polyline fill="none" stroke="#8e6bd6" points="895,-256.5 1199,-256.5 "/>
<text text-anchor="middle" x="1047" y="-242.9" font-family="Fira Mono" font-size="12.00">val: VIS_START</text>
<polyline fill="none" stroke="#8e6bd6" points="895,-235.5 1199,-235.5 "/>
<text text-anchor="middle" x="971" y="-221.9" font-family="Fira Mono" font-size="12.00">prev: 0x503000000af0</text>
<polyline fill="none" stroke="#8e6bd6" points="1047,-214.5 1047,-235.5 "/>
<text text-anchor="middle" x="1123" y="-221.9" font-family="Fira Mono" font-size="12.00">next: 0x503000000af0</text>
</g>
<!-- node_0x503000000a00&#45;&gt;node_0x503000000ac0 -->
<g id="edge18" class="edge">
<title>node_0x503000000a00&#45;&gt;node_0x503000000ac0</title>
<path fill="none" stroke="#999999" d="M798.7,-321.49C841.49,-308.65 891.4,-293.68 935.21,-280.54"/>
<polygon fill="#999999" stroke="#999999" points="936.47,-283.81 945.04,-277.59 934.46,-277.11 936.47,-283.81"/>
</g>
<!-- node_0x503000000a60 -->
<g id="node18" class="node">
<title>node_0x503000000a60</title>
<path fill="#e8f9e5" stroke="#c9fbdb" d="M520,-107.5C520,-107.5 642,-107.5 642,-107.5 648,-107.5 654,-113.5 654,-119.5 654,-119.5 654,-158.5 654,-158.5 654,-164.5 648,-170.5 642,-170.5 642,-170.5 520,-170.5 520,-170.5 514,-170.5 508,-164.5 508,-158.5 508,-158.5 508,-119.5 508,-119.5 508,-113.5 514,-107.5 520,-107.5"/>
<text text-anchor="middle" x="581" y="-156.9" font-family="Fira Mono" font-size="12.00">ptr: 0x503000000a60</text>
<polyline fill="none" stroke="#c9fbdb" points="508,-149.5 654,-149.5 "/>
<text text-anchor="middle" x="581" y="-135.9" font-family="Fira Mono" font-size="12.00">val: xtr</text>
<polyline fill="none" stroke="#c9fbdb" points="508,-128.5 654,-128.5 "/>
<text text-anchor="middle" x="544.5" y="-114.9" font-family="Fira Mono" font-size="12.00">prev: (nil)</text>
<polyline fill="none" stroke="#c9fbdb" points="581,-107.5 581,-128.5 "/>
<text text-anchor="middle" x="617.5" y="-114.9" font-family="Fira Mono" font-size="12.00">next: (nil)</text>
</g>
<!-- node_0x503000000a30&#45;&gt;node_0x503000000a60 -->
<g id="edge19" class="edge">
<title>node_0x503000000a30&#45;&gt;node_0x503000000a60</title>
<path fill="none" stroke="#999999" d="M663.14,-214.35C650.39,-202.81 635.75,-189.56 622.4,-177.47"/>
<polygon fill="#999999" stroke="#999999" points="624.47,-174.63 614.71,-170.51 619.77,-179.81 624.47,-174.63"/>
</g>
<!-- node_0x503000000a90 -->
<g id="node19" class="node">
<title>node_0x503000000a90</title>
<path fill="#e8f9e5" stroke="#c9fbdb" d="M709,-107.5C709,-107.5 831,-107.5 831,-107.5 837,-107.5 843,-113.5 843,-119.5 843,-119.5 843,-158.5 843,-158.5 843,-164.5 837,-170.5 831,-170.5 831,-170.5 709,-170.5 709,-170.5 703,-170.5 697,-164.5 697,-158.5 697,-158.5 697,-119.5 697,-119.5 697,-113.5 703,-107.5 709,-107.5"/>
<text text-anchor="middle" x="770" y="-156.9" font-family="Fira Mono" font-size="12.00">ptr: 0x503000000a90</text>
<polyline fill="none" stroke="#c9fbdb" points="697,-149.5 843,-149.5 "/>
<text text-anchor="middle" x="770" y="-135.9" font-family="Fira Mono" font-size="12.00">val: 1.000000</text>
<polyline fill="none" stroke="#c9fbdb" points="697,-128.5 843,-128.5 "/>
<text text-anchor="middle" x="733.5" y="-114.9" font-family="Fira Mono" font-size="12.00">prev: (nil)</text>
<polyline fill="none" stroke="#c9fbdb" points="770,-107.5 770,-128.5 "/>
<text text-anchor="middle" x="806.5" y="-114.9" font-family="Fira Mono" font-size="12.00">next: (nil)</text>
</g>
<!-- node_0x503000000a30&#45;&gt;node_0x503000000a90 -->
<g id="edge20" class="edge">
<title>node_0x503000000a30&#45;&gt;node_0x503000000a90</title>
<path fill="none" stroke="#999999" d="M718.31,-214.35C726.03,-203.24 734.86,-190.55 743,-178.83"/>
<polygon fill="#999999" stroke="#999999" points="745.95,-180.72 748.79,-170.51 740.21,-176.72 745.95,-180.72"/>
</g>
<!-- node_0x503000000af0 -->
<g id="node21" class="node">
<title>node_0x503000000af0</title>
<path fill="#f1eafd" stroke="#8e6bd6" d="M945,-107.5C945,-107.5 1149,-107.5 1149,-107.5 1155,-107.5 1161,-113.5 1161,-119.5 1161,-119.5 1161,-158.5 1161,-158.5 1161,-164.5 1155,-170.5 1149,-170.5 1149,-170.5 945,-170.5 945,-170.5 939,-170.5 933,-164.5 933,-158.5 933,-158.5 933,-119.5 933,-119.5 933,-113.5 939,-107.5 945,-107.5"/>
<text text-anchor="middle" x="1047" y="-156.9" font-family="Fira Mono" font-size="12.00">ptr: 0x503000000af0</text>
<polyline fill="none" stroke="#8e6bd6" points="933,-149.5 1161,-149.5 "/>
<text text-anchor="middle" x="1047" y="-135.9" font-family="Fira Mono" font-size="12.00">val: PRINT</text>
<polyline fill="none" stroke="#8e6bd6" points="933,-128.5 1161,-128.5 "/>
<text text-anchor="middle" x="1010.5" y="-114.9" font-family="Fira Mono" font-size="12.00">prev: 0x503000000b20</text>
<polyline fill="none" stroke="#8e6bd6" points="1088,-107.5 1088,-128.5 "/>
<text text-anchor="middle" x="1124.5" y="-114.9" font-family="Fira Mono" font-size="12.00">next: (nil)</text>
</g>
<!-- node_0x503000000ac0&#45;&gt;node_0x503000000af0 -->
<g id="edge21" class="edge">
<title>node_0x503000000ac0&#45;&gt;node_0x503000000af0</title>
<path fill="none" stroke="#999999" d="M1032.53,-214.35C1031.22,-203.78 1030.91,-191.78 1031.62,-180.54"/>
<polygon fill="#999999" stroke="#999999" points="1035.11,-180.79 1032.55,-170.51 1028.14,-180.14 1035.11,-180.79"/>
</g>
<!-- node_0x503000000ac0&#45;&gt;node_0x503000000af0 -->
<g id="edge22" class="edge">
<title>node_0x503000000ac0&#45;&gt;node_0x503000000af0</title>
<path fill="none" stroke="#999999" d="M1062.16,-214.35C1063.53,-203.78 1063.85,-191.78 1063.11,-180.54"/>
<polygon fill="#999999" stroke="#999999" points="1066.59,-180.12 1062.14,-170.51 1059.62,-180.8 1066.59,-180.12"/>
</g>
<!-- node_0x503000000b20 -->
<g id="node22" class="node">
<title>node_0x503000000b20</title>
<path fill="#e8f9e5" stroke="#c9fbdb" d="M986,-0.5C986,-0.5 1108,-0.5 1108,-0.5 1114,-0.5 1120,-6.5 1120,-12.5 1120,-12.5 1120,-51.5 1120,-51.5 1120,-57.5 1114,-63.5 1108,-63.5 1108,-63.5 986,-63.5 986,-63.5 980,-63.5 974,-57.5 974,-51.5 974,-51.5 974,-12.5 974,-12.5 974,-6.5 980,-0.5 986,-0.5"/>
<text text-anchor="middle" x="1047" y="-49.9" font-family="Fira Mono" font-size="12.00">ptr: 0x503000000b20</text>
<polyline fill="none" stroke="#c9fbdb" points="974,-42.5 1120,-42.5 "/>
<text text-anchor="middle" x="1047" y="-28.9" font-family="Fira Mono" font-size="12.00">val: xtr</text>
<polyline fill="none" stroke="#c9fbdb" points="974,-21.5 1120,-21.5 "/>
<text text-anchor="middle" x="1010.5" y="-7.9" font-family="Fira Mono" font-size="12.00">prev: (nil)</text>
<polyline fill="none" stroke="#c9fbdb" points="1047,-0.5 1047,-21.5 "/>
<text text-anchor="middle" x="1083.5" y="-7.9" font-family="Fira Mono" font-size="12.00">next: (nil)</text>
</g>
<!-- node_0x503000000af0&#45;&gt;node_0x503000000b20 -->
<g id="edge23" class="edge">
<title>node_0x503000000af0&#45;&gt;node_0x503000000b20</title>
<path fill="none" stroke="#999999" d="M1032.53,-107.35C1031.22,-96.78 1030.91,-84.78 1031.62,-73.54"/>
<polygon fill="#999999" stroke="#999999" points="1035.11,-73.79 1032.55,-63.51 1028.14,-73.14 1035.11,-73.79"/>
</g>
<!-- node_0x503000000af0&#45;&gt;node_0x503000000b20 -->
<g id="edge24" class="edge">
<title>node_0x503000000af0&#45;&gt;node_0x503000000b20</title>
<path fill="none" stroke="#999999" d="M1062.16,-107.35C1063.53,-96.78 1063.85,-84.78 1063.11,-73.54"/>
<polygon fill="#999999" stroke="#999999" points="1066.59,-73.12 1062.14,-63.51 1059.62,-73.8 1066.59,-73.12"/>
</g>
<!-- node_0x503000000bb0 -->
<g id="node24" class="node">
<title>node_0x503000000bb0</title>
<path fill="#e8f9e5" stroke="#c9fbdb" d="M928,-321.5C928,-321.5 1050,-321.5 1050,-321.5 1056,-321.5 1062,-327.5 1062,-333.5 1062,-333.5 1062,-372.5 1062,-372.5 1062,-378.5 1056,-384.5 1050,-384.5 1050,-384.5 928,-384.5 928,-384.5 922,-384.5 916,-378.5 916,-372.5 916,-372.5 916,-333.5 916,-333.5 916,-327.5 922,-321.5 928,-321.5"/>
<text text-anchor="middle" x="989" y="-370.9" font-family="Fira Mono" font-size="12.00">ptr: 0x503000000bb0</text>
<polyline fill="none" stroke="#c9fbdb" points="916,-363.5 1062,-363.5 "/>
<text text-anchor="middle" x="989" y="-349.9" font-family="Fira Mono" font-size="12.00">val: xtr</text>
<polyline fill="none" stroke="#c9fbdb" points="916,-342.5 1062,-342.5 "/>
<text text-anchor="middle" x="952.5" y="-328.9" font-family="Fira Mono" font-size="12.00">prev: (nil)</text>
<polyline fill="none" stroke="#c9fbdb" points="989,-321.5 989,-342.5 "/>
<text text-anchor="middle" x="1025.5" y="-328.9" font-family="Fira Mono" font-size="12.00">next: (nil)</text>
</g>
<!-- node_0x503000000b50&#45;&gt;node_0x503000000bb0 -->
<g id="edge25" class="edge">
<title>node_0x503000000b50&#45;&gt;node_0x503000000bb0</title>
<path fill="none" stroke="#999999" d="M989,-428.35C989,-417.78 989,-405.78 989,-394.54"/>
<polygon fill="#999999" stroke="#999999" points="992.5,-394.51 989,-384.51 985.5,-394.51 992.5,-394.51"/>
</g>
</g>
</svg>
