<?xml version="1.0" encoding="UTF-8" standalone="no"?>
<!DOCTYPE svg PUBLIC "-//W3C//DTD SVG 1.1//EN"
 "http://www.w3.org/Graphics/SVG/1.1/DTD/svg11.dtd">
<!-- Generated by graphviz version 2.43.0 (0)
 -->
<!-- Title: T Pages: 1 -->
<svg width="884pt" height="714pt"
 viewBox="0.00 0.00 884.00 714.00" xmlns="http://www.w3.org/2000/svg" xmlns:xlink="http://www.w3.org/1999/xlink">
<g id="graph0" class="graph" transform="scale(1 1) rotate(0) translate(4 710)">
<title>T</title>
<polygon fill="white" stroke="transparent" points="-4,4 -4,-710 880,-710 880,4 -4,4"/>
<!-- node_0x503000000670 -->
<g id="node1" class="node">
<title>node_0x503000000670</title>
<path fill="#e9fbf5" stroke="#5aa99b" d="M450,-642.5C450,-642.5 654,-642.5 654,-642.5 660,-642.5 666,-648.5 666,-654.5 666,-654.5 666,-693.5 666,-693.5 666,-699.5 660,-705.5 654,-705.5 654,-705.5 450,-705.5 450,-705.5 444,-705.5 438,-699.5 438,-693.5 438,-693.5 438,-654.5 438,-654.5 438,-648.5 444,-642.5 450,-642.5"/>
<text text-anchor="middle" x="552" y="-691.9" font-family="Fira Mono" font-size="12.00">ptr: 0x503000000670</text>
<polyline fill="none" stroke="#5aa99b" points="438,-684.5 666,-684.5 "/>
<text text-anchor="middle" x="552" y="-670.9" font-family="Fira Mono" font-size="12.00">val: VIS_START</text>
<polyline fill="none" stroke="#5aa99b" points="438,-663.5 666,-663.5 "/>
<text text-anchor="middle" x="515.5" y="-649.9" font-family="Fira Mono" font-size="12.00">prev: 0x5030000006a0</text>
<polyline fill="none" stroke="#5aa99b" points="593,-642.5 593,-663.5 "/>
<text text-anchor="middle" x="629.5" y="-649.9" font-family="Fira Mono" font-size="12.00">next: (nil)</text>
</g>
<!-- node_0x5030000006a0 -->
<g id="node2" class="node">
<title>node_0x5030000006a0</title>
<path fill="#f1eafd" stroke="#8e6bd6" d="M409,-535.5C409,-535.5 695,-535.5 695,-535.5 701,-535.5 707,-541.5 707,-547.5 707,-547.5 707,-586.5 707,-586.5 707,-592.5 701,-598.5 695,-598.5 695,-598.5 409,-598.5 409,-598.5 403,-598.5 397,-592.5 397,-586.5 397,-586.5 397,-547.5 397,-547.5 397,-541.5 403,-535.5 409,-535.5"/>
<text text-anchor="middle" x="552" y="-584.9" font-family="Fira Mono" font-size="12.00">ptr: 0x5030000006a0</text>
<polyline fill="none" stroke="#8e6bd6" points="397,-577.5 707,-577.5 "/>
<text text-anchor="middle" x="552" y="-563.9" font-family="Fira Mono" font-size="12.00">val: FUNC_DECL</text>
<polyline fill="none" stroke="#8e6bd6" points="397,-556.5 707,-556.5 "/>
<text text-anchor="middle" x="474.5" y="-542.9" font-family="Fira Mono" font-size="12.00">prev: 0x5030000006d0</text>
<polyline fill="none" stroke="#8e6bd6" points="552,-535.5 552,-556.5 "/>
<text text-anchor="middle" x="629.5" y="-542.9" font-family="Fira Mono" font-size="12.00">next: 0x503000000880</text>
</g>
<!-- node_0x503000000670&#45;&gt;node_0x5030000006a0 -->
<g id="edge1" class="edge">
<title>node_0x503000000670&#45;&gt;node_0x5030000006a0</title>
<path fill="none" stroke="#999999" d="M552,-642.35C552,-631.78 552,-619.78 552,-608.54"/>
<polygon fill="#999999" stroke="#999999" points="555.5,-608.51 552,-598.51 548.5,-608.51 555.5,-608.51"/>
</g>
<!-- node_0x5030000006d0 -->
<g id="node3" class="node">
<title>node_0x5030000006d0</title>
<path fill="#f1eafd" stroke="#8e6bd6" d="M253,-428.5C253,-428.5 539,-428.5 539,-428.5 545,-428.5 551,-434.5 551,-440.5 551,-440.5 551,-479.5 551,-479.5 551,-485.5 545,-491.5 539,-491.5 539,-491.5 253,-491.5 253,-491.5 247,-491.5 241,-485.5 241,-479.5 241,-479.5 241,-440.5 241,-440.5 241,-434.5 247,-428.5 253,-428.5"/>
<text text-anchor="middle" x="396" y="-477.9" font-family="Fira Mono" font-size="12.00">ptr: 0x5030000006d0</text>
<polyline fill="none" stroke="#8e6bd6" points="241,-470.5 551,-470.5 "/>
<text text-anchor="middle" x="396" y="-456.9" font-family="Fira Mono" font-size="12.00">val: FUNC_INFO</text>
<polyline fill="none" stroke="#8e6bd6" points="241,-449.5 551,-449.5 "/>
<text text-anchor="middle" x="318.5" y="-435.9" font-family="Fira Mono" font-size="12.00">prev: 0x503000000760</text>
<polyline fill="none" stroke="#8e6bd6" points="396,-428.5 396,-449.5 "/>
<text text-anchor="middle" x="473.5" y="-435.9" font-family="Fira Mono" font-size="12.00">next: 0x503000000850</text>
</g>
<!-- node_0x5030000006a0&#45;&gt;node_0x5030000006d0 -->
<g id="edge2" class="edge">
<title>node_0x5030000006a0&#45;&gt;node_0x5030000006d0</title>
<path fill="none" stroke="#999999" d="M506.46,-535.35C488.68,-523.38 468.16,-509.57 449.66,-497.12"/>
<polygon fill="#999999" stroke="#999999" points="451.58,-494.19 441.33,-491.51 447.67,-500 451.58,-494.19"/>
</g>
<!-- node_0x503000000880 -->
<g id="node8" class="node">
<title>node_0x503000000880</title>
<path fill="#f1eafd" stroke="#8e6bd6" d="M606,-428.5C606,-428.5 810,-428.5 810,-428.5 816,-428.5 822,-434.5 822,-440.5 822,-440.5 822,-479.5 822,-479.5 822,-485.5 816,-491.5 810,-491.5 810,-491.5 606,-491.5 606,-491.5 600,-491.5 594,-485.5 594,-479.5 594,-479.5 594,-440.5 594,-440.5 594,-434.5 600,-428.5 606,-428.5"/>
<text text-anchor="middle" x="708" y="-477.9" font-family="Fira Mono" font-size="12.00">ptr: 0x503000000880</text>
<polyline fill="none" stroke="#8e6bd6" points="594,-470.5 822,-470.5 "/>
<text text-anchor="middle" x="708" y="-456.9" font-family="Fira Mono" font-size="12.00">val: VIS_START</text>
<polyline fill="none" stroke="#8e6bd6" points="594,-449.5 822,-449.5 "/>
<text text-anchor="middle" x="671.5" y="-435.9" font-family="Fira Mono" font-size="12.00">prev: 0x5030000008b0</text>
<polyline fill="none" stroke="#8e6bd6" points="749,-428.5 749,-449.5 "/>
<text text-anchor="middle" x="785.5" y="-435.9" font-family="Fira Mono" font-size="12.00">next: (nil)</text>
</g>
<!-- node_0x5030000006a0&#45;&gt;node_0x503000000880 -->
<g id="edge3" class="edge">
<title>node_0x5030000006a0&#45;&gt;node_0x503000000880</title>
<path fill="none" stroke="#999999" d="M597.54,-535.35C615.32,-523.38 635.84,-509.57 654.34,-497.12"/>
<polygon fill="#999999" stroke="#999999" points="656.33,-500 662.67,-491.51 652.42,-494.19 656.33,-500"/>
</g>
<!-- node_0x503000000760 -->
<g id="node4" class="node">
<title>node_0x503000000760</title>
<path fill="#f1eafd" stroke="#8e6bd6" d="M25.5,-321.5C25.5,-321.5 308.5,-321.5 308.5,-321.5 314.5,-321.5 320.5,-327.5 320.5,-333.5 320.5,-333.5 320.5,-372.5 320.5,-372.5 320.5,-378.5 314.5,-384.5 308.5,-384.5 308.5,-384.5 25.5,-384.5 25.5,-384.5 19.5,-384.5 13.5,-378.5 13.5,-372.5 13.5,-372.5 13.5,-333.5 13.5,-333.5 13.5,-327.5 19.5,-321.5 25.5,-321.5"/>
<text text-anchor="middle" x="167" y="-370.9" font-family="Fira Mono" font-size="12.00">ptr: 0x503000000760</text>
<polyline fill="none" stroke="#8e6bd6" points="13.5,-363.5 320.5,-363.5 "/>
<text text-anchor="middle" x="167" y="-349.9" font-family="Fira Mono" font-size="12.00">val: ENUM_SEP</text>
<polyline fill="none" stroke="#8e6bd6" points="13.5,-342.5 320.5,-342.5 "/>
<text text-anchor="middle" x="89.5" y="-328.9" font-family="Fira Mono" font-size="12.00">prev: 0x5030000007f0</text>
<polyline fill="none" stroke="#8e6bd6" points="165.5,-321.5 165.5,-342.5 "/>
<text text-anchor="middle" x="243" y="-328.9" font-family="Fira Mono" font-size="12.00">next: 0x503000000820</text>
</g>
<!-- node_0x5030000006d0&#45;&gt;node_0x503000000760 -->
<g id="edge4" class="edge">
<title>node_0x5030000006d0&#45;&gt;node_0x503000000760</title>
<path fill="none" stroke="#999999" d="M329.46,-428.49C302.41,-416.09 271,-401.68 243.04,-388.87"/>
<polygon fill="#999999" stroke="#999999" points="244.26,-385.57 233.71,-384.59 241.34,-391.94 244.26,-385.57"/>
</g>
<!-- node_0x503000000850 -->
<g id="node7" class="node">
<title>node_0x503000000850</title>
<path fill="#e8f9e5" stroke="#c9fbdb" d="M376,-321.5C376,-321.5 498,-321.5 498,-321.5 504,-321.5 510,-327.5 510,-333.5 510,-333.5 510,-372.5 510,-372.5 510,-378.5 504,-384.5 498,-384.5 498,-384.5 376,-384.5 376,-384.5 370,-384.5 364,-378.5 364,-372.5 364,-372.5 364,-333.5 364,-333.5 364,-327.5 370,-321.5 376,-321.5"/>
<text text-anchor="middle" x="437" y="-370.9" font-family="Fira Mono" font-size="12.00">ptr: 0x503000000850</text>
<polyline fill="none" stroke="#c9fbdb" points="364,-363.5 510,-363.5 "/>
<text text-anchor="middle" x="437" y="-349.9" font-family="Fira Mono" font-size="12.00">val: maintr</text>
<polyline fill="none" stroke="#c9fbdb" points="364,-342.5 510,-342.5 "/>
<text text-anchor="middle" x="400.5" y="-328.9" font-family="Fira Mono" font-size="12.00">prev: (nil)</text>
<polyline fill="none" stroke="#c9fbdb" points="437,-321.5 437,-342.5 "/>
<text text-anchor="middle" x="473.5" y="-328.9" font-family="Fira Mono" font-size="12.00">next: (nil)</text>
</g>
<!-- node_0x5030000006d0&#45;&gt;node_0x503000000850 -->
<g id="edge5" class="edge">
<title>node_0x5030000006d0&#45;&gt;node_0x503000000850</title>
<path fill="none" stroke="#999999" d="M407.97,-428.35C412.18,-417.57 416.97,-405.29 421.44,-393.86"/>
<polygon fill="#999999" stroke="#999999" points="424.71,-395.1 425.09,-384.51 418.19,-392.55 424.71,-395.1"/>
</g>
<!-- node_0x5030000007f0 -->
<g id="node5" class="node">
<title>node_0x5030000007f0</title>
<path fill="#e8f9e5" stroke="#c9fbdb" d="M12,-214.5C12,-214.5 134,-214.5 134,-214.5 140,-214.5 146,-220.5 146,-226.5 146,-226.5 146,-265.5 146,-265.5 146,-271.5 140,-277.5 134,-277.5 134,-277.5 12,-277.5 12,-277.5 6,-277.5 0,-271.5 0,-265.5 0,-265.5 0,-226.5 0,-226.5 0,-220.5 6,-214.5 12,-214.5"/>
<text text-anchor="middle" x="73" y="-263.9" font-family="Fira Mono" font-size="12.00">ptr: 0x5030000007f0</text>
<polyline fill="none" stroke="#c9fbdb" points="0,-256.5 146,-256.5 "/>
<text text-anchor="middle" x="73" y="-242.9" font-family="Fira Mono" font-size="12.00">val: atr</text>
<polyline fill="none" stroke="#c9fbdb" points="0,-235.5 146,-235.5 "/>
<text text-anchor="middle" x="36.5" y="-221.9" font-family="Fira Mono" font-size="12.00">prev: (nil)</text>
<polyline fill="none" stroke="#c9fbdb" points="73,-214.5 73,-235.5 "/>
<text text-anchor="middle" x="109.5" y="-221.9" font-family="Fira Mono" font-size="12.00">next: (nil)</text>
</g>
<!-- node_0x503000000760&#45;&gt;node_0x5030000007f0 -->
<g id="edge6" class="edge">
<title>node_0x503000000760&#45;&gt;node_0x5030000007f0</title>
<path fill="none" stroke="#999999" d="M139.56,-321.35C129.42,-310.03 117.81,-297.06 107.15,-285.15"/>
<polygon fill="#999999" stroke="#999999" points="109.59,-282.63 100.31,-277.51 104.38,-287.29 109.59,-282.63"/>
</g>
<!-- node_0x503000000820 -->
<g id="node6" class="node">
<title>node_0x503000000820</title>
<path fill="#e8f9e5" stroke="#c9fbdb" d="M201,-214.5C201,-214.5 323,-214.5 323,-214.5 329,-214.5 335,-220.5 335,-226.5 335,-226.5 335,-265.5 335,-265.5 335,-271.5 329,-277.5 323,-277.5 323,-277.5 201,-277.5 201,-277.5 195,-277.5 189,-271.5 189,-265.5 189,-265.5 189,-226.5 189,-226.5 189,-220.5 195,-214.5 201,-214.5"/>
<text text-anchor="middle" x="262" y="-263.9" font-family="Fira Mono" font-size="12.00">ptr: 0x503000000820</text>
<polyline fill="none" stroke="#c9fbdb" points="189,-256.5 335,-256.5 "/>
<text text-anchor="middle" x="262" y="-242.9" font-family="Fira Mono" font-size="12.00">val: btr</text>
<polyline fill="none" stroke="#c9fbdb" points="189,-235.5 335,-235.5 "/>
<text text-anchor="middle" x="225.5" y="-221.9" font-family="Fira Mono" font-size="12.00">prev: (nil)</text>
<polyline fill="none" stroke="#c9fbdb" points="262,-214.5 262,-235.5 "/>
<text text-anchor="middle" x="298.5" y="-221.9" font-family="Fira Mono" font-size="12.00">next: (nil)</text>
</g>
<!-- node_0x503000000760&#45;&gt;node_0x503000000820 -->
<g id="edge7" class="edge">
<title>node_0x503000000760&#45;&gt;node_0x503000000820</title>
<path fill="none" stroke="#999999" d="M194.73,-321.35C204.98,-310.03 216.71,-297.06 227.48,-285.15"/>
<polygon fill="#999999" stroke="#999999" points="230.28,-287.27 234.4,-277.51 225.09,-282.58 230.28,-287.27"/>
</g>
<!-- node_0x5030000008b0 -->
<g id="node9" class="node">
<title>node_0x5030000008b0</title>
<path fill="#f1eafd" stroke="#8e6bd6" d="M606,-321.5C606,-321.5 810,-321.5 810,-321.5 816,-321.5 822,-327.5 822,-333.5 822,-333.5 822,-372.5 822,-372.5 822,-378.5 816,-384.5 810,-384.5 810,-384.5 606,-384.5 606,-384.5 600,-384.5 594,-378.5 594,-372.5 594,-372.5 594,-333.5 594,-333.5 594,-327.5 600,-321.5 606,-321.5"/>
<text text-anchor="middle" x="708" y="-370.9" font-family="Fira Mono" font-size="12.00">ptr: 0x5030000008b0</text>
<polyline fill="none" stroke="#8e6bd6" points="594,-363.5 822,-363.5 "/>
<text text-anchor="middle" x="708" y="-349.9" font-family="Fira Mono" font-size="12.00">val: LCAT</text>
<polyline fill="none" stroke="#8e6bd6" points="594,-342.5 822,-342.5 "/>
<text text-anchor="middle" x="671.5" y="-328.9" font-family="Fira Mono" font-size="12.00">prev: 0x5030000008e0</text>
<polyline fill="none" stroke="#8e6bd6" points="749,-321.5 749,-342.5 "/>
<text text-anchor="middle" x="785.5" y="-328.9" font-family="Fira Mono" font-size="12.00">next: (nil)</text>
</g>
<!-- node_0x503000000880&#45;&gt;node_0x5030000008b0 -->
<g id="edge8" class="edge">
<title>node_0x503000000880&#45;&gt;node_0x5030000008b0</title>
<path fill="none" stroke="#999999" d="M708,-428.35C708,-417.78 708,-405.78 708,-394.54"/>
<polygon fill="#999999" stroke="#999999" points="711.5,-394.51 708,-384.51 704.5,-394.51 711.5,-394.51"/>
</g>
<!-- node_0x5030000008e0 -->
<g id="node10" class="node">
<title>node_0x5030000008e0</title>
<path fill="#f1eafd" stroke="#8e6bd6" d="M606,-214.5C606,-214.5 810,-214.5 810,-214.5 816,-214.5 822,-220.5 822,-226.5 822,-226.5 822,-265.5 822,-265.5 822,-271.5 816,-277.5 810,-277.5 810,-277.5 606,-277.5 606,-277.5 600,-277.5 594,-271.5 594,-265.5 594,-265.5 594,-226.5 594,-226.5 594,-220.5 600,-214.5 606,-214.5"/>
<text text-anchor="middle" x="708" y="-263.9" font-family="Fira Mono" font-size="12.00">ptr: 0x5030000008e0</text>
<polyline fill="none" stroke="#8e6bd6" points="594,-256.5 822,-256.5 "/>
<text text-anchor="middle" x="708" y="-242.9" font-family="Fira Mono" font-size="12.00">val: LCAT</text>
<polyline fill="none" stroke="#8e6bd6" points="594,-235.5 822,-235.5 "/>
<text text-anchor="middle" x="671.5" y="-221.9" font-family="Fira Mono" font-size="12.00">prev: 0x503000000910</text>
<polyline fill="none" stroke="#8e6bd6" points="749,-214.5 749,-235.5 "/>
<text text-anchor="middle" x="785.5" y="-221.9" font-family="Fira Mono" font-size="12.00">next: (nil)</text>
</g>
<!-- node_0x5030000008b0&#45;&gt;node_0x5030000008e0 -->
<g id="edge9" class="edge">
<title>node_0x5030000008b0&#45;&gt;node_0x5030000008e0</title>
<path fill="none" stroke="#999999" d="M708,-321.35C708,-310.78 708,-298.78 708,-287.54"/>
<polygon fill="#999999" stroke="#999999" points="711.5,-287.51 708,-277.51 704.5,-287.51 711.5,-287.51"/>
</g>
<!-- node_0x503000000910 -->
<g id="node11" class="node">
<title>node_0x503000000910</title>
<path fill="#f1eafd" stroke="#8e6bd6" d="M565,-107.5C565,-107.5 851,-107.5 851,-107.5 857,-107.5 863,-113.5 863,-119.5 863,-119.5 863,-158.5 863,-158.5 863,-164.5 857,-170.5 851,-170.5 851,-170.5 565,-170.5 565,-170.5 559,-170.5 553,-164.5 553,-158.5 553,-158.5 553,-119.5 553,-119.5 553,-113.5 559,-107.5 565,-107.5"/>
<text text-anchor="middle" x="708" y="-156.9" font-family="Fira Mono" font-size="12.00">ptr: 0x503000000910</text>
<polyline fill="none" stroke="#8e6bd6" points="553,-149.5 863,-149.5 "/>
<text text-anchor="middle" x="708" y="-135.9" font-family="Fira Mono" font-size="12.00">val: ASSIGN</text>
<polyline fill="none" stroke="#8e6bd6" points="553,-128.5 863,-128.5 "/>
<text text-anchor="middle" x="630.5" y="-114.9" font-family="Fira Mono" font-size="12.00">prev: 0x503000000940</text>
<polyline fill="none" stroke="#8e6bd6" points="708,-107.5 708,-128.5 "/>
<text text-anchor="middle" x="785.5" y="-114.9" font-family="Fira Mono" font-size="12.00">next: 0x503000000970</text>
</g>
<!-- node_0x5030000008e0&#45;&gt;node_0x503000000910 -->
<g id="edge10" class="edge">
<title>node_0x5030000008e0&#45;&gt;node_0x503000000910</title>
<path fill="none" stroke="#999999" d="M708,-214.35C708,-203.78 708,-191.78 708,-180.54"/>
<polygon fill="#999999" stroke="#999999" points="711.5,-180.51 708,-170.51 704.5,-180.51 711.5,-180.51"/>
</g>
<!-- node_0x503000000940 -->
<g id="node12" class="node">
<title>node_0x503000000940</title>
<path fill="#e8f9e5" stroke="#c9fbdb" d="M553,-0.5C553,-0.5 675,-0.5 675,-0.5 681,-0.5 687,-6.5 687,-12.5 687,-12.5 687,-51.5 687,-51.5 687,-57.5 681,-63.5 675,-63.5 675,-63.5 553,-63.5 553,-63.5 547,-63.5 541,-57.5 541,-51.5 541,-51.5 541,-12.5 541,-12.5 541,-6.5 547,-0.5 553,-0.5"/>
<text text-anchor="middle" x="614" y="-49.9" font-family="Fira Mono" font-size="12.00">ptr: 0x503000000940</text>
<polyline fill="none" stroke="#c9fbdb" points="541,-42.5 687,-42.5 "/>
<text text-anchor="middle" x="614" y="-28.9" font-family="Fira Mono" font-size="12.00">val: xtr</text>
<polyline fill="none" stroke="#c9fbdb" points="541,-21.5 687,-21.5 "/>
<text text-anchor="middle" x="577.5" y="-7.9" font-family="Fira Mono" font-size="12.00">prev: (nil)</text>
<polyline fill="none" stroke="#c9fbdb" points="614,-0.5 614,-21.5 "/>
<text text-anchor="middle" x="650.5" y="-7.9" font-family="Fira Mono" font-size="12.00">next: (nil)</text>
</g>
<!-- node_0x503000000910&#45;&gt;node_0x503000000940 -->
<g id="edge11" class="edge">
<title>node_0x503000000910&#45;&gt;node_0x503000000940</title>
<path fill="none" stroke="#999999" d="M680.56,-107.35C670.42,-96.03 658.81,-83.06 648.15,-71.15"/>
<polygon fill="#999999" stroke="#999999" points="650.59,-68.63 641.31,-63.51 645.38,-73.29 650.59,-68.63"/>
</g>
<!-- node_0x503000000970 -->
<g id="node13" class="node">
<title>node_0x503000000970</title>
<path fill="#e8f9e5" stroke="#c9fbdb" d="M742,-0.5C742,-0.5 864,-0.5 864,-0.5 870,-0.5 876,-6.5 876,-12.5 876,-12.5 876,-51.5 876,-51.5 876,-57.5 870,-63.5 864,-63.5 864,-63.5 742,-63.5 742,-63.5 736,-63.5 730,-57.5 730,-51.5 730,-51.5 730,-12.5 730,-12.5 730,-6.5 736,-0.5 742,-0.5"/>
<text text-anchor="middle" x="803" y="-49.9" font-family="Fira Mono" font-size="12.00">ptr: 0x503000000970</text>
<polyline fill="none" stroke="#c9fbdb" points="730,-42.5 876,-42.5 "/>
<text text-anchor="middle" x="803" y="-28.9" font-family="Fira Mono" font-size="12.00">val: ADD</text>
<polyline fill="none" stroke="#c9fbdb" points="730,-21.5 876,-21.5 "/>
<text text-anchor="middle" x="766.5" y="-7.9" font-family="Fira Mono" font-size="12.00">prev: (nil)</text>
<polyline fill="none" stroke="#c9fbdb" points="803,-0.5 803,-21.5 "/>
<text text-anchor="middle" x="839.5" y="-7.9" font-family="Fira Mono" font-size="12.00">next: (nil)</text>
</g>
<!-- node_0x503000000910&#45;&gt;node_0x503000000970 -->
<g id="edge12" class="edge">
<title>node_0x503000000910&#45;&gt;node_0x503000000970</title>
<path fill="none" stroke="#999999" d="M735.73,-107.35C745.98,-96.03 757.71,-83.06 768.48,-71.15"/>
<polygon fill="#999999" stroke="#999999" points="771.28,-73.27 775.4,-63.51 766.09,-68.58 771.28,-73.27"/>
</g>
</g>
</svg>
