<?xml version="1.0" encoding="UTF-8" standalone="no"?>
<!DOCTYPE svg PUBLIC "-//W3C//DTD SVG 1.1//EN"
 "http://www.w3.org/Graphics/SVG/1.1/DTD/svg11.dtd">
<!-- Generated by graphviz version 2.43.0 (0)
 -->
<!-- Title: T Pages: 1 -->
<svg width="830pt" height="500pt"
 viewBox="0.00 0.00 830.00 500.00" xmlns="http://www.w3.org/2000/svg" xmlns:xlink="http://www.w3.org/1999/xlink">
<g id="graph0" class="graph" transform="scale(1 1) rotate(0) translate(4 496)">
<title>T</title>
<polygon fill="white" stroke="transparent" points="-4,4 -4,-496 826,-496 826,4 -4,4"/>
<!-- node_0x503000000670 -->
<g id="node1" class="node">
<title>node_0x503000000670</title>
<path fill="#e9fbf5" stroke="#5aa99b" d="M450,-428.5C450,-428.5 654,-428.5 654,-428.5 660,-428.5 666,-434.5 666,-440.5 666,-440.5 666,-479.5 666,-479.5 666,-485.5 660,-491.5 654,-491.5 654,-491.5 450,-491.5 450,-491.5 444,-491.5 438,-485.5 438,-479.5 438,-479.5 438,-440.5 438,-440.5 438,-434.5 444,-428.5 450,-428.5"/>
<text text-anchor="middle" x="552" y="-477.9" font-family="Fira Mono" font-size="12.00">ptr: 0x503000000670</text>
<polyline fill="none" stroke="#5aa99b" points="438,-470.5 666,-470.5 "/>
<text text-anchor="middle" x="552" y="-456.9" font-family="Fira Mono" font-size="12.00">val: VIS_START</text>
<polyline fill="none" stroke="#5aa99b" points="438,-449.5 666,-449.5 "/>
<text text-anchor="middle" x="515.5" y="-435.9" font-family="Fira Mono" font-size="12.00">prev: 0x5030000006a0</text>
<polyline fill="none" stroke="#5aa99b" points="593,-428.5 593,-449.5 "/>
<text text-anchor="middle" x="629.5" y="-435.9" font-family="Fira Mono" font-size="12.00">next: (nil)</text>
</g>
<!-- node_0x5030000006a0 -->
<g id="node2" class="node">
<title>node_0x5030000006a0</title>
<path fill="#f1eafd" stroke="#8e6bd6" d="M409,-321.5C409,-321.5 695,-321.5 695,-321.5 701,-321.5 707,-327.5 707,-333.5 707,-333.5 707,-372.5 707,-372.5 707,-378.5 701,-384.5 695,-384.5 695,-384.5 409,-384.5 409,-384.5 403,-384.5 397,-378.5 397,-372.5 397,-372.5 397,-333.5 397,-333.5 397,-327.5 403,-321.5 409,-321.5"/>
<text text-anchor="middle" x="552" y="-370.9" font-family="Fira Mono" font-size="12.00">ptr: 0x5030000006a0</text>
<polyline fill="none" stroke="#8e6bd6" points="397,-363.5 707,-363.5 "/>
<text text-anchor="middle" x="552" y="-349.9" font-family="Fira Mono" font-size="12.00">val: FUNC_DECL</text>
<polyline fill="none" stroke="#8e6bd6" points="397,-342.5 707,-342.5 "/>
<text text-anchor="middle" x="474.5" y="-328.9" font-family="Fira Mono" font-size="12.00">prev: 0x5030000006d0</text>
<polyline fill="none" stroke="#8e6bd6" points="552,-321.5 552,-342.5 "/>
<text text-anchor="middle" x="629.5" y="-328.9" font-family="Fira Mono" font-size="12.00">next: 0x503000000880</text>
</g>
<!-- node_0x503000000670&#45;&gt;node_0x5030000006a0 -->
<g id="edge1" class="edge">
<title>node_0x503000000670&#45;&gt;node_0x5030000006a0</title>
<path fill="none" stroke="#999999" d="M552,-428.35C552,-417.78 552,-405.78 552,-394.54"/>
<polygon fill="#999999" stroke="#999999" points="555.5,-394.51 552,-384.51 548.5,-394.51 555.5,-394.51"/>
</g>
<!-- node_0x5030000006d0 -->
<g id="node3" class="node">
<title>node_0x5030000006d0</title>
<path fill="#f1eafd" stroke="#8e6bd6" d="M253,-214.5C253,-214.5 539,-214.5 539,-214.5 545,-214.5 551,-220.5 551,-226.5 551,-226.5 551,-265.5 551,-265.5 551,-271.5 545,-277.5 539,-277.5 539,-277.5 253,-277.5 253,-277.5 247,-277.5 241,-271.5 241,-265.5 241,-265.5 241,-226.5 241,-226.5 241,-220.5 247,-214.5 253,-214.5"/>
<text text-anchor="middle" x="396" y="-263.9" font-family="Fira Mono" font-size="12.00">ptr: 0x5030000006d0</text>
<polyline fill="none" stroke="#8e6bd6" points="241,-256.5 551,-256.5 "/>
<text text-anchor="middle" x="396" y="-242.9" font-family="Fira Mono" font-size="12.00">val: FUNC_INFO</text>
<polyline fill="none" stroke="#8e6bd6" points="241,-235.5 551,-235.5 "/>
<text text-anchor="middle" x="318.5" y="-221.9" font-family="Fira Mono" font-size="12.00">prev: 0x503000000760</text>
<polyline fill="none" stroke="#8e6bd6" points="396,-214.5 396,-235.5 "/>
<text text-anchor="middle" x="473.5" y="-221.9" font-family="Fira Mono" font-size="12.00">next: 0x503000000850</text>
</g>
<!-- node_0x5030000006a0&#45;&gt;node_0x5030000006d0 -->
<g id="edge2" class="edge">
<title>node_0x5030000006a0&#45;&gt;node_0x5030000006d0</title>
<path fill="none" stroke="#999999" d="M506.46,-321.35C488.68,-309.38 468.16,-295.57 449.66,-283.12"/>
<polygon fill="#999999" stroke="#999999" points="451.58,-280.19 441.33,-277.51 447.67,-286 451.58,-280.19"/>
</g>
<!-- node_0x503000000880 -->
<g id="node8" class="node">
<title>node_0x503000000880</title>
<path fill="#f1eafd" stroke="#8e6bd6" d="M606,-214.5C606,-214.5 810,-214.5 810,-214.5 816,-214.5 822,-220.5 822,-226.5 822,-226.5 822,-265.5 822,-265.5 822,-271.5 816,-277.5 810,-277.5 810,-277.5 606,-277.5 606,-277.5 600,-277.5 594,-271.5 594,-265.5 594,-265.5 594,-226.5 594,-226.5 594,-220.5 600,-214.5 606,-214.5"/>
<text text-anchor="middle" x="708" y="-263.9" font-family="Fira Mono" font-size="12.00">ptr: 0x503000000880</text>
<polyline fill="none" stroke="#8e6bd6" points="594,-256.5 822,-256.5 "/>
<text text-anchor="middle" x="708" y="-242.9" font-family="Fira Mono" font-size="12.00">val: VIS_START</text>
<polyline fill="none" stroke="#8e6bd6" points="594,-235.5 822,-235.5 "/>
<text text-anchor="middle" x="671.5" y="-221.9" font-family="Fira Mono" font-size="12.00">prev: 0x5030000008b0</text>
<polyline fill="none" stroke="#8e6bd6" points="749,-214.5 749,-235.5 "/>
<text text-anchor="middle" x="785.5" y="-221.9" font-family="Fira Mono" font-size="12.00">next: (nil)</text>
</g>
<!-- node_0x5030000006a0&#45;&gt;node_0x503000000880 -->
<g id="edge3" class="edge">
<title>node_0x5030000006a0&#45;&gt;node_0x503000000880</title>
<path fill="none" stroke="#999999" d="M597.54,-321.35C615.32,-309.38 635.84,-295.57 654.34,-283.12"/>
<polygon fill="#999999" stroke="#999999" points="656.33,-286 662.67,-277.51 652.42,-280.19 656.33,-286"/>
</g>
<!-- node_0x503000000760 -->
<g id="node4" class="node">
<title>node_0x503000000760</title>
<path fill="#f1eafd" stroke="#8e6bd6" d="M25.5,-107.5C25.5,-107.5 308.5,-107.5 308.5,-107.5 314.5,-107.5 320.5,-113.5 320.5,-119.5 320.5,-119.5 320.5,-158.5 320.5,-158.5 320.5,-164.5 314.5,-170.5 308.5,-170.5 308.5,-170.5 25.5,-170.5 25.5,-170.5 19.5,-170.5 13.5,-164.5 13.5,-158.5 13.5,-158.5 13.5,-119.5 13.5,-119.5 13.5,-113.5 19.5,-107.5 25.5,-107.5"/>
<text text-anchor="middle" x="167" y="-156.9" font-family="Fira Mono" font-size="12.00">ptr: 0x503000000760</text>
<polyline fill="none" stroke="#8e6bd6" points="13.5,-149.5 320.5,-149.5 "/>
<text text-anchor="middle" x="167" y="-135.9" font-family="Fira Mono" font-size="12.00">val: ENUM_SEP</text>
<polyline fill="none" stroke="#8e6bd6" points="13.5,-128.5 320.5,-128.5 "/>
<text text-anchor="middle" x="89.5" y="-114.9" font-family="Fira Mono" font-size="12.00">prev: 0x5030000007f0</text>
<polyline fill="none" stroke="#8e6bd6" points="165.5,-107.5 165.5,-128.5 "/>
<text text-anchor="middle" x="243" y="-114.9" font-family="Fira Mono" font-size="12.00">next: 0x503000000820</text>
</g>
<!-- node_0x5030000006d0&#45;&gt;node_0x503000000760 -->
<g id="edge4" class="edge">
<title>node_0x5030000006d0&#45;&gt;node_0x503000000760</title>
<path fill="none" stroke="#999999" d="M329.46,-214.49C302.41,-202.09 271,-187.68 243.04,-174.87"/>
<polygon fill="#999999" stroke="#999999" points="244.26,-171.57 233.71,-170.59 241.34,-177.94 244.26,-171.57"/>
</g>
<!-- node_0x503000000850 -->
<g id="node7" class="node">
<title>node_0x503000000850</title>
<path fill="#e8f9e5" stroke="#c9fbdb" d="M376,-107.5C376,-107.5 498,-107.5 498,-107.5 504,-107.5 510,-113.5 510,-119.5 510,-119.5 510,-158.5 510,-158.5 510,-164.5 504,-170.5 498,-170.5 498,-170.5 376,-170.5 376,-170.5 370,-170.5 364,-164.5 364,-158.5 364,-158.5 364,-119.5 364,-119.5 364,-113.5 370,-107.5 376,-107.5"/>
<text text-anchor="middle" x="437" y="-156.9" font-family="Fira Mono" font-size="12.00">ptr: 0x503000000850</text>
<polyline fill="none" stroke="#c9fbdb" points="364,-149.5 510,-149.5 "/>
<text text-anchor="middle" x="437" y="-135.9" font-family="Fira Mono" font-size="12.00">val: maintr</text>
<polyline fill="none" stroke="#c9fbdb" points="364,-128.5 510,-128.5 "/>
<text text-anchor="middle" x="400.5" y="-114.9" font-family="Fira Mono" font-size="12.00">prev: (nil)</text>
<polyline fill="none" stroke="#c9fbdb" points="437,-107.5 437,-128.5 "/>
<text text-anchor="middle" x="473.5" y="-114.9" font-family="Fira Mono" font-size="12.00">next: (nil)</text>
</g>
<!-- node_0x5030000006d0&#45;&gt;node_0x503000000850 -->
<g id="edge5" class="edge">
<title>node_0x5030000006d0&#45;&gt;node_0x503000000850</title>
<path fill="none" stroke="#999999" d="M407.97,-214.35C412.18,-203.57 416.97,-191.29 421.44,-179.86"/>
<polygon fill="#999999" stroke="#999999" points="424.71,-181.1 425.09,-170.51 418.19,-178.55 424.71,-181.1"/>
</g>
<!-- node_0x5030000007f0 -->
<g id="node5" class="node">
<title>node_0x5030000007f0</title>
<path fill="#e8f9e5" stroke="#c9fbdb" d="M12,-0.5C12,-0.5 134,-0.5 134,-0.5 140,-0.5 146,-6.5 146,-12.5 146,-12.5 146,-51.5 146,-51.5 146,-57.5 140,-63.5 134,-63.5 134,-63.5 12,-63.5 12,-63.5 6,-63.5 0,-57.5 0,-51.5 0,-51.5 0,-12.5 0,-12.5 0,-6.5 6,-0.5 12,-0.5"/>
<text text-anchor="middle" x="73" y="-49.9" font-family="Fira Mono" font-size="12.00">ptr: 0x5030000007f0</text>
<polyline fill="none" stroke="#c9fbdb" points="0,-42.5 146,-42.5 "/>
<text text-anchor="middle" x="73" y="-28.9" font-family="Fira Mono" font-size="12.00">val: atr</text>
<polyline fill="none" stroke="#c9fbdb" points="0,-21.5 146,-21.5 "/>
<text text-anchor="middle" x="36.5" y="-7.9" font-family="Fira Mono" font-size="12.00">prev: (nil)</text>
<polyline fill="none" stroke="#c9fbdb" points="73,-0.5 73,-21.5 "/>
<text text-anchor="middle" x="109.5" y="-7.9" font-family="Fira Mono" font-size="12.00">next: (nil)</text>
</g>
<!-- node_0x503000000760&#45;&gt;node_0x5030000007f0 -->
<g id="edge6" class="edge">
<title>node_0x503000000760&#45;&gt;node_0x5030000007f0</title>
<path fill="none" stroke="#999999" d="M139.56,-107.35C129.42,-96.03 117.81,-83.06 107.15,-71.15"/>
<polygon fill="#999999" stroke="#999999" points="109.59,-68.63 100.31,-63.51 104.38,-73.29 109.59,-68.63"/>
</g>
<!-- node_0x503000000820 -->
<g id="node6" class="node">
<title>node_0x503000000820</title>
<path fill="#e8f9e5" stroke="#c9fbdb" d="M201,-0.5C201,-0.5 323,-0.5 323,-0.5 329,-0.5 335,-6.5 335,-12.5 335,-12.5 335,-51.5 335,-51.5 335,-57.5 329,-63.5 323,-63.5 323,-63.5 201,-63.5 201,-63.5 195,-63.5 189,-57.5 189,-51.5 189,-51.5 189,-12.5 189,-12.5 189,-6.5 195,-0.5 201,-0.5"/>
<text text-anchor="middle" x="262" y="-49.9" font-family="Fira Mono" font-size="12.00">ptr: 0x503000000820</text>
<polyline fill="none" stroke="#c9fbdb" points="189,-42.5 335,-42.5 "/>
<text text-anchor="middle" x="262" y="-28.9" font-family="Fira Mono" font-size="12.00">val: btr</text>
<polyline fill="none" stroke="#c9fbdb" points="189,-21.5 335,-21.5 "/>
<text text-anchor="middle" x="225.5" y="-7.9" font-family="Fira Mono" font-size="12.00">prev: (nil)</text>
<polyline fill="none" stroke="#c9fbdb" points="262,-0.5 262,-21.5 "/>
<text text-anchor="middle" x="298.5" y="-7.9" font-family="Fira Mono" font-size="12.00">next: (nil)</text>
</g>
<!-- node_0x503000000760&#45;&gt;node_0x503000000820 -->
<g id="edge7" class="edge">
<title>node_0x503000000760&#45;&gt;node_0x503000000820</title>
<path fill="none" stroke="#999999" d="M194.73,-107.35C204.98,-96.03 216.71,-83.06 227.48,-71.15"/>
<polygon fill="#999999" stroke="#999999" points="230.28,-73.27 234.4,-63.51 225.09,-68.58 230.28,-73.27"/>
</g>
<!-- node_0x5030000008b0 -->
<g id="node9" class="node">
<title>node_0x5030000008b0</title>
<path fill="#f1eafd" stroke="#8e6bd6" d="M606,-107.5C606,-107.5 810,-107.5 810,-107.5 816,-107.5 822,-113.5 822,-119.5 822,-119.5 822,-158.5 822,-158.5 822,-164.5 816,-170.5 810,-170.5 810,-170.5 606,-170.5 606,-170.5 600,-170.5 594,-164.5 594,-158.5 594,-158.5 594,-119.5 594,-119.5 594,-113.5 600,-107.5 606,-107.5"/>
<text text-anchor="middle" x="708" y="-156.9" font-family="Fira Mono" font-size="12.00">ptr: 0x5030000008b0</text>
<polyline fill="none" stroke="#8e6bd6" points="594,-149.5 822,-149.5 "/>
<text text-anchor="middle" x="708" y="-135.9" font-family="Fira Mono" font-size="12.00">val: LCAT</text>
<polyline fill="none" stroke="#8e6bd6" points="594,-128.5 822,-128.5 "/>
<text text-anchor="middle" x="671.5" y="-114.9" font-family="Fira Mono" font-size="12.00">prev: 0x5030000008e0</text>
<polyline fill="none" stroke="#8e6bd6" points="749,-107.5 749,-128.5 "/>
<text text-anchor="middle" x="785.5" y="-114.9" font-family="Fira Mono" font-size="12.00">next: (nil)</text>
</g>
<!-- node_0x503000000880&#45;&gt;node_0x5030000008b0 -->
<g id="edge8" class="edge">
<title>node_0x503000000880&#45;&gt;node_0x5030000008b0</title>
<path fill="none" stroke="#999999" d="M708,-214.35C708,-203.78 708,-191.78 708,-180.54"/>
<polygon fill="#999999" stroke="#999999" points="711.5,-180.51 708,-170.51 704.5,-180.51 711.5,-180.51"/>
</g>
<!-- node_0x5030000008e0 -->
<g id="node10" class="node">
<title>node_0x5030000008e0</title>
<path fill="#e8f9e5" stroke="#c9fbdb" d="M647,-0.5C647,-0.5 769,-0.5 769,-0.5 775,-0.5 781,-6.5 781,-12.5 781,-12.5 781,-51.5 781,-51.5 781,-57.5 775,-63.5 769,-63.5 769,-63.5 647,-63.5 647,-63.5 641,-63.5 635,-57.5 635,-51.5 635,-51.5 635,-12.5 635,-12.5 635,-6.5 641,-0.5 647,-0.5"/>
<text text-anchor="middle" x="708" y="-49.9" font-family="Fira Mono" font-size="12.00">ptr: 0x5030000008e0</text>
<polyline fill="none" stroke="#c9fbdb" points="635,-42.5 781,-42.5 "/>
<text text-anchor="middle" x="708" y="-28.9" font-family="Fira Mono" font-size="12.00">val: LCAT</text>
<polyline fill="none" stroke="#c9fbdb" points="635,-21.5 781,-21.5 "/>
<text text-anchor="middle" x="671.5" y="-7.9" font-family="Fira Mono" font-size="12.00">prev: (nil)</text>
<polyline fill="none" stroke="#c9fbdb" points="708,-0.5 708,-21.5 "/>
<text text-anchor="middle" x="744.5" y="-7.9" font-family="Fira Mono" font-size="12.00">next: (nil)</text>
</g>
<!-- node_0x5030000008b0&#45;&gt;node_0x5030000008e0 -->
<g id="edge9" class="edge">
<title>node_0x5030000008b0&#45;&gt;node_0x5030000008e0</title>
<path fill="none" stroke="#999999" d="M708,-107.35C708,-96.78 708,-84.78 708,-73.54"/>
<polygon fill="#999999" stroke="#999999" points="711.5,-73.51 708,-63.51 704.5,-73.51 711.5,-73.51"/>
</g>
</g>
</svg>
