<?xml version="1.0" encoding="UTF-8" standalone="no"?>
<!DOCTYPE svg PUBLIC "-//W3C//DTD SVG 1.1//EN"
 "http://www.w3.org/Graphics/SVG/1.1/DTD/svg11.dtd">
<!-- Generated by graphviz version 2.43.0 (0)
 -->
<!-- Title: T Pages: 1 -->
<svg width="809pt" height="500pt"
 viewBox="0.00 0.00 809.00 500.00" xmlns="http://www.w3.org/2000/svg" xmlns:xlink="http://www.w3.org/1999/xlink">
<g id="graph0" class="graph" transform="scale(1 1) rotate(0) translate(4 496)">
<title>T</title>
<polygon fill="white" stroke="transparent" points="-4,4 -4,-496 805,-496 805,4 -4,4"/>
<!-- node_0x503000000670 -->
<g id="node1" class="node">
<title>node_0x503000000670</title>
<path fill="#e9fbf5" stroke="#5aa99b" d="M429,-428.5C429,-428.5 633,-428.5 633,-428.5 639,-428.5 645,-434.5 645,-440.5 645,-440.5 645,-479.5 645,-479.5 645,-485.5 639,-491.5 633,-491.5 633,-491.5 429,-491.5 429,-491.5 423,-491.5 417,-485.5 417,-479.5 417,-479.5 417,-440.5 417,-440.5 417,-434.5 423,-428.5 429,-428.5"/>
<text text-anchor="middle" x="531" y="-477.9" font-family="Fira Mono" font-size="12.00">ptr: 0x503000000670</text>
<polyline fill="none" stroke="#5aa99b" points="417,-470.5 645,-470.5 "/>
<text text-anchor="middle" x="531" y="-456.9" font-family="Fira Mono" font-size="12.00">val: VIS_START</text>
<polyline fill="none" stroke="#5aa99b" points="417,-449.5 645,-449.5 "/>
<text text-anchor="middle" x="494.5" y="-435.9" font-family="Fira Mono" font-size="12.00">prev: 0x5030000006a0</text>
<polyline fill="none" stroke="#5aa99b" points="572,-428.5 572,-449.5 "/>
<text text-anchor="middle" x="608.5" y="-435.9" font-family="Fira Mono" font-size="12.00">next: (nil)</text>
</g>
<!-- node_0x5030000006a0 -->
<g id="node2" class="node">
<title>node_0x5030000006a0</title>
<path fill="#f1eafd" stroke="#8e6bd6" d="M388,-321.5C388,-321.5 674,-321.5 674,-321.5 680,-321.5 686,-327.5 686,-333.5 686,-333.5 686,-372.5 686,-372.5 686,-378.5 680,-384.5 674,-384.5 674,-384.5 388,-384.5 388,-384.5 382,-384.5 376,-378.5 376,-372.5 376,-372.5 376,-333.5 376,-333.5 376,-327.5 382,-321.5 388,-321.5"/>
<text text-anchor="middle" x="531" y="-370.9" font-family="Fira Mono" font-size="12.00">ptr: 0x5030000006a0</text>
<polyline fill="none" stroke="#8e6bd6" points="376,-363.5 686,-363.5 "/>
<text text-anchor="middle" x="531" y="-349.9" font-family="Fira Mono" font-size="12.00">val: FUNC_DECL</text>
<polyline fill="none" stroke="#8e6bd6" points="376,-342.5 686,-342.5 "/>
<text text-anchor="middle" x="453.5" y="-328.9" font-family="Fira Mono" font-size="12.00">prev: 0x5030000006d0</text>
<polyline fill="none" stroke="#8e6bd6" points="531,-321.5 531,-342.5 "/>
<text text-anchor="middle" x="608.5" y="-328.9" font-family="Fira Mono" font-size="12.00">next: 0x503000000880</text>
</g>
<!-- node_0x503000000670&#45;&gt;node_0x5030000006a0 -->
<g id="edge1" class="edge">
<title>node_0x503000000670&#45;&gt;node_0x5030000006a0</title>
<path fill="none" stroke="#999999" d="M531,-428.35C531,-417.78 531,-405.78 531,-394.54"/>
<polygon fill="#999999" stroke="#999999" points="534.5,-394.51 531,-384.51 527.5,-394.51 534.5,-394.51"/>
</g>
<!-- node_0x5030000006d0 -->
<g id="node3" class="node">
<title>node_0x5030000006d0</title>
<path fill="#f1eafd" stroke="#8e6bd6" d="M232,-214.5C232,-214.5 518,-214.5 518,-214.5 524,-214.5 530,-220.5 530,-226.5 530,-226.5 530,-265.5 530,-265.5 530,-271.5 524,-277.5 518,-277.5 518,-277.5 232,-277.5 232,-277.5 226,-277.5 220,-271.5 220,-265.5 220,-265.5 220,-226.5 220,-226.5 220,-220.5 226,-214.5 232,-214.5"/>
<text text-anchor="middle" x="375" y="-263.9" font-family="Fira Mono" font-size="12.00">ptr: 0x5030000006d0</text>
<polyline fill="none" stroke="#8e6bd6" points="220,-256.5 530,-256.5 "/>
<text text-anchor="middle" x="375" y="-242.9" font-family="Fira Mono" font-size="12.00">val: FUNC_INFO</text>
<polyline fill="none" stroke="#8e6bd6" points="220,-235.5 530,-235.5 "/>
<text text-anchor="middle" x="297.5" y="-221.9" font-family="Fira Mono" font-size="12.00">prev: 0x503000000760</text>
<polyline fill="none" stroke="#8e6bd6" points="375,-214.5 375,-235.5 "/>
<text text-anchor="middle" x="452.5" y="-221.9" font-family="Fira Mono" font-size="12.00">next: 0x503000000850</text>
</g>
<!-- node_0x5030000006a0&#45;&gt;node_0x5030000006d0 -->
<g id="edge2" class="edge">
<title>node_0x5030000006a0&#45;&gt;node_0x5030000006d0</title>
<path fill="none" stroke="#999999" d="M485.46,-321.35C467.68,-309.38 447.16,-295.57 428.66,-283.12"/>
<polygon fill="#999999" stroke="#999999" points="430.58,-280.19 420.33,-277.51 426.67,-286 430.58,-280.19"/>
</g>
<!-- node_0x503000000880 -->
<g id="node8" class="node">
<title>node_0x503000000880</title>
<path fill="#f1eafd" stroke="#8e6bd6" d="M585,-214.5C585,-214.5 789,-214.5 789,-214.5 795,-214.5 801,-220.5 801,-226.5 801,-226.5 801,-265.5 801,-265.5 801,-271.5 795,-277.5 789,-277.5 789,-277.5 585,-277.5 585,-277.5 579,-277.5 573,-271.5 573,-265.5 573,-265.5 573,-226.5 573,-226.5 573,-220.5 579,-214.5 585,-214.5"/>
<text text-anchor="middle" x="687" y="-263.9" font-family="Fira Mono" font-size="12.00">ptr: 0x503000000880</text>
<polyline fill="none" stroke="#8e6bd6" points="573,-256.5 801,-256.5 "/>
<text text-anchor="middle" x="687" y="-242.9" font-family="Fira Mono" font-size="12.00">val: VIS_START</text>
<polyline fill="none" stroke="#8e6bd6" points="573,-235.5 801,-235.5 "/>
<text text-anchor="middle" x="650.5" y="-221.9" font-family="Fira Mono" font-size="12.00">prev: 0x5030000008b0</text>
<polyline fill="none" stroke="#8e6bd6" points="728,-214.5 728,-235.5 "/>
<text text-anchor="middle" x="764.5" y="-221.9" font-family="Fira Mono" font-size="12.00">next: (nil)</text>
</g>
<!-- node_0x5030000006a0&#45;&gt;node_0x503000000880 -->
<g id="edge3" class="edge">
<title>node_0x5030000006a0&#45;&gt;node_0x503000000880</title>
<path fill="none" stroke="#999999" d="M576.54,-321.35C594.32,-309.38 614.84,-295.57 633.34,-283.12"/>
<polygon fill="#999999" stroke="#999999" points="635.33,-286 641.67,-277.51 631.42,-280.19 635.33,-286"/>
</g>
<!-- node_0x503000000760 -->
<g id="node4" class="node">
<title>node_0x503000000760</title>
<path fill="#f1eafd" stroke="#8e6bd6" d="M25.5,-107.5C25.5,-107.5 308.5,-107.5 308.5,-107.5 314.5,-107.5 320.5,-113.5 320.5,-119.5 320.5,-119.5 320.5,-158.5 320.5,-158.5 320.5,-164.5 314.5,-170.5 308.5,-170.5 308.5,-170.5 25.5,-170.5 25.5,-170.5 19.5,-170.5 13.5,-164.5 13.5,-158.5 13.5,-158.5 13.5,-119.5 13.5,-119.5 13.5,-113.5 19.5,-107.5 25.5,-107.5"/>
<text text-anchor="middle" x="167" y="-156.9" font-family="Fira Mono" font-size="12.00">ptr: 0x503000000760</text>
<polyline fill="none" stroke="#8e6bd6" points="13.5,-149.5 320.5,-149.5 "/>
<text text-anchor="middle" x="167" y="-135.9" font-family="Fira Mono" font-size="12.00">val: ENUM_SEP</text>
<polyline fill="none" stroke="#8e6bd6" points="13.5,-128.5 320.5,-128.5 "/>
<text text-anchor="middle" x="89.5" y="-114.9" font-family="Fira Mono" font-size="12.00">prev: 0x5030000007f0</text>
<polyline fill="none" stroke="#8e6bd6" points="165.5,-107.5 165.5,-128.5 "/>
<text text-anchor="middle" x="243" y="-114.9" font-family="Fira Mono" font-size="12.00">next: 0x503000000820</text>
</g>
<!-- node_0x5030000006d0&#45;&gt;node_0x503000000760 -->
<g id="edge4" class="edge">
<title>node_0x5030000006d0&#45;&gt;node_0x503000000760</title>
<path fill="none" stroke="#999999" d="M314.56,-214.49C290.2,-202.19 261.95,-187.93 236.73,-175.2"/>
<polygon fill="#999999" stroke="#999999" points="238.1,-171.97 227.59,-170.59 234.94,-178.22 238.1,-171.97"/>
</g>
<!-- node_0x503000000850 -->
<g id="node7" class="node">
<title>node_0x503000000850</title>
<path fill="#e8f9e5" stroke="#c9fbdb" d="M376,-107.5C376,-107.5 498,-107.5 498,-107.5 504,-107.5 510,-113.5 510,-119.5 510,-119.5 510,-158.5 510,-158.5 510,-164.5 504,-170.5 498,-170.5 498,-170.5 376,-170.5 376,-170.5 370,-170.5 364,-164.5 364,-158.5 364,-158.5 364,-119.5 364,-119.5 364,-113.5 370,-107.5 376,-107.5"/>
<text text-anchor="middle" x="437" y="-156.9" font-family="Fira Mono" font-size="12.00">ptr: 0x503000000850</text>
<polyline fill="none" stroke="#c9fbdb" points="364,-149.5 510,-149.5 "/>
<text text-anchor="middle" x="437" y="-135.9" font-family="Fira Mono" font-size="12.00">val: maintr</text>
<polyline fill="none" stroke="#c9fbdb" points="364,-128.5 510,-128.5 "/>
<text text-anchor="middle" x="400.5" y="-114.9" font-family="Fira Mono" font-size="12.00">prev: (nil)</text>
<polyline fill="none" stroke="#c9fbdb" points="437,-107.5 437,-128.5 "/>
<text text-anchor="middle" x="473.5" y="-114.9" font-family="Fira Mono" font-size="12.00">next: (nil)</text>
</g>
<!-- node_0x5030000006d0&#45;&gt;node_0x503000000850 -->
<g id="edge5" class="edge">
<title>node_0x5030000006d0&#45;&gt;node_0x503000000850</title>
<path fill="none" stroke="#999999" d="M393.1,-214.35C399.59,-203.35 407.01,-190.79 413.87,-179.17"/>
<polygon fill="#999999" stroke="#999999" points="416.91,-180.9 418.99,-170.51 410.89,-177.34 416.91,-180.9"/>
</g>
<!-- node_0x5030000007f0 -->
<g id="node5" class="node">
<title>node_0x5030000007f0</title>
<path fill="#e8f9e5" stroke="#c9fbdb" d="M12,-0.5C12,-0.5 134,-0.5 134,-0.5 140,-0.5 146,-6.5 146,-12.5 146,-12.5 146,-51.5 146,-51.5 146,-57.5 140,-63.5 134,-63.5 134,-63.5 12,-63.5 12,-63.5 6,-63.5 0,-57.5 0,-51.5 0,-51.5 0,-12.5 0,-12.5 0,-6.5 6,-0.5 12,-0.5"/>
<text text-anchor="middle" x="73" y="-49.9" font-family="Fira Mono" font-size="12.00">ptr: 0x5030000007f0</text>
<polyline fill="none" stroke="#c9fbdb" points="0,-42.5 146,-42.5 "/>
<text text-anchor="middle" x="73" y="-28.9" font-family="Fira Mono" font-size="12.00">val: atr</text>
<polyline fill="none" stroke="#c9fbdb" points="0,-21.5 146,-21.5 "/>
<text text-anchor="middle" x="36.5" y="-7.9" font-family="Fira Mono" font-size="12.00">prev: (nil)</text>
<polyline fill="none" stroke="#c9fbdb" points="73,-0.5 73,-21.5 "/>
<text text-anchor="middle" x="109.5" y="-7.9" font-family="Fira Mono" font-size="12.00">next: (nil)</text>
</g>
<!-- node_0x503000000760&#45;&gt;node_0x5030000007f0 -->
<g id="edge6" class="edge">
<title>node_0x503000000760&#45;&gt;node_0x5030000007f0</title>
<path fill="none" stroke="#999999" d="M139.56,-107.35C129.42,-96.03 117.81,-83.06 107.15,-71.15"/>
<polygon fill="#999999" stroke="#999999" points="109.59,-68.63 100.31,-63.51 104.38,-73.29 109.59,-68.63"/>
</g>
<!-- node_0x503000000820 -->
<g id="node6" class="node">
<title>node_0x503000000820</title>
<path fill="#e8f9e5" stroke="#c9fbdb" d="M201,-0.5C201,-0.5 323,-0.5 323,-0.5 329,-0.5 335,-6.5 335,-12.5 335,-12.5 335,-51.5 335,-51.5 335,-57.5 329,-63.5 323,-63.5 323,-63.5 201,-63.5 201,-63.5 195,-63.5 189,-57.5 189,-51.5 189,-51.5 189,-12.5 189,-12.5 189,-6.5 195,-0.5 201,-0.5"/>
<text text-anchor="middle" x="262" y="-49.9" font-family="Fira Mono" font-size="12.00">ptr: 0x503000000820</text>
<polyline fill="none" stroke="#c9fbdb" points="189,-42.5 335,-42.5 "/>
<text text-anchor="middle" x="262" y="-28.9" font-family="Fira Mono" font-size="12.00">val: btr</text>
<polyline fill="none" stroke="#c9fbdb" points="189,-21.5 335,-21.5 "/>
<text text-anchor="middle" x="225.5" y="-7.9" font-family="Fira Mono" font-size="12.00">prev: (nil)</text>
<polyline fill="none" stroke="#c9fbdb" points="262,-0.5 262,-21.5 "/>
<text text-anchor="middle" x="298.5" y="-7.9" font-family="Fira Mono" font-size="12.00">next: (nil)</text>
</g>
<!-- node_0x503000000760&#45;&gt;node_0x503000000820 -->
<g id="edge7" class="edge">
<title>node_0x503000000760&#45;&gt;node_0x503000000820</title>
<path fill="none" stroke="#999999" d="M194.73,-107.35C204.98,-96.03 216.71,-83.06 227.48,-71.15"/>
<polygon fill="#999999" stroke="#999999" points="230.28,-73.27 234.4,-63.51 225.09,-68.58 230.28,-73.27"/>
</g>
<!-- node_0x5030000008b0 -->
<g id="node9" class="node">
<title>node_0x5030000008b0</title>
<path fill="#e8f9e5" stroke="#c9fbdb" d="M626,-107.5C626,-107.5 748,-107.5 748,-107.5 754,-107.5 760,-113.5 760,-119.5 760,-119.5 760,-158.5 760,-158.5 760,-164.5 754,-170.5 748,-170.5 748,-170.5 626,-170.5 626,-170.5 620,-170.5 614,-164.5 614,-158.5 614,-158.5 614,-119.5 614,-119.5 614,-113.5 620,-107.5 626,-107.5"/>
<text text-anchor="middle" x="687" y="-156.9" font-family="Fira Mono" font-size="12.00">ptr: 0x5030000008b0</text>
<polyline fill="none" stroke="#c9fbdb" points="614,-149.5 760,-149.5 "/>
<text text-anchor="middle" x="687" y="-135.9" font-family="Fira Mono" font-size="12.00">val: LCAT</text>
<polyline fill="none" stroke="#c9fbdb" points="614,-128.5 760,-128.5 "/>
<text text-anchor="middle" x="650.5" y="-114.9" font-family="Fira Mono" font-size="12.00">prev: (nil)</text>
<polyline fill="none" stroke="#c9fbdb" points="687,-107.5 687,-128.5 "/>
<text text-anchor="middle" x="723.5" y="-114.9" font-family="Fira Mono" font-size="12.00">next: (nil)</text>
</g>
<!-- node_0x503000000880&#45;&gt;node_0x5030000008b0 -->
<g id="edge8" class="edge">
<title>node_0x503000000880&#45;&gt;node_0x5030000008b0</title>
<path fill="none" stroke="#999999" d="M687,-214.35C687,-203.78 687,-191.78 687,-180.54"/>
<polygon fill="#999999" stroke="#999999" points="690.5,-180.51 687,-170.51 683.5,-180.51 690.5,-180.51"/>
</g>
</g>
</svg>
