<?xml version="1.0" encoding="UTF-8" standalone="no"?>
<!DOCTYPE svg PUBLIC "-//W3C//DTD SVG 1.1//EN"
 "http://www.w3.org/Graphics/SVG/1.1/DTD/svg11.dtd">
<!-- Generated by graphviz version 2.43.0 (0)
 -->
<!-- Title: T Pages: 1 -->
<svg width="343pt" height="286pt"
 viewBox="0.00 0.00 343.00 286.00" xmlns="http://www.w3.org/2000/svg" xmlns:xlink="http://www.w3.org/1999/xlink">
<g id="graph0" class="graph" transform="scale(1 1) rotate(0) translate(4 282)">
<title>T</title>
<polygon fill="white" stroke="transparent" points="-4,4 -4,-282 339,-282 339,4 -4,4"/>
<!-- node_0x503000000310 -->
<g id="node1" class="node">
<title>node_0x503000000310</title>
<path fill="#e9fbf5" stroke="#5aa99b" d="M24,-214.5C24,-214.5 310,-214.5 310,-214.5 316,-214.5 322,-220.5 322,-226.5 322,-226.5 322,-265.5 322,-265.5 322,-271.5 316,-277.5 310,-277.5 310,-277.5 24,-277.5 24,-277.5 18,-277.5 12,-271.5 12,-265.5 12,-265.5 12,-226.5 12,-226.5 12,-220.5 18,-214.5 24,-214.5"/>
<text text-anchor="middle" x="167" y="-263.9" font-family="Fira Mono" font-size="12.00">ptr: 0x503000000310</text>
<polyline fill="none" stroke="#5aa99b" points="12,-256.5 322,-256.5 "/>
<text text-anchor="middle" x="167" y="-242.9" font-family="Fira Mono" font-size="12.00">val: VIS_START</text>
<polyline fill="none" stroke="#5aa99b" points="12,-235.5 322,-235.5 "/>
<text text-anchor="middle" x="89.5" y="-221.9" font-family="Fira Mono" font-size="12.00">prev: 0x503000000340</text>
<polyline fill="none" stroke="#5aa99b" points="167,-214.5 167,-235.5 "/>
<text text-anchor="middle" x="244.5" y="-221.9" font-family="Fira Mono" font-size="12.00">next: 0x503000000340</text>
</g>
<!-- node_0x503000000340 -->
<g id="node2" class="node">
<title>node_0x503000000340</title>
<path fill="#f1eafd" stroke="#8e6bd6" d="M24,-107.5C24,-107.5 310,-107.5 310,-107.5 316,-107.5 322,-113.5 322,-119.5 322,-119.5 322,-158.5 322,-158.5 322,-164.5 316,-170.5 310,-170.5 310,-170.5 24,-170.5 24,-170.5 18,-170.5 12,-164.5 12,-158.5 12,-158.5 12,-119.5 12,-119.5 12,-113.5 18,-107.5 24,-107.5"/>
<text text-anchor="middle" x="167" y="-156.9" font-family="Fira Mono" font-size="12.00">ptr: 0x503000000340</text>
<polyline fill="none" stroke="#8e6bd6" points="12,-149.5 322,-149.5 "/>
<text text-anchor="middle" x="167" y="-135.9" font-family="Fira Mono" font-size="12.00">val: ASSIGN</text>
<polyline fill="none" stroke="#8e6bd6" points="12,-128.5 322,-128.5 "/>
<text text-anchor="middle" x="89.5" y="-114.9" font-family="Fira Mono" font-size="12.00">prev: 0x5030000003a0</text>
<polyline fill="none" stroke="#8e6bd6" points="167,-107.5 167,-128.5 "/>
<text text-anchor="middle" x="244.5" y="-114.9" font-family="Fira Mono" font-size="12.00">next: 0x503000000460</text>
</g>
<!-- node_0x503000000310&#45;&gt;node_0x503000000340 -->
<g id="edge1" class="edge">
<title>node_0x503000000310&#45;&gt;node_0x503000000340</title>
<path fill="none" stroke="#999999" d="M152.53,-214.35C151.22,-203.78 150.91,-191.78 151.62,-180.54"/>
<polygon fill="#999999" stroke="#999999" points="155.11,-180.79 152.55,-170.51 148.14,-180.14 155.11,-180.79"/>
</g>
<!-- node_0x503000000310&#45;&gt;node_0x503000000340 -->
<g id="edge2" class="edge">
<title>node_0x503000000310&#45;&gt;node_0x503000000340</title>
<path fill="none" stroke="#999999" d="M182.16,-214.35C183.53,-203.78 183.85,-191.78 183.11,-180.54"/>
<polygon fill="#999999" stroke="#999999" points="186.59,-180.12 182.14,-170.51 179.62,-180.8 186.59,-180.12"/>
</g>
<!-- node_0x5030000003a0 -->
<g id="node3" class="node">
<title>node_0x5030000003a0</title>
<path fill="#e8f9e5" stroke="#c9fbdb" d="M12,-0.5C12,-0.5 134,-0.5 134,-0.5 140,-0.5 146,-6.5 146,-12.5 146,-12.5 146,-51.5 146,-51.5 146,-57.5 140,-63.5 134,-63.5 134,-63.5 12,-63.5 12,-63.5 6,-63.5 0,-57.5 0,-51.5 0,-51.5 0,-12.5 0,-12.5 0,-6.5 6,-0.5 12,-0.5"/>
<text text-anchor="middle" x="73" y="-49.9" font-family="Fira Mono" font-size="12.00">ptr: 0x5030000003a0</text>
<polyline fill="none" stroke="#c9fbdb" points="0,-42.5 146,-42.5 "/>
<text text-anchor="middle" x="73" y="-28.9" font-family="Fira Mono" font-size="12.00">val: xtr</text>
<polyline fill="none" stroke="#c9fbdb" points="0,-21.5 146,-21.5 "/>
<text text-anchor="middle" x="36.5" y="-7.9" font-family="Fira Mono" font-size="12.00">prev: (nil)</text>
<polyline fill="none" stroke="#c9fbdb" points="73,-0.5 73,-21.5 "/>
<text text-anchor="middle" x="109.5" y="-7.9" font-family="Fira Mono" font-size="12.00">next: (nil)</text>
</g>
<!-- node_0x503000000340&#45;&gt;node_0x5030000003a0 -->
<g id="edge3" class="edge">
<title>node_0x503000000340&#45;&gt;node_0x5030000003a0</title>
<path fill="none" stroke="#999999" d="M125.09,-107.35C113.66,-96.13 101.91,-83.3 92.22,-71.49"/>
<polygon fill="#999999" stroke="#999999" points="94.83,-69.15 85.86,-63.51 89.35,-73.51 94.83,-69.15"/>
</g>
<!-- node_0x503000000340&#45;&gt;node_0x5030000003a0 -->
<g id="edge5" class="edge">
<title>node_0x503000000340&#45;&gt;node_0x5030000003a0</title>
<path fill="none" stroke="#999999" d="M154.72,-107.35C145.97,-95.92 134.49,-82.81 122.76,-70.81"/>
<polygon fill="#999999" stroke="#999999" points="125,-68.1 115.45,-63.51 120.05,-73.05 125,-68.1"/>
</g>
<!-- node_0x503000000460 -->
<g id="node4" class="node">
<title>node_0x503000000460</title>
<path fill="#e8f9e5" stroke="#c9fbdb" d="M201,-0.5C201,-0.5 323,-0.5 323,-0.5 329,-0.5 335,-6.5 335,-12.5 335,-12.5 335,-51.5 335,-51.5 335,-57.5 329,-63.5 323,-63.5 323,-63.5 201,-63.5 201,-63.5 195,-63.5 189,-57.5 189,-51.5 189,-51.5 189,-12.5 189,-12.5 189,-6.5 195,-0.5 201,-0.5"/>
<text text-anchor="middle" x="262" y="-49.9" font-family="Fira Mono" font-size="12.00">ptr: 0x503000000460</text>
<polyline fill="none" stroke="#c9fbdb" points="189,-42.5 335,-42.5 "/>
<text text-anchor="middle" x="262" y="-28.9" font-family="Fira Mono" font-size="12.00">val: 5.000000</text>
<polyline fill="none" stroke="#c9fbdb" points="189,-21.5 335,-21.5 "/>
<text text-anchor="middle" x="225.5" y="-7.9" font-family="Fira Mono" font-size="12.00">prev: (nil)</text>
<polyline fill="none" stroke="#c9fbdb" points="262,-0.5 262,-21.5 "/>
<text text-anchor="middle" x="298.5" y="-7.9" font-family="Fira Mono" font-size="12.00">next: (nil)</text>
</g>
<!-- node_0x503000000340&#45;&gt;node_0x503000000460 -->
<g id="edge4" class="edge">
<title>node_0x503000000340&#45;&gt;node_0x503000000460</title>
<path fill="none" stroke="#999999" d="M180.26,-107.35C189.19,-95.92 200.81,-82.81 212.6,-70.81"/>
<polygon fill="#999999" stroke="#999999" points="215.32,-73.04 219.95,-63.51 210.39,-68.08 215.32,-73.04"/>
</g>
<!-- node_0x503000000340&#45;&gt;node_0x503000000460 -->
<g id="edge6" class="edge">
<title>node_0x503000000340&#45;&gt;node_0x503000000460</title>
<path fill="none" stroke="#999999" d="M209.89,-107.35C221.5,-96.13 233.37,-83.3 243.14,-71.49"/>
<polygon fill="#999999" stroke="#999999" points="246.01,-73.5 249.54,-63.51 240.55,-69.13 246.01,-73.5"/>
</g>
</g>
</svg>
