<?xml version="1.0" encoding="UTF-8" standalone="no"?>
<!DOCTYPE svg PUBLIC "-//W3C//DTD SVG 1.1//EN"
 "http://www.w3.org/Graphics/SVG/1.1/DTD/svg11.dtd">
<!-- Generated by graphviz version 2.43.0 (0)
 -->
<!-- Title: T Pages: 1 -->
<svg width="830pt" height="607pt"
 viewBox="0.00 0.00 830.00 607.00" xmlns="http://www.w3.org/2000/svg" xmlns:xlink="http://www.w3.org/1999/xlink">
<g id="graph0" class="graph" transform="scale(1 1) rotate(0) translate(4 603)">
<title>T</title>
<polygon fill="white" stroke="transparent" points="-4,4 -4,-603 826,-603 826,4 -4,4"/>
<!-- node_0x503000000670 -->
<g id="node1" class="node">
<title>node_0x503000000670</title>
<path fill="#e9fbf5" stroke="#5aa99b" d="M450,-535.5C450,-535.5 654,-535.5 654,-535.5 660,-535.5 666,-541.5 666,-547.5 666,-547.5 666,-586.5 666,-586.5 666,-592.5 660,-598.5 654,-598.5 654,-598.5 450,-598.5 450,-598.5 444,-598.5 438,-592.5 438,-586.5 438,-586.5 438,-547.5 438,-547.5 438,-541.5 444,-535.5 450,-535.5"/>
<text text-anchor="middle" x="552" y="-584.9" font-family="Fira Mono" font-size="12.00">ptr: 0x503000000670</text>
<polyline fill="none" stroke="#5aa99b" points="438,-577.5 666,-577.5 "/>
<text text-anchor="middle" x="552" y="-563.9" font-family="Fira Mono" font-size="12.00">val: VIS_START</text>
<polyline fill="none" stroke="#5aa99b" points="438,-556.5 666,-556.5 "/>
<text text-anchor="middle" x="515.5" y="-542.9" font-family="Fira Mono" font-size="12.00">prev: 0x5030000006a0</text>
<polyline fill="none" stroke="#5aa99b" points="593,-535.5 593,-556.5 "/>
<text text-anchor="middle" x="629.5" y="-542.9" font-family="Fira Mono" font-size="12.00">next: (nil)</text>
</g>
<!-- node_0x5030000006a0 -->
<g id="node2" class="node">
<title>node_0x5030000006a0</title>
<path fill="#f1eafd" stroke="#8e6bd6" d="M409,-428.5C409,-428.5 695,-428.5 695,-428.5 701,-428.5 707,-434.5 707,-440.5 707,-440.5 707,-479.5 707,-479.5 707,-485.5 701,-491.5 695,-491.5 695,-491.5 409,-491.5 409,-491.5 403,-491.5 397,-485.5 397,-479.5 397,-479.5 397,-440.5 397,-440.5 397,-434.5 403,-428.5 409,-428.5"/>
<text text-anchor="middle" x="552" y="-477.9" font-family="Fira Mono" font-size="12.00">ptr: 0x5030000006a0</text>
<polyline fill="none" stroke="#8e6bd6" points="397,-470.5 707,-470.5 "/>
<text text-anchor="middle" x="552" y="-456.9" font-family="Fira Mono" font-size="12.00">val: FUNC_DECL</text>
<polyline fill="none" stroke="#8e6bd6" points="397,-449.5 707,-449.5 "/>
<text text-anchor="middle" x="474.5" y="-435.9" font-family="Fira Mono" font-size="12.00">prev: 0x5030000006d0</text>
<polyline fill="none" stroke="#8e6bd6" points="552,-428.5 552,-449.5 "/>
<text text-anchor="middle" x="629.5" y="-435.9" font-family="Fira Mono" font-size="12.00">next: 0x503000000880</text>
</g>
<!-- node_0x503000000670&#45;&gt;node_0x5030000006a0 -->
<g id="edge1" class="edge">
<title>node_0x503000000670&#45;&gt;node_0x5030000006a0</title>
<path fill="none" stroke="#999999" d="M552,-535.35C552,-524.78 552,-512.78 552,-501.54"/>
<polygon fill="#999999" stroke="#999999" points="555.5,-501.51 552,-491.51 548.5,-501.51 555.5,-501.51"/>
</g>
<!-- node_0x5030000006d0 -->
<g id="node3" class="node">
<title>node_0x5030000006d0</title>
<path fill="#f1eafd" stroke="#8e6bd6" d="M253,-321.5C253,-321.5 539,-321.5 539,-321.5 545,-321.5 551,-327.5 551,-333.5 551,-333.5 551,-372.5 551,-372.5 551,-378.5 545,-384.5 539,-384.5 539,-384.5 253,-384.5 253,-384.5 247,-384.5 241,-378.5 241,-372.5 241,-372.5 241,-333.5 241,-333.5 241,-327.5 247,-321.5 253,-321.5"/>
<text text-anchor="middle" x="396" y="-370.9" font-family="Fira Mono" font-size="12.00">ptr: 0x5030000006d0</text>
<polyline fill="none" stroke="#8e6bd6" points="241,-363.5 551,-363.5 "/>
<text text-anchor="middle" x="396" y="-349.9" font-family="Fira Mono" font-size="12.00">val: FUNC_INFO</text>
<polyline fill="none" stroke="#8e6bd6" points="241,-342.5 551,-342.5 "/>
<text text-anchor="middle" x="318.5" y="-328.9" font-family="Fira Mono" font-size="12.00">prev: 0x503000000760</text>
<polyline fill="none" stroke="#8e6bd6" points="396,-321.5 396,-342.5 "/>
<text text-anchor="middle" x="473.5" y="-328.9" font-family="Fira Mono" font-size="12.00">next: 0x503000000850</text>
</g>
<!-- node_0x5030000006a0&#45;&gt;node_0x5030000006d0 -->
<g id="edge2" class="edge">
<title>node_0x5030000006a0&#45;&gt;node_0x5030000006d0</title>
<path fill="none" stroke="#999999" d="M506.46,-428.35C488.68,-416.38 468.16,-402.57 449.66,-390.12"/>
<polygon fill="#999999" stroke="#999999" points="451.58,-387.19 441.33,-384.51 447.67,-393 451.58,-387.19"/>
</g>
<!-- node_0x503000000880 -->
<g id="node8" class="node">
<title>node_0x503000000880</title>
<path fill="#f1eafd" stroke="#8e6bd6" d="M606,-321.5C606,-321.5 810,-321.5 810,-321.5 816,-321.5 822,-327.5 822,-333.5 822,-333.5 822,-372.5 822,-372.5 822,-378.5 816,-384.5 810,-384.5 810,-384.5 606,-384.5 606,-384.5 600,-384.5 594,-378.5 594,-372.5 594,-372.5 594,-333.5 594,-333.5 594,-327.5 600,-321.5 606,-321.5"/>
<text text-anchor="middle" x="708" y="-370.9" font-family="Fira Mono" font-size="12.00">ptr: 0x503000000880</text>
<polyline fill="none" stroke="#8e6bd6" points="594,-363.5 822,-363.5 "/>
<text text-anchor="middle" x="708" y="-349.9" font-family="Fira Mono" font-size="12.00">val: VIS_START</text>
<polyline fill="none" stroke="#8e6bd6" points="594,-342.5 822,-342.5 "/>
<text text-anchor="middle" x="671.5" y="-328.9" font-family="Fira Mono" font-size="12.00">prev: 0x5030000008b0</text>
<polyline fill="none" stroke="#8e6bd6" points="749,-321.5 749,-342.5 "/>
<text text-anchor="middle" x="785.5" y="-328.9" font-family="Fira Mono" font-size="12.00">next: (nil)</text>
</g>
<!-- node_0x5030000006a0&#45;&gt;node_0x503000000880 -->
<g id="edge3" class="edge">
<title>node_0x5030000006a0&#45;&gt;node_0x503000000880</title>
<path fill="none" stroke="#999999" d="M597.54,-428.35C615.32,-416.38 635.84,-402.57 654.34,-390.12"/>
<polygon fill="#999999" stroke="#999999" points="656.33,-393 662.67,-384.51 652.42,-387.19 656.33,-393"/>
</g>
<!-- node_0x503000000760 -->
<g id="node4" class="node">
<title>node_0x503000000760</title>
<path fill="#f1eafd" stroke="#8e6bd6" d="M25.5,-214.5C25.5,-214.5 308.5,-214.5 308.5,-214.5 314.5,-214.5 320.5,-220.5 320.5,-226.5 320.5,-226.5 320.5,-265.5 320.5,-265.5 320.5,-271.5 314.5,-277.5 308.5,-277.5 308.5,-277.5 25.5,-277.5 25.5,-277.5 19.5,-277.5 13.5,-271.5 13.5,-265.5 13.5,-265.5 13.5,-226.5 13.5,-226.5 13.5,-220.5 19.5,-214.5 25.5,-214.5"/>
<text text-anchor="middle" x="167" y="-263.9" font-family="Fira Mono" font-size="12.00">ptr: 0x503000000760</text>
<polyline fill="none" stroke="#8e6bd6" points="13.5,-256.5 320.5,-256.5 "/>
<text text-anchor="middle" x="167" y="-242.9" font-family="Fira Mono" font-size="12.00">val: ENUM_SEP</text>
<polyline fill="none" stroke="#8e6bd6" points="13.5,-235.5 320.5,-235.5 "/>
<text text-anchor="middle" x="89.5" y="-221.9" font-family="Fira Mono" font-size="12.00">prev: 0x5030000007f0</text>
<polyline fill="none" stroke="#8e6bd6" points="165.5,-214.5 165.5,-235.5 "/>
<text text-anchor="middle" x="243" y="-221.9" font-family="Fira Mono" font-size="12.00">next: 0x503000000820</text>
</g>
<!-- node_0x5030000006d0&#45;&gt;node_0x503000000760 -->
<g id="edge4" class="edge">
<title>node_0x5030000006d0&#45;&gt;node_0x503000000760</title>
<path fill="none" stroke="#999999" d="M329.46,-321.49C302.41,-309.09 271,-294.68 243.04,-281.87"/>
<polygon fill="#999999" stroke="#999999" points="244.26,-278.57 233.71,-277.59 241.34,-284.94 244.26,-278.57"/>
</g>
<!-- node_0x503000000850 -->
<g id="node7" class="node">
<title>node_0x503000000850</title>
<path fill="#e8f9e5" stroke="#c9fbdb" d="M376,-214.5C376,-214.5 498,-214.5 498,-214.5 504,-214.5 510,-220.5 510,-226.5 510,-226.5 510,-265.5 510,-265.5 510,-271.5 504,-277.5 498,-277.5 498,-277.5 376,-277.5 376,-277.5 370,-277.5 364,-271.5 364,-265.5 364,-265.5 364,-226.5 364,-226.5 364,-220.5 370,-214.5 376,-214.5"/>
<text text-anchor="middle" x="437" y="-263.9" font-family="Fira Mono" font-size="12.00">ptr: 0x503000000850</text>
<polyline fill="none" stroke="#c9fbdb" points="364,-256.5 510,-256.5 "/>
<text text-anchor="middle" x="437" y="-242.9" font-family="Fira Mono" font-size="12.00">val: maintr</text>
<polyline fill="none" stroke="#c9fbdb" points="364,-235.5 510,-235.5 "/>
<text text-anchor="middle" x="400.5" y="-221.9" font-family="Fira Mono" font-size="12.00">prev: (nil)</text>
<polyline fill="none" stroke="#c9fbdb" points="437,-214.5 437,-235.5 "/>
<text text-anchor="middle" x="473.5" y="-221.9" font-family="Fira Mono" font-size="12.00">next: (nil)</text>
</g>
<!-- node_0x5030000006d0&#45;&gt;node_0x503000000850 -->
<g id="edge5" class="edge">
<title>node_0x5030000006d0&#45;&gt;node_0x503000000850</title>
<path fill="none" stroke="#999999" d="M407.97,-321.35C412.18,-310.57 416.97,-298.29 421.44,-286.86"/>
<polygon fill="#999999" stroke="#999999" points="424.71,-288.1 425.09,-277.51 418.19,-285.55 424.71,-288.1"/>
</g>
<!-- node_0x5030000007f0 -->
<g id="node5" class="node">
<title>node_0x5030000007f0</title>
<path fill="#e8f9e5" stroke="#c9fbdb" d="M12,-107.5C12,-107.5 134,-107.5 134,-107.5 140,-107.5 146,-113.5 146,-119.5 146,-119.5 146,-158.5 146,-158.5 146,-164.5 140,-170.5 134,-170.5 134,-170.5 12,-170.5 12,-170.5 6,-170.5 0,-164.5 0,-158.5 0,-158.5 0,-119.5 0,-119.5 0,-113.5 6,-107.5 12,-107.5"/>
<text text-anchor="middle" x="73" y="-156.9" font-family="Fira Mono" font-size="12.00">ptr: 0x5030000007f0</text>
<polyline fill="none" stroke="#c9fbdb" points="0,-149.5 146,-149.5 "/>
<text text-anchor="middle" x="73" y="-135.9" font-family="Fira Mono" font-size="12.00">val: atr</text>
<polyline fill="none" stroke="#c9fbdb" points="0,-128.5 146,-128.5 "/>
<text text-anchor="middle" x="36.5" y="-114.9" font-family="Fira Mono" font-size="12.00">prev: (nil)</text>
<polyline fill="none" stroke="#c9fbdb" points="73,-107.5 73,-128.5 "/>
<text text-anchor="middle" x="109.5" y="-114.9" font-family="Fira Mono" font-size="12.00">next: (nil)</text>
</g>
<!-- node_0x503000000760&#45;&gt;node_0x5030000007f0 -->
<g id="edge6" class="edge">
<title>node_0x503000000760&#45;&gt;node_0x5030000007f0</title>
<path fill="none" stroke="#999999" d="M139.56,-214.35C129.42,-203.03 117.81,-190.06 107.15,-178.15"/>
<polygon fill="#999999" stroke="#999999" points="109.59,-175.63 100.31,-170.51 104.38,-180.29 109.59,-175.63"/>
</g>
<!-- node_0x503000000820 -->
<g id="node6" class="node">
<title>node_0x503000000820</title>
<path fill="#e8f9e5" stroke="#c9fbdb" d="M201,-107.5C201,-107.5 323,-107.5 323,-107.5 329,-107.5 335,-113.5 335,-119.5 335,-119.5 335,-158.5 335,-158.5 335,-164.5 329,-170.5 323,-170.5 323,-170.5 201,-170.5 201,-170.5 195,-170.5 189,-164.5 189,-158.5 189,-158.5 189,-119.5 189,-119.5 189,-113.5 195,-107.5 201,-107.5"/>
<text text-anchor="middle" x="262" y="-156.9" font-family="Fira Mono" font-size="12.00">ptr: 0x503000000820</text>
<polyline fill="none" stroke="#c9fbdb" points="189,-149.5 335,-149.5 "/>
<text text-anchor="middle" x="262" y="-135.9" font-family="Fira Mono" font-size="12.00">val: btr</text>
<polyline fill="none" stroke="#c9fbdb" points="189,-128.5 335,-128.5 "/>
<text text-anchor="middle" x="225.5" y="-114.9" font-family="Fira Mono" font-size="12.00">prev: (nil)</text>
<polyline fill="none" stroke="#c9fbdb" points="262,-107.5 262,-128.5 "/>
<text text-anchor="middle" x="298.5" y="-114.9" font-family="Fira Mono" font-size="12.00">next: (nil)</text>
</g>
<!-- node_0x503000000760&#45;&gt;node_0x503000000820 -->
<g id="edge7" class="edge">
<title>node_0x503000000760&#45;&gt;node_0x503000000820</title>
<path fill="none" stroke="#999999" d="M194.73,-214.35C204.98,-203.03 216.71,-190.06 227.48,-178.15"/>
<polygon fill="#999999" stroke="#999999" points="230.28,-180.27 234.4,-170.51 225.09,-175.58 230.28,-180.27"/>
</g>
<!-- node_0x5030000008b0 -->
<g id="node9" class="node">
<title>node_0x5030000008b0</title>
<path fill="#f1eafd" stroke="#8e6bd6" d="M606,-214.5C606,-214.5 810,-214.5 810,-214.5 816,-214.5 822,-220.5 822,-226.5 822,-226.5 822,-265.5 822,-265.5 822,-271.5 816,-277.5 810,-277.5 810,-277.5 606,-277.5 606,-277.5 600,-277.5 594,-271.5 594,-265.5 594,-265.5 594,-226.5 594,-226.5 594,-220.5 600,-214.5 606,-214.5"/>
<text text-anchor="middle" x="708" y="-263.9" font-family="Fira Mono" font-size="12.00">ptr: 0x5030000008b0</text>
<polyline fill="none" stroke="#8e6bd6" points="594,-256.5 822,-256.5 "/>
<text text-anchor="middle" x="708" y="-242.9" font-family="Fira Mono" font-size="12.00">val: LCAT</text>
<polyline fill="none" stroke="#8e6bd6" points="594,-235.5 822,-235.5 "/>
<text text-anchor="middle" x="671.5" y="-221.9" font-family="Fira Mono" font-size="12.00">prev: 0x5030000008e0</text>
<polyline fill="none" stroke="#8e6bd6" points="749,-214.5 749,-235.5 "/>
<text text-anchor="middle" x="785.5" y="-221.9" font-family="Fira Mono" font-size="12.00">next: (nil)</text>
</g>
<!-- node_0x503000000880&#45;&gt;node_0x5030000008b0 -->
<g id="edge8" class="edge">
<title>node_0x503000000880&#45;&gt;node_0x5030000008b0</title>
<path fill="none" stroke="#999999" d="M708,-321.35C708,-310.78 708,-298.78 708,-287.54"/>
<polygon fill="#999999" stroke="#999999" points="711.5,-287.51 708,-277.51 704.5,-287.51 711.5,-287.51"/>
</g>
<!-- node_0x5030000008e0 -->
<g id="node10" class="node">
<title>node_0x5030000008e0</title>
<path fill="#f1eafd" stroke="#8e6bd6" d="M606,-107.5C606,-107.5 810,-107.5 810,-107.5 816,-107.5 822,-113.5 822,-119.5 822,-119.5 822,-158.5 822,-158.5 822,-164.5 816,-170.5 810,-170.5 810,-170.5 606,-170.5 606,-170.5 600,-170.5 594,-164.5 594,-158.5 594,-158.5 594,-119.5 594,-119.5 594,-113.5 600,-107.5 606,-107.5"/>
<text text-anchor="middle" x="708" y="-156.9" font-family="Fira Mono" font-size="12.00">ptr: 0x5030000008e0</text>
<polyline fill="none" stroke="#8e6bd6" points="594,-149.5 822,-149.5 "/>
<text text-anchor="middle" x="708" y="-135.9" font-family="Fira Mono" font-size="12.00">val: LCAT</text>
<polyline fill="none" stroke="#8e6bd6" points="594,-128.5 822,-128.5 "/>
<text text-anchor="middle" x="671.5" y="-114.9" font-family="Fira Mono" font-size="12.00">prev: 0x503000000910</text>
<polyline fill="none" stroke="#8e6bd6" points="749,-107.5 749,-128.5 "/>
<text text-anchor="middle" x="785.5" y="-114.9" font-family="Fira Mono" font-size="12.00">next: (nil)</text>
</g>
<!-- node_0x5030000008b0&#45;&gt;node_0x5030000008e0 -->
<g id="edge9" class="edge">
<title>node_0x5030000008b0&#45;&gt;node_0x5030000008e0</title>
<path fill="none" stroke="#999999" d="M708,-214.35C708,-203.78 708,-191.78 708,-180.54"/>
<polygon fill="#999999" stroke="#999999" points="711.5,-180.51 708,-170.51 704.5,-180.51 711.5,-180.51"/>
</g>
<!-- node_0x503000000910 -->
<g id="node11" class="node">
<title>node_0x503000000910</title>
<path fill="#e8f9e5" stroke="#c9fbdb" d="M647,-0.5C647,-0.5 769,-0.5 769,-0.5 775,-0.5 781,-6.5 781,-12.5 781,-12.5 781,-51.5 781,-51.5 781,-57.5 775,-63.5 769,-63.5 769,-63.5 647,-63.5 647,-63.5 641,-63.5 635,-57.5 635,-51.5 635,-51.5 635,-12.5 635,-12.5 635,-6.5 641,-0.5 647,-0.5"/>
<text text-anchor="middle" x="708" y="-49.9" font-family="Fira Mono" font-size="12.00">ptr: 0x503000000910</text>
<polyline fill="none" stroke="#c9fbdb" points="635,-42.5 781,-42.5 "/>
<text text-anchor="middle" x="708" y="-28.9" font-family="Fira Mono" font-size="12.00">val: ASSIGN</text>
<polyline fill="none" stroke="#c9fbdb" points="635,-21.5 781,-21.5 "/>
<text text-anchor="middle" x="671.5" y="-7.9" font-family="Fira Mono" font-size="12.00">prev: (nil)</text>
<polyline fill="none" stroke="#c9fbdb" points="708,-0.5 708,-21.5 "/>
<text text-anchor="middle" x="744.5" y="-7.9" font-family="Fira Mono" font-size="12.00">next: (nil)</text>
</g>
<!-- node_0x5030000008e0&#45;&gt;node_0x503000000910 -->
<g id="edge10" class="edge">
<title>node_0x5030000008e0&#45;&gt;node_0x503000000910</title>
<path fill="none" stroke="#999999" d="M708,-107.35C708,-96.78 708,-84.78 708,-73.54"/>
<polygon fill="#999999" stroke="#999999" points="711.5,-73.51 708,-63.51 704.5,-73.51 711.5,-73.51"/>
</g>
</g>
</svg>
