<?xml version="1.0" encoding="UTF-8" standalone="no"?>
<!DOCTYPE svg PUBLIC "-//W3C//DTD SVG 1.1//EN"
 "http://www.w3.org/Graphics/SVG/1.1/DTD/svg11.dtd">
<!-- Generated by graphviz version 2.43.0 (0)
 -->
<!-- Title: T Pages: 1 -->
<svg width="1124pt" height="821pt"
 viewBox="0.00 0.00 1124.00 821.00" xmlns="http://www.w3.org/2000/svg" xmlns:xlink="http://www.w3.org/1999/xlink">
<g id="graph0" class="graph" transform="scale(1 1) rotate(0) translate(4 817)">
<title>T</title>
<polygon fill="white" stroke="transparent" points="-4,4 -4,-817 1120,-817 1120,4 -4,4"/>
<!-- node_0x503000000670 -->
<g id="node1" class="node">
<title>node_0x503000000670</title>
<path fill="#e9fbf5" stroke="#5aa99b" d="M450,-749.5C450,-749.5 654,-749.5 654,-749.5 660,-749.5 666,-755.5 666,-761.5 666,-761.5 666,-800.5 666,-800.5 666,-806.5 660,-812.5 654,-812.5 654,-812.5 450,-812.5 450,-812.5 444,-812.5 438,-806.5 438,-800.5 438,-800.5 438,-761.5 438,-761.5 438,-755.5 444,-749.5 450,-749.5"/>
<text text-anchor="middle" x="552" y="-798.9" font-family="Fira Mono" font-size="12.00">ptr: 0x503000000670</text>
<polyline fill="none" stroke="#5aa99b" points="438,-791.5 666,-791.5 "/>
<text text-anchor="middle" x="552" y="-777.9" font-family="Fira Mono" font-size="12.00">val: VIS_START</text>
<polyline fill="none" stroke="#5aa99b" points="438,-770.5 666,-770.5 "/>
<text text-anchor="middle" x="515.5" y="-756.9" font-family="Fira Mono" font-size="12.00">prev: 0x5030000006a0</text>
<polyline fill="none" stroke="#5aa99b" points="593,-749.5 593,-770.5 "/>
<text text-anchor="middle" x="629.5" y="-756.9" font-family="Fira Mono" font-size="12.00">next: (nil)</text>
</g>
<!-- node_0x5030000006a0 -->
<g id="node2" class="node">
<title>node_0x5030000006a0</title>
<path fill="#f1eafd" stroke="#8e6bd6" d="M409,-642.5C409,-642.5 695,-642.5 695,-642.5 701,-642.5 707,-648.5 707,-654.5 707,-654.5 707,-693.5 707,-693.5 707,-699.5 701,-705.5 695,-705.5 695,-705.5 409,-705.5 409,-705.5 403,-705.5 397,-699.5 397,-693.5 397,-693.5 397,-654.5 397,-654.5 397,-648.5 403,-642.5 409,-642.5"/>
<text text-anchor="middle" x="552" y="-691.9" font-family="Fira Mono" font-size="12.00">ptr: 0x5030000006a0</text>
<polyline fill="none" stroke="#8e6bd6" points="397,-684.5 707,-684.5 "/>
<text text-anchor="middle" x="552" y="-670.9" font-family="Fira Mono" font-size="12.00">val: FUNC_DECL</text>
<polyline fill="none" stroke="#8e6bd6" points="397,-663.5 707,-663.5 "/>
<text text-anchor="middle" x="474.5" y="-649.9" font-family="Fira Mono" font-size="12.00">prev: 0x5030000006d0</text>
<polyline fill="none" stroke="#8e6bd6" points="552,-642.5 552,-663.5 "/>
<text text-anchor="middle" x="629.5" y="-649.9" font-family="Fira Mono" font-size="12.00">next: 0x503000000880</text>
</g>
<!-- node_0x503000000670&#45;&gt;node_0x5030000006a0 -->
<g id="edge1" class="edge">
<title>node_0x503000000670&#45;&gt;node_0x5030000006a0</title>
<path fill="none" stroke="#999999" d="M552,-749.35C552,-738.78 552,-726.78 552,-715.54"/>
<polygon fill="#999999" stroke="#999999" points="555.5,-715.51 552,-705.51 548.5,-715.51 555.5,-715.51"/>
</g>
<!-- node_0x5030000006d0 -->
<g id="node3" class="node">
<title>node_0x5030000006d0</title>
<path fill="#f1eafd" stroke="#8e6bd6" d="M253,-535.5C253,-535.5 539,-535.5 539,-535.5 545,-535.5 551,-541.5 551,-547.5 551,-547.5 551,-586.5 551,-586.5 551,-592.5 545,-598.5 539,-598.5 539,-598.5 253,-598.5 253,-598.5 247,-598.5 241,-592.5 241,-586.5 241,-586.5 241,-547.5 241,-547.5 241,-541.5 247,-535.5 253,-535.5"/>
<text text-anchor="middle" x="396" y="-584.9" font-family="Fira Mono" font-size="12.00">ptr: 0x5030000006d0</text>
<polyline fill="none" stroke="#8e6bd6" points="241,-577.5 551,-577.5 "/>
<text text-anchor="middle" x="396" y="-563.9" font-family="Fira Mono" font-size="12.00">val: FUNC_INFO</text>
<polyline fill="none" stroke="#8e6bd6" points="241,-556.5 551,-556.5 "/>
<text text-anchor="middle" x="318.5" y="-542.9" font-family="Fira Mono" font-size="12.00">prev: 0x503000000760</text>
<polyline fill="none" stroke="#8e6bd6" points="396,-535.5 396,-556.5 "/>
<text text-anchor="middle" x="473.5" y="-542.9" font-family="Fira Mono" font-size="12.00">next: 0x503000000850</text>
</g>
<!-- node_0x5030000006a0&#45;&gt;node_0x5030000006d0 -->
<g id="edge2" class="edge">
<title>node_0x5030000006a0&#45;&gt;node_0x5030000006d0</title>
<path fill="none" stroke="#999999" d="M506.46,-642.35C488.68,-630.38 468.16,-616.57 449.66,-604.12"/>
<polygon fill="#999999" stroke="#999999" points="451.58,-601.19 441.33,-598.51 447.67,-607 451.58,-601.19"/>
</g>
<!-- node_0x503000000880 -->
<g id="node8" class="node">
<title>node_0x503000000880</title>
<path fill="#f1eafd" stroke="#8e6bd6" d="M606,-535.5C606,-535.5 810,-535.5 810,-535.5 816,-535.5 822,-541.5 822,-547.5 822,-547.5 822,-586.5 822,-586.5 822,-592.5 816,-598.5 810,-598.5 810,-598.5 606,-598.5 606,-598.5 600,-598.5 594,-592.5 594,-586.5 594,-586.5 594,-547.5 594,-547.5 594,-541.5 600,-535.5 606,-535.5"/>
<text text-anchor="middle" x="708" y="-584.9" font-family="Fira Mono" font-size="12.00">ptr: 0x503000000880</text>
<polyline fill="none" stroke="#8e6bd6" points="594,-577.5 822,-577.5 "/>
<text text-anchor="middle" x="708" y="-563.9" font-family="Fira Mono" font-size="12.00">val: VIS_START</text>
<polyline fill="none" stroke="#8e6bd6" points="594,-556.5 822,-556.5 "/>
<text text-anchor="middle" x="671.5" y="-542.9" font-family="Fira Mono" font-size="12.00">prev: 0x5030000008b0</text>
<polyline fill="none" stroke="#8e6bd6" points="749,-535.5 749,-556.5 "/>
<text text-anchor="middle" x="785.5" y="-542.9" font-family="Fira Mono" font-size="12.00">next: (nil)</text>
</g>
<!-- node_0x5030000006a0&#45;&gt;node_0x503000000880 -->
<g id="edge3" class="edge">
<title>node_0x5030000006a0&#45;&gt;node_0x503000000880</title>
<path fill="none" stroke="#999999" d="M597.54,-642.35C615.32,-630.38 635.84,-616.57 654.34,-604.12"/>
<polygon fill="#999999" stroke="#999999" points="656.33,-607 662.67,-598.51 652.42,-601.19 656.33,-607"/>
</g>
<!-- node_0x503000000760 -->
<g id="node4" class="node">
<title>node_0x503000000760</title>
<path fill="#f1eafd" stroke="#8e6bd6" d="M25.5,-428.5C25.5,-428.5 308.5,-428.5 308.5,-428.5 314.5,-428.5 320.5,-434.5 320.5,-440.5 320.5,-440.5 320.5,-479.5 320.5,-479.5 320.5,-485.5 314.5,-491.5 308.5,-491.5 308.5,-491.5 25.5,-491.5 25.5,-491.5 19.5,-491.5 13.5,-485.5 13.5,-479.5 13.5,-479.5 13.5,-440.5 13.5,-440.5 13.5,-434.5 19.5,-428.5 25.5,-428.5"/>
<text text-anchor="middle" x="167" y="-477.9" font-family="Fira Mono" font-size="12.00">ptr: 0x503000000760</text>
<polyline fill="none" stroke="#8e6bd6" points="13.5,-470.5 320.5,-470.5 "/>
<text text-anchor="middle" x="167" y="-456.9" font-family="Fira Mono" font-size="12.00">val: ENUM_SEP</text>
<polyline fill="none" stroke="#8e6bd6" points="13.5,-449.5 320.5,-449.5 "/>
<text text-anchor="middle" x="89.5" y="-435.9" font-family="Fira Mono" font-size="12.00">prev: 0x5030000007f0</text>
<polyline fill="none" stroke="#8e6bd6" points="165.5,-428.5 165.5,-449.5 "/>
<text text-anchor="middle" x="243" y="-435.9" font-family="Fira Mono" font-size="12.00">next: 0x503000000820</text>
</g>
<!-- node_0x5030000006d0&#45;&gt;node_0x503000000760 -->
<g id="edge4" class="edge">
<title>node_0x5030000006d0&#45;&gt;node_0x503000000760</title>
<path fill="none" stroke="#999999" d="M329.46,-535.49C302.41,-523.09 271,-508.68 243.04,-495.87"/>
<polygon fill="#999999" stroke="#999999" points="244.26,-492.57 233.71,-491.59 241.34,-498.94 244.26,-492.57"/>
</g>
<!-- node_0x503000000850 -->
<g id="node7" class="node">
<title>node_0x503000000850</title>
<path fill="#e8f9e5" stroke="#c9fbdb" d="M376,-428.5C376,-428.5 498,-428.5 498,-428.5 504,-428.5 510,-434.5 510,-440.5 510,-440.5 510,-479.5 510,-479.5 510,-485.5 504,-491.5 498,-491.5 498,-491.5 376,-491.5 376,-491.5 370,-491.5 364,-485.5 364,-479.5 364,-479.5 364,-440.5 364,-440.5 364,-434.5 370,-428.5 376,-428.5"/>
<text text-anchor="middle" x="437" y="-477.9" font-family="Fira Mono" font-size="12.00">ptr: 0x503000000850</text>
<polyline fill="none" stroke="#c9fbdb" points="364,-470.5 510,-470.5 "/>
<text text-anchor="middle" x="437" y="-456.9" font-family="Fira Mono" font-size="12.00">val: maintr</text>
<polyline fill="none" stroke="#c9fbdb" points="364,-449.5 510,-449.5 "/>
<text text-anchor="middle" x="400.5" y="-435.9" font-family="Fira Mono" font-size="12.00">prev: (nil)</text>
<polyline fill="none" stroke="#c9fbdb" points="437,-428.5 437,-449.5 "/>
<text text-anchor="middle" x="473.5" y="-435.9" font-family="Fira Mono" font-size="12.00">next: (nil)</text>
</g>
<!-- node_0x5030000006d0&#45;&gt;node_0x503000000850 -->
<g id="edge5" class="edge">
<title>node_0x5030000006d0&#45;&gt;node_0x503000000850</title>
<path fill="none" stroke="#999999" d="M407.97,-535.35C412.18,-524.57 416.97,-512.29 421.44,-500.86"/>
<polygon fill="#999999" stroke="#999999" points="424.71,-502.1 425.09,-491.51 418.19,-499.55 424.71,-502.1"/>
</g>
<!-- node_0x5030000007f0 -->
<g id="node5" class="node">
<title>node_0x5030000007f0</title>
<path fill="#e8f9e5" stroke="#c9fbdb" d="M12,-321.5C12,-321.5 134,-321.5 134,-321.5 140,-321.5 146,-327.5 146,-333.5 146,-333.5 146,-372.5 146,-372.5 146,-378.5 140,-384.5 134,-384.5 134,-384.5 12,-384.5 12,-384.5 6,-384.5 0,-378.5 0,-372.5 0,-372.5 0,-333.5 0,-333.5 0,-327.5 6,-321.5 12,-321.5"/>
<text text-anchor="middle" x="73" y="-370.9" font-family="Fira Mono" font-size="12.00">ptr: 0x5030000007f0</text>
<polyline fill="none" stroke="#c9fbdb" points="0,-363.5 146,-363.5 "/>
<text text-anchor="middle" x="73" y="-349.9" font-family="Fira Mono" font-size="12.00">val: atr</text>
<polyline fill="none" stroke="#c9fbdb" points="0,-342.5 146,-342.5 "/>
<text text-anchor="middle" x="36.5" y="-328.9" font-family="Fira Mono" font-size="12.00">prev: (nil)</text>
<polyline fill="none" stroke="#c9fbdb" points="73,-321.5 73,-342.5 "/>
<text text-anchor="middle" x="109.5" y="-328.9" font-family="Fira Mono" font-size="12.00">next: (nil)</text>
</g>
<!-- node_0x503000000760&#45;&gt;node_0x5030000007f0 -->
<g id="edge6" class="edge">
<title>node_0x503000000760&#45;&gt;node_0x5030000007f0</title>
<path fill="none" stroke="#999999" d="M139.56,-428.35C129.42,-417.03 117.81,-404.06 107.15,-392.15"/>
<polygon fill="#999999" stroke="#999999" points="109.59,-389.63 100.31,-384.51 104.38,-394.29 109.59,-389.63"/>
</g>
<!-- node_0x503000000820 -->
<g id="node6" class="node">
<title>node_0x503000000820</title>
<path fill="#e8f9e5" stroke="#c9fbdb" d="M201,-321.5C201,-321.5 323,-321.5 323,-321.5 329,-321.5 335,-327.5 335,-333.5 335,-333.5 335,-372.5 335,-372.5 335,-378.5 329,-384.5 323,-384.5 323,-384.5 201,-384.5 201,-384.5 195,-384.5 189,-378.5 189,-372.5 189,-372.5 189,-333.5 189,-333.5 189,-327.5 195,-321.5 201,-321.5"/>
<text text-anchor="middle" x="262" y="-370.9" font-family="Fira Mono" font-size="12.00">ptr: 0x503000000820</text>
<polyline fill="none" stroke="#c9fbdb" points="189,-363.5 335,-363.5 "/>
<text text-anchor="middle" x="262" y="-349.9" font-family="Fira Mono" font-size="12.00">val: btr</text>
<polyline fill="none" stroke="#c9fbdb" points="189,-342.5 335,-342.5 "/>
<text text-anchor="middle" x="225.5" y="-328.9" font-family="Fira Mono" font-size="12.00">prev: (nil)</text>
<polyline fill="none" stroke="#c9fbdb" points="262,-321.5 262,-342.5 "/>
<text text-anchor="middle" x="298.5" y="-328.9" font-family="Fira Mono" font-size="12.00">next: (nil)</text>
</g>
<!-- node_0x503000000760&#45;&gt;node_0x503000000820 -->
<g id="edge7" class="edge">
<title>node_0x503000000760&#45;&gt;node_0x503000000820</title>
<path fill="none" stroke="#999999" d="M194.73,-428.35C204.98,-417.03 216.71,-404.06 227.48,-392.15"/>
<polygon fill="#999999" stroke="#999999" points="230.28,-394.27 234.4,-384.51 225.09,-389.58 230.28,-394.27"/>
</g>
<!-- node_0x5030000008b0 -->
<g id="node9" class="node">
<title>node_0x5030000008b0</title>
<path fill="#f1eafd" stroke="#8e6bd6" d="M606,-428.5C606,-428.5 810,-428.5 810,-428.5 816,-428.5 822,-434.5 822,-440.5 822,-440.5 822,-479.5 822,-479.5 822,-485.5 816,-491.5 810,-491.5 810,-491.5 606,-491.5 606,-491.5 600,-491.5 594,-485.5 594,-479.5 594,-479.5 594,-440.5 594,-440.5 594,-434.5 600,-428.5 606,-428.5"/>
<text text-anchor="middle" x="708" y="-477.9" font-family="Fira Mono" font-size="12.00">ptr: 0x5030000008b0</text>
<polyline fill="none" stroke="#8e6bd6" points="594,-470.5 822,-470.5 "/>
<text text-anchor="middle" x="708" y="-456.9" font-family="Fira Mono" font-size="12.00">val: LCAT</text>
<polyline fill="none" stroke="#8e6bd6" points="594,-449.5 822,-449.5 "/>
<text text-anchor="middle" x="671.5" y="-435.9" font-family="Fira Mono" font-size="12.00">prev: 0x5030000008e0</text>
<polyline fill="none" stroke="#8e6bd6" points="749,-428.5 749,-449.5 "/>
<text text-anchor="middle" x="785.5" y="-435.9" font-family="Fira Mono" font-size="12.00">next: (nil)</text>
</g>
<!-- node_0x503000000880&#45;&gt;node_0x5030000008b0 -->
<g id="edge8" class="edge">
<title>node_0x503000000880&#45;&gt;node_0x5030000008b0</title>
<path fill="none" stroke="#999999" d="M708,-535.35C708,-524.78 708,-512.78 708,-501.54"/>
<polygon fill="#999999" stroke="#999999" points="711.5,-501.51 708,-491.51 704.5,-501.51 711.5,-501.51"/>
</g>
<!-- node_0x5030000008e0 -->
<g id="node10" class="node">
<title>node_0x5030000008e0</title>
<path fill="#f1eafd" stroke="#8e6bd6" d="M565,-321.5C565,-321.5 851,-321.5 851,-321.5 857,-321.5 863,-327.5 863,-333.5 863,-333.5 863,-372.5 863,-372.5 863,-378.5 857,-384.5 851,-384.5 851,-384.5 565,-384.5 565,-384.5 559,-384.5 553,-378.5 553,-372.5 553,-372.5 553,-333.5 553,-333.5 553,-327.5 559,-321.5 565,-321.5"/>
<text text-anchor="middle" x="708" y="-370.9" font-family="Fira Mono" font-size="12.00">ptr: 0x5030000008e0</text>
<polyline fill="none" stroke="#8e6bd6" points="553,-363.5 863,-363.5 "/>
<text text-anchor="middle" x="708" y="-349.9" font-family="Fira Mono" font-size="12.00">val: LCAT</text>
<polyline fill="none" stroke="#8e6bd6" points="553,-342.5 863,-342.5 "/>
<text text-anchor="middle" x="630.5" y="-328.9" font-family="Fira Mono" font-size="12.00">prev: 0x503000000910</text>
<polyline fill="none" stroke="#8e6bd6" points="708,-321.5 708,-342.5 "/>
<text text-anchor="middle" x="785.5" y="-328.9" font-family="Fira Mono" font-size="12.00">next: 0x503000000a00</text>
</g>
<!-- node_0x5030000008b0&#45;&gt;node_0x5030000008e0 -->
<g id="edge9" class="edge">
<title>node_0x5030000008b0&#45;&gt;node_0x5030000008e0</title>
<path fill="none" stroke="#999999" d="M708,-428.35C708,-417.78 708,-405.78 708,-394.54"/>
<polygon fill="#999999" stroke="#999999" points="711.5,-394.51 708,-384.51 704.5,-394.51 711.5,-394.51"/>
</g>
<!-- node_0x503000000910 -->
<g id="node11" class="node">
<title>node_0x503000000910</title>
<path fill="#f1eafd" stroke="#8e6bd6" d="M399,-214.5C399,-214.5 685,-214.5 685,-214.5 691,-214.5 697,-220.5 697,-226.5 697,-226.5 697,-265.5 697,-265.5 697,-271.5 691,-277.5 685,-277.5 685,-277.5 399,-277.5 399,-277.5 393,-277.5 387,-271.5 387,-265.5 387,-265.5 387,-226.5 387,-226.5 387,-220.5 393,-214.5 399,-214.5"/>
<text text-anchor="middle" x="542" y="-263.9" font-family="Fira Mono" font-size="12.00">ptr: 0x503000000910</text>
<polyline fill="none" stroke="#8e6bd6" points="387,-256.5 697,-256.5 "/>
<text text-anchor="middle" x="542" y="-242.9" font-family="Fira Mono" font-size="12.00">val: ASSIGN</text>
<polyline fill="none" stroke="#8e6bd6" points="387,-235.5 697,-235.5 "/>
<text text-anchor="middle" x="464.5" y="-221.9" font-family="Fira Mono" font-size="12.00">prev: 0x503000000940</text>
<polyline fill="none" stroke="#8e6bd6" points="542,-214.5 542,-235.5 "/>
<text text-anchor="middle" x="619.5" y="-221.9" font-family="Fira Mono" font-size="12.00">next: 0x503000000970</text>
</g>
<!-- node_0x5030000008e0&#45;&gt;node_0x503000000910 -->
<g id="edge10" class="edge">
<title>node_0x5030000008e0&#45;&gt;node_0x503000000910</title>
<path fill="none" stroke="#999999" d="M659.54,-321.35C640.53,-309.33 618.59,-295.44 598.84,-282.95"/>
<polygon fill="#999999" stroke="#999999" points="600.56,-279.9 590.23,-277.51 596.81,-285.81 600.56,-279.9"/>
</g>
<!-- node_0x503000000a00 -->
<g id="node16" class="node">
<title>node_0x503000000a00</title>
<path fill="#f1eafd" stroke="#8e6bd6" d="M772,-214.5C772,-214.5 976,-214.5 976,-214.5 982,-214.5 988,-220.5 988,-226.5 988,-226.5 988,-265.5 988,-265.5 988,-271.5 982,-277.5 976,-277.5 976,-277.5 772,-277.5 772,-277.5 766,-277.5 760,-271.5 760,-265.5 760,-265.5 760,-226.5 760,-226.5 760,-220.5 766,-214.5 772,-214.5"/>
<text text-anchor="middle" x="874" y="-263.9" font-family="Fira Mono" font-size="12.00">ptr: 0x503000000a00</text>
<polyline fill="none" stroke="#8e6bd6" points="760,-256.5 988,-256.5 "/>
<text text-anchor="middle" x="874" y="-242.9" font-family="Fira Mono" font-size="12.00">val: IF</text>
<polyline fill="none" stroke="#8e6bd6" points="760,-235.5 988,-235.5 "/>
<text text-anchor="middle" x="837.5" y="-221.9" font-family="Fira Mono" font-size="12.00">prev: 0x503000000a30</text>
<polyline fill="none" stroke="#8e6bd6" points="915,-214.5 915,-235.5 "/>
<text text-anchor="middle" x="951.5" y="-221.9" font-family="Fira Mono" font-size="12.00">next: (nil)</text>
</g>
<!-- node_0x5030000008e0&#45;&gt;node_0x503000000a00 -->
<g id="edge11" class="edge">
<title>node_0x5030000008e0&#45;&gt;node_0x503000000a00</title>
<path fill="none" stroke="#999999" d="M756.46,-321.35C775.47,-309.33 797.41,-295.44 817.16,-282.95"/>
<polygon fill="#999999" stroke="#999999" points="819.19,-285.81 825.77,-277.51 815.44,-279.9 819.19,-285.81"/>
</g>
<!-- node_0x503000000940 -->
<g id="node12" class="node">
<title>node_0x503000000940</title>
<path fill="#e8f9e5" stroke="#c9fbdb" d="M210,-107.5C210,-107.5 332,-107.5 332,-107.5 338,-107.5 344,-113.5 344,-119.5 344,-119.5 344,-158.5 344,-158.5 344,-164.5 338,-170.5 332,-170.5 332,-170.5 210,-170.5 210,-170.5 204,-170.5 198,-164.5 198,-158.5 198,-158.5 198,-119.5 198,-119.5 198,-113.5 204,-107.5 210,-107.5"/>
<text text-anchor="middle" x="271" y="-156.9" font-family="Fira Mono" font-size="12.00">ptr: 0x503000000940</text>
<polyline fill="none" stroke="#c9fbdb" points="198,-149.5 344,-149.5 "/>
<text text-anchor="middle" x="271" y="-135.9" font-family="Fira Mono" font-size="12.00">val: xtr</text>
<polyline fill="none" stroke="#c9fbdb" points="198,-128.5 344,-128.5 "/>
<text text-anchor="middle" x="234.5" y="-114.9" font-family="Fira Mono" font-size="12.00">prev: (nil)</text>
<polyline fill="none" stroke="#c9fbdb" points="271,-107.5 271,-128.5 "/>
<text text-anchor="middle" x="307.5" y="-114.9" font-family="Fira Mono" font-size="12.00">next: (nil)</text>
</g>
<!-- node_0x503000000910&#45;&gt;node_0x503000000940 -->
<g id="edge12" class="edge">
<title>node_0x503000000910&#45;&gt;node_0x503000000940</title>
<path fill="none" stroke="#999999" d="M463.25,-214.49C428.97,-201.21 388.77,-185.63 354.02,-172.17"/>
<polygon fill="#999999" stroke="#999999" points="354.96,-168.78 344.37,-168.43 352.43,-175.3 354.96,-168.78"/>
</g>
<!-- node_0x503000000970 -->
<g id="node13" class="node">
<title>node_0x503000000970</title>
<path fill="#f1eafd" stroke="#8e6bd6" d="M399,-107.5C399,-107.5 685,-107.5 685,-107.5 691,-107.5 697,-113.5 697,-119.5 697,-119.5 697,-158.5 697,-158.5 697,-164.5 691,-170.5 685,-170.5 685,-170.5 399,-170.5 399,-170.5 393,-170.5 387,-164.5 387,-158.5 387,-158.5 387,-119.5 387,-119.5 387,-113.5 393,-107.5 399,-107.5"/>
<text text-anchor="middle" x="542" y="-156.9" font-family="Fira Mono" font-size="12.00">ptr: 0x503000000970</text>
<polyline fill="none" stroke="#8e6bd6" points="387,-149.5 697,-149.5 "/>
<text text-anchor="middle" x="542" y="-135.9" font-family="Fira Mono" font-size="12.00">val: ADD</text>
<polyline fill="none" stroke="#8e6bd6" points="387,-128.5 697,-128.5 "/>
<text text-anchor="middle" x="464.5" y="-114.9" font-family="Fira Mono" font-size="12.00">prev: 0x5030000009a0</text>
<polyline fill="none" stroke="#8e6bd6" points="542,-107.5 542,-128.5 "/>
<text text-anchor="middle" x="619.5" y="-114.9" font-family="Fira Mono" font-size="12.00">next: 0x5030000009d0</text>
</g>
<!-- node_0x503000000910&#45;&gt;node_0x503000000970 -->
<g id="edge13" class="edge">
<title>node_0x503000000910&#45;&gt;node_0x503000000970</title>
<path fill="none" stroke="#999999" d="M542,-214.35C542,-203.78 542,-191.78 542,-180.54"/>
<polygon fill="#999999" stroke="#999999" points="545.5,-180.51 542,-170.51 538.5,-180.51 545.5,-180.51"/>
</g>
<!-- node_0x5030000009a0 -->
<g id="node14" class="node">
<title>node_0x5030000009a0</title>
<path fill="#e8f9e5" stroke="#c9fbdb" d="M333,-0.5C333,-0.5 455,-0.5 455,-0.5 461,-0.5 467,-6.5 467,-12.5 467,-12.5 467,-51.5 467,-51.5 467,-57.5 461,-63.5 455,-63.5 455,-63.5 333,-63.5 333,-63.5 327,-63.5 321,-57.5 321,-51.5 321,-51.5 321,-12.5 321,-12.5 321,-6.5 327,-0.5 333,-0.5"/>
<text text-anchor="middle" x="394" y="-49.9" font-family="Fira Mono" font-size="12.00">ptr: 0x5030000009a0</text>
<polyline fill="none" stroke="#c9fbdb" points="321,-42.5 467,-42.5 "/>
<text text-anchor="middle" x="394" y="-28.9" font-family="Fira Mono" font-size="12.00">val: atr</text>
<polyline fill="none" stroke="#c9fbdb" points="321,-21.5 467,-21.5 "/>
<text text-anchor="middle" x="357.5" y="-7.9" font-family="Fira Mono" font-size="12.00">prev: (nil)</text>
<polyline fill="none" stroke="#c9fbdb" points="394,-0.5 394,-21.5 "/>
<text text-anchor="middle" x="430.5" y="-7.9" font-family="Fira Mono" font-size="12.00">next: (nil)</text>
</g>
<!-- node_0x503000000970&#45;&gt;node_0x5030000009a0 -->
<g id="edge14" class="edge">
<title>node_0x503000000970&#45;&gt;node_0x5030000009a0</title>
<path fill="none" stroke="#999999" d="M498.79,-107.35C482.08,-95.49 462.81,-81.82 445.39,-69.46"/>
<polygon fill="#999999" stroke="#999999" points="447.18,-66.44 437,-63.51 443.13,-72.15 447.18,-66.44"/>
</g>
<!-- node_0x5030000009d0 -->
<g id="node15" class="node">
<title>node_0x5030000009d0</title>
<path fill="#e8f9e5" stroke="#c9fbdb" d="M522,-0.5C522,-0.5 644,-0.5 644,-0.5 650,-0.5 656,-6.5 656,-12.5 656,-12.5 656,-51.5 656,-51.5 656,-57.5 650,-63.5 644,-63.5 644,-63.5 522,-63.5 522,-63.5 516,-63.5 510,-57.5 510,-51.5 510,-51.5 510,-12.5 510,-12.5 510,-6.5 516,-0.5 522,-0.5"/>
<text text-anchor="middle" x="583" y="-49.9" font-family="Fira Mono" font-size="12.00">ptr: 0x5030000009d0</text>
<polyline fill="none" stroke="#c9fbdb" points="510,-42.5 656,-42.5 "/>
<text text-anchor="middle" x="583" y="-28.9" font-family="Fira Mono" font-size="12.00">val: btr</text>
<polyline fill="none" stroke="#c9fbdb" points="510,-21.5 656,-21.5 "/>
<text text-anchor="middle" x="546.5" y="-7.9" font-family="Fira Mono" font-size="12.00">prev: (nil)</text>
<polyline fill="none" stroke="#c9fbdb" points="583,-0.5 583,-21.5 "/>
<text text-anchor="middle" x="619.5" y="-7.9" font-family="Fira Mono" font-size="12.00">next: (nil)</text>
</g>
<!-- node_0x503000000970&#45;&gt;node_0x5030000009d0 -->
<g id="edge15" class="edge">
<title>node_0x503000000970&#45;&gt;node_0x5030000009d0</title>
<path fill="none" stroke="#999999" d="M553.97,-107.35C558.18,-96.57 562.97,-84.29 567.44,-72.86"/>
<polygon fill="#999999" stroke="#999999" points="570.71,-74.1 571.09,-63.51 564.19,-71.55 570.71,-74.1"/>
</g>
<!-- node_0x503000000a30 -->
<g id="node17" class="node">
<title>node_0x503000000a30</title>
<path fill="#f1eafd" stroke="#8e6bd6" d="M752,-107.5C752,-107.5 1038,-107.5 1038,-107.5 1044,-107.5 1050,-113.5 1050,-119.5 1050,-119.5 1050,-158.5 1050,-158.5 1050,-164.5 1044,-170.5 1038,-170.5 1038,-170.5 752,-170.5 752,-170.5 746,-170.5 740,-164.5 740,-158.5 740,-158.5 740,-119.5 740,-119.5 740,-113.5 746,-107.5 752,-107.5"/>
<text text-anchor="middle" x="895" y="-156.9" font-family="Fira Mono" font-size="12.00">ptr: 0x503000000a30</text>
<polyline fill="none" stroke="#8e6bd6" points="740,-149.5 1050,-149.5 "/>
<text text-anchor="middle" x="895" y="-135.9" font-family="Fira Mono" font-size="12.00">val: EQ</text>
<polyline fill="none" stroke="#8e6bd6" points="740,-128.5 1050,-128.5 "/>
<text text-anchor="middle" x="817.5" y="-114.9" font-family="Fira Mono" font-size="12.00">prev: 0x503000000a60</text>
<polyline fill="none" stroke="#8e6bd6" points="895,-107.5 895,-128.5 "/>
<text text-anchor="middle" x="972.5" y="-114.9" font-family="Fira Mono" font-size="12.00">next: 0x503000000a90</text>
</g>
<!-- node_0x503000000a00&#45;&gt;node_0x503000000a30 -->
<g id="edge16" class="edge">
<title>node_0x503000000a00&#45;&gt;node_0x503000000a30</title>
<path fill="none" stroke="#999999" d="M880.13,-214.35C882.24,-203.78 884.64,-191.78 886.89,-180.54"/>
<polygon fill="#999999" stroke="#999999" points="890.37,-181 888.9,-170.51 883.5,-179.63 890.37,-181"/>
</g>
<!-- node_0x503000000a60 -->
<g id="node18" class="node">
<title>node_0x503000000a60</title>
<path fill="#e8f9e5" stroke="#c9fbdb" d="M793,-0.5C793,-0.5 915,-0.5 915,-0.5 921,-0.5 927,-6.5 927,-12.5 927,-12.5 927,-51.5 927,-51.5 927,-57.5 921,-63.5 915,-63.5 915,-63.5 793,-63.5 793,-63.5 787,-63.5 781,-57.5 781,-51.5 781,-51.5 781,-12.5 781,-12.5 781,-6.5 787,-0.5 793,-0.5"/>
<text text-anchor="middle" x="854" y="-49.9" font-family="Fira Mono" font-size="12.00">ptr: 0x503000000a60</text>
<polyline fill="none" stroke="#c9fbdb" points="781,-42.5 927,-42.5 "/>
<text text-anchor="middle" x="854" y="-28.9" font-family="Fira Mono" font-size="12.00">val: xtr</text>
<polyline fill="none" stroke="#c9fbdb" points="781,-21.5 927,-21.5 "/>
<text text-anchor="middle" x="817.5" y="-7.9" font-family="Fira Mono" font-size="12.00">prev: (nil)</text>
<polyline fill="none" stroke="#c9fbdb" points="854,-0.5 854,-21.5 "/>
<text text-anchor="middle" x="890.5" y="-7.9" font-family="Fira Mono" font-size="12.00">next: (nil)</text>
</g>
<!-- node_0x503000000a30&#45;&gt;node_0x503000000a60 -->
<g id="edge17" class="edge">
<title>node_0x503000000a30&#45;&gt;node_0x503000000a60</title>
<path fill="none" stroke="#999999" d="M883.03,-107.35C878.82,-96.57 874.03,-84.29 869.56,-72.86"/>
<polygon fill="#999999" stroke="#999999" points="872.81,-71.55 865.91,-63.51 866.29,-74.1 872.81,-71.55"/>
</g>
<!-- node_0x503000000a90 -->
<g id="node19" class="node">
<title>node_0x503000000a90</title>
<path fill="#e8f9e5" stroke="#c9fbdb" d="M982,-0.5C982,-0.5 1104,-0.5 1104,-0.5 1110,-0.5 1116,-6.5 1116,-12.5 1116,-12.5 1116,-51.5 1116,-51.5 1116,-57.5 1110,-63.5 1104,-63.5 1104,-63.5 982,-63.5 982,-63.5 976,-63.5 970,-57.5 970,-51.5 970,-51.5 970,-12.5 970,-12.5 970,-6.5 976,-0.5 982,-0.5"/>
<text text-anchor="middle" x="1043" y="-49.9" font-family="Fira Mono" font-size="12.00">ptr: 0x503000000a90</text>
<polyline fill="none" stroke="#c9fbdb" points="970,-42.5 1116,-42.5 "/>
<text text-anchor="middle" x="1043" y="-28.9" font-family="Fira Mono" font-size="12.00">val: 1.000000</text>
<polyline fill="none" stroke="#c9fbdb" points="970,-21.5 1116,-21.5 "/>
<text text-anchor="middle" x="1006.5" y="-7.9" font-family="Fira Mono" font-size="12.00">prev: (nil)</text>
<polyline fill="none" stroke="#c9fbdb" points="1043,-0.5 1043,-21.5 "/>
<text text-anchor="middle" x="1079.5" y="-7.9" font-family="Fira Mono" font-size="12.00">next: (nil)</text>
</g>
<!-- node_0x503000000a30&#45;&gt;node_0x503000000a90 -->
<g id="edge18" class="edge">
<title>node_0x503000000a30&#45;&gt;node_0x503000000a90</title>
<path fill="none" stroke="#999999" d="M938.21,-107.35C954.92,-95.49 974.19,-81.82 991.61,-69.46"/>
<polygon fill="#999999" stroke="#999999" points="993.87,-72.15 1000,-63.51 989.82,-66.44 993.87,-72.15"/>
</g>
</g>
</svg>
