<?xml version="1.0" encoding="UTF-8" standalone="no"?>
<!DOCTYPE svg PUBLIC "-//W3C//DTD SVG 1.1//EN"
 "http://www.w3.org/Graphics/SVG/1.1/DTD/svg11.dtd">
<!-- Generated by graphviz version 2.43.0 (0)
 -->
<!-- Title: T Pages: 1 -->
<svg width="1621pt" height="821pt"
 viewBox="0.00 0.00 1620.50 821.00" xmlns="http://www.w3.org/2000/svg" xmlns:xlink="http://www.w3.org/1999/xlink">
<g id="graph0" class="graph" transform="scale(1 1) rotate(0) translate(4 817)">
<title>T</title>
<polygon fill="white" stroke="transparent" points="-4,4 -4,-817 1616.5,-817 1616.5,4 -4,4"/>
<!-- node_0x5030000005b0 -->
<g id="node1" class="node">
<title>node_0x5030000005b0</title>
<path fill="#e9fbf5" stroke="#5aa99b" d="M1102.5,-749.5C1102.5,-749.5 1306.5,-749.5 1306.5,-749.5 1312.5,-749.5 1318.5,-755.5 1318.5,-761.5 1318.5,-761.5 1318.5,-800.5 1318.5,-800.5 1318.5,-806.5 1312.5,-812.5 1306.5,-812.5 1306.5,-812.5 1102.5,-812.5 1102.5,-812.5 1096.5,-812.5 1090.5,-806.5 1090.5,-800.5 1090.5,-800.5 1090.5,-761.5 1090.5,-761.5 1090.5,-755.5 1096.5,-749.5 1102.5,-749.5"/>
<text text-anchor="middle" x="1204.5" y="-798.9" font-family="Fira Mono" font-size="12.00">ptr: 0x5030000005b0</text>
<polyline fill="none" stroke="#5aa99b" points="1090.5,-791.5 1318.5,-791.5 "/>
<text text-anchor="middle" x="1204.5" y="-777.9" font-family="Fira Mono" font-size="12.00">val: VIS_START</text>
<polyline fill="none" stroke="#5aa99b" points="1090.5,-770.5 1318.5,-770.5 "/>
<text text-anchor="middle" x="1127" y="-756.9" font-family="Fira Mono" font-size="12.00">prev: (nil)</text>
<polyline fill="none" stroke="#5aa99b" points="1163.5,-749.5 1163.5,-770.5 "/>
<text text-anchor="middle" x="1241" y="-756.9" font-family="Fira Mono" font-size="12.00">next: 0x503000000580</text>
</g>
<!-- node_0x503000000580 -->
<g id="node2" class="node">
<title>node_0x503000000580</title>
<path fill="#f1eafd" stroke="#8e6bd6" d="M1062,-642.5C1062,-642.5 1347,-642.5 1347,-642.5 1353,-642.5 1359,-648.5 1359,-654.5 1359,-654.5 1359,-693.5 1359,-693.5 1359,-699.5 1353,-705.5 1347,-705.5 1347,-705.5 1062,-705.5 1062,-705.5 1056,-705.5 1050,-699.5 1050,-693.5 1050,-693.5 1050,-654.5 1050,-654.5 1050,-648.5 1056,-642.5 1062,-642.5"/>
<text text-anchor="middle" x="1204.5" y="-691.9" font-family="Fira Mono" font-size="12.00">ptr: 0x503000000580</text>
<polyline fill="none" stroke="#8e6bd6" points="1050,-684.5 1359,-684.5 "/>
<text text-anchor="middle" x="1204.5" y="-670.9" font-family="Fira Mono" font-size="12.00">val: LCAT</text>
<polyline fill="none" stroke="#8e6bd6" points="1050,-663.5 1359,-663.5 "/>
<text text-anchor="middle" x="1127" y="-649.9" font-family="Fira Mono" font-size="12.00">prev: 0x5030000004c0</text>
<polyline fill="none" stroke="#8e6bd6" points="1204,-642.5 1204,-663.5 "/>
<text text-anchor="middle" x="1281.5" y="-649.9" font-family="Fira Mono" font-size="12.00">next: 0x503000000550</text>
</g>
<!-- node_0x5030000005b0&#45;&gt;node_0x503000000580 -->
<g id="edge1" class="edge">
<title>node_0x5030000005b0&#45;&gt;node_0x503000000580</title>
<path fill="none" stroke="#999999" d="M1204.5,-749.35C1204.5,-738.78 1204.5,-726.78 1204.5,-715.54"/>
<polygon fill="#999999" stroke="#999999" points="1208,-715.51 1204.5,-705.51 1201,-715.51 1208,-715.51"/>
</g>
<!-- node_0x5030000004c0 -->
<g id="node3" class="node">
<title>node_0x5030000004c0</title>
<path fill="#f1eafd" stroke="#8e6bd6" d="M885.5,-535.5C885.5,-535.5 1171.5,-535.5 1171.5,-535.5 1177.5,-535.5 1183.5,-541.5 1183.5,-547.5 1183.5,-547.5 1183.5,-586.5 1183.5,-586.5 1183.5,-592.5 1177.5,-598.5 1171.5,-598.5 1171.5,-598.5 885.5,-598.5 885.5,-598.5 879.5,-598.5 873.5,-592.5 873.5,-586.5 873.5,-586.5 873.5,-547.5 873.5,-547.5 873.5,-541.5 879.5,-535.5 885.5,-535.5"/>
<text text-anchor="middle" x="1028.5" y="-584.9" font-family="Fira Mono" font-size="12.00">ptr: 0x5030000004c0</text>
<polyline fill="none" stroke="#8e6bd6" points="873.5,-577.5 1183.5,-577.5 "/>
<text text-anchor="middle" x="1028.5" y="-563.9" font-family="Fira Mono" font-size="12.00">val: LCAT</text>
<polyline fill="none" stroke="#8e6bd6" points="873.5,-556.5 1183.5,-556.5 "/>
<text text-anchor="middle" x="951" y="-542.9" font-family="Fira Mono" font-size="12.00">prev: 0x503000000400</text>
<polyline fill="none" stroke="#8e6bd6" points="1028.5,-535.5 1028.5,-556.5 "/>
<text text-anchor="middle" x="1106" y="-542.9" font-family="Fira Mono" font-size="12.00">next: 0x503000000490</text>
</g>
<!-- node_0x503000000580&#45;&gt;node_0x5030000004c0 -->
<g id="edge2" class="edge">
<title>node_0x503000000580&#45;&gt;node_0x5030000004c0</title>
<path fill="none" stroke="#999999" d="M1153.12,-642.35C1132.88,-630.27 1109.49,-616.32 1088.48,-603.78"/>
<polygon fill="#999999" stroke="#999999" points="1090.02,-600.63 1079.64,-598.51 1086.43,-606.64 1090.02,-600.63"/>
</g>
<!-- node_0x503000000550 -->
<g id="node19" class="node">
<title>node_0x503000000550</title>
<path fill="#f1eafd" stroke="#8e6bd6" d="M1239,-535.5C1239,-535.5 1522,-535.5 1522,-535.5 1528,-535.5 1534,-541.5 1534,-547.5 1534,-547.5 1534,-586.5 1534,-586.5 1534,-592.5 1528,-598.5 1522,-598.5 1522,-598.5 1239,-598.5 1239,-598.5 1233,-598.5 1227,-592.5 1227,-586.5 1227,-586.5 1227,-547.5 1227,-547.5 1227,-541.5 1233,-535.5 1239,-535.5"/>
<text text-anchor="middle" x="1380.5" y="-584.9" font-family="Fira Mono" font-size="12.00">ptr: 0x503000000550</text>
<polyline fill="none" stroke="#8e6bd6" points="1227,-577.5 1534,-577.5 "/>
<text text-anchor="middle" x="1380.5" y="-563.9" font-family="Fira Mono" font-size="12.00">val: ASSIGN</text>
<polyline fill="none" stroke="#8e6bd6" points="1227,-556.5 1534,-556.5 "/>
<text text-anchor="middle" x="1303" y="-542.9" font-family="Fira Mono" font-size="12.00">prev: 0x5030000004f0</text>
<polyline fill="none" stroke="#8e6bd6" points="1379,-535.5 1379,-556.5 "/>
<text text-anchor="middle" x="1456.5" y="-542.9" font-family="Fira Mono" font-size="12.00">next: 0x503000000520</text>
</g>
<!-- node_0x503000000580&#45;&gt;node_0x503000000550 -->
<g id="edge3" class="edge">
<title>node_0x503000000580&#45;&gt;node_0x503000000550</title>
<path fill="none" stroke="#999999" d="M1255.88,-642.35C1276.12,-630.27 1299.51,-616.32 1320.52,-603.78"/>
<polygon fill="#999999" stroke="#999999" points="1322.57,-606.64 1329.36,-598.51 1318.98,-600.63 1322.57,-606.64"/>
</g>
<!-- node_0x503000000400 -->
<g id="node4" class="node">
<title>node_0x503000000400</title>
<path fill="#f1eafd" stroke="#8e6bd6" d="M604.5,-428.5C604.5,-428.5 890.5,-428.5 890.5,-428.5 896.5,-428.5 902.5,-434.5 902.5,-440.5 902.5,-440.5 902.5,-479.5 902.5,-479.5 902.5,-485.5 896.5,-491.5 890.5,-491.5 890.5,-491.5 604.5,-491.5 604.5,-491.5 598.5,-491.5 592.5,-485.5 592.5,-479.5 592.5,-479.5 592.5,-440.5 592.5,-440.5 592.5,-434.5 598.5,-428.5 604.5,-428.5"/>
<text text-anchor="middle" x="747.5" y="-477.9" font-family="Fira Mono" font-size="12.00">ptr: 0x503000000400</text>
<polyline fill="none" stroke="#8e6bd6" points="592.5,-470.5 902.5,-470.5 "/>
<text text-anchor="middle" x="747.5" y="-456.9" font-family="Fira Mono" font-size="12.00">val: LCAT</text>
<polyline fill="none" stroke="#8e6bd6" points="592.5,-449.5 902.5,-449.5 "/>
<text text-anchor="middle" x="670" y="-435.9" font-family="Fira Mono" font-size="12.00">prev: 0x5030000002b0</text>
<polyline fill="none" stroke="#8e6bd6" points="747.5,-428.5 747.5,-449.5 "/>
<text text-anchor="middle" x="825" y="-435.9" font-family="Fira Mono" font-size="12.00">next: 0x5030000003d0</text>
</g>
<!-- node_0x5030000004c0&#45;&gt;node_0x503000000400 -->
<g id="edge4" class="edge">
<title>node_0x5030000004c0&#45;&gt;node_0x503000000400</title>
<path fill="none" stroke="#999999" d="M946.85,-535.49C913.07,-522.87 873.77,-508.18 839.03,-495.2"/>
<polygon fill="#999999" stroke="#999999" points="839.95,-491.81 829.36,-491.59 837.5,-498.37 839.95,-491.81"/>
</g>
<!-- node_0x503000000490 -->
<g id="node16" class="node">
<title>node_0x503000000490</title>
<path fill="#f1eafd" stroke="#8e6bd6" d="M957.5,-428.5C957.5,-428.5 1161.5,-428.5 1161.5,-428.5 1167.5,-428.5 1173.5,-434.5 1173.5,-440.5 1173.5,-440.5 1173.5,-479.5 1173.5,-479.5 1173.5,-485.5 1167.5,-491.5 1161.5,-491.5 1161.5,-491.5 957.5,-491.5 957.5,-491.5 951.5,-491.5 945.5,-485.5 945.5,-479.5 945.5,-479.5 945.5,-440.5 945.5,-440.5 945.5,-434.5 951.5,-428.5 957.5,-428.5"/>
<text text-anchor="middle" x="1059.5" y="-477.9" font-family="Fira Mono" font-size="12.00">ptr: 0x503000000490</text>
<polyline fill="none" stroke="#8e6bd6" points="945.5,-470.5 1173.5,-470.5 "/>
<text text-anchor="middle" x="1059.5" y="-456.9" font-family="Fira Mono" font-size="12.00">val: CALL</text>
<polyline fill="none" stroke="#8e6bd6" points="945.5,-449.5 1173.5,-449.5 "/>
<text text-anchor="middle" x="1023" y="-435.9" font-family="Fira Mono" font-size="12.00">prev: 0x503000000460</text>
<polyline fill="none" stroke="#8e6bd6" points="1100.5,-428.5 1100.5,-449.5 "/>
<text text-anchor="middle" x="1137" y="-435.9" font-family="Fira Mono" font-size="12.00">next: (nil)</text>
</g>
<!-- node_0x5030000004c0&#45;&gt;node_0x503000000490 -->
<g id="edge5" class="edge">
<title>node_0x5030000004c0&#45;&gt;node_0x503000000490</title>
<path fill="none" stroke="#999999" d="M1037.55,-535.35C1040.7,-524.67 1044.29,-512.53 1047.63,-501.2"/>
<polygon fill="#999999" stroke="#999999" points="1051.02,-502.09 1050.49,-491.51 1044.3,-500.11 1051.02,-502.09"/>
</g>
<!-- node_0x5030000002b0 -->
<g id="node5" class="node">
<title>node_0x5030000002b0</title>
<path fill="#f1eafd" stroke="#8e6bd6" d="M239.5,-321.5C239.5,-321.5 525.5,-321.5 525.5,-321.5 531.5,-321.5 537.5,-327.5 537.5,-333.5 537.5,-333.5 537.5,-372.5 537.5,-372.5 537.5,-378.5 531.5,-384.5 525.5,-384.5 525.5,-384.5 239.5,-384.5 239.5,-384.5 233.5,-384.5 227.5,-378.5 227.5,-372.5 227.5,-372.5 227.5,-333.5 227.5,-333.5 227.5,-327.5 233.5,-321.5 239.5,-321.5"/>
<text text-anchor="middle" x="382.5" y="-370.9" font-family="Fira Mono" font-size="12.00">ptr: 0x5030000002b0</text>
<polyline fill="none" stroke="#8e6bd6" points="227.5,-363.5 537.5,-363.5 "/>
<text text-anchor="middle" x="382.5" y="-349.9" font-family="Fira Mono" font-size="12.00">val: PROC_DECL</text>
<polyline fill="none" stroke="#8e6bd6" points="227.5,-342.5 537.5,-342.5 "/>
<text text-anchor="middle" x="305" y="-328.9" font-family="Fira Mono" font-size="12.00">prev: 0x503000000220</text>
<polyline fill="none" stroke="#8e6bd6" points="382.5,-321.5 382.5,-342.5 "/>
<text text-anchor="middle" x="460" y="-328.9" font-family="Fira Mono" font-size="12.00">next: 0x503000000280</text>
</g>
<!-- node_0x503000000400&#45;&gt;node_0x5030000002b0 -->
<g id="edge6" class="edge">
<title>node_0x503000000400&#45;&gt;node_0x5030000002b0</title>
<path fill="none" stroke="#999999" d="M641.44,-428.49C596.63,-415.6 544.33,-400.55 498.5,-387.37"/>
<polygon fill="#999999" stroke="#999999" points="499.41,-383.99 488.83,-384.59 497.47,-390.72 499.41,-383.99"/>
</g>
<!-- node_0x5030000003d0 -->
<g id="node10" class="node">
<title>node_0x5030000003d0</title>
<path fill="#f1eafd" stroke="#8e6bd6" d="M604.5,-321.5C604.5,-321.5 890.5,-321.5 890.5,-321.5 896.5,-321.5 902.5,-327.5 902.5,-333.5 902.5,-333.5 902.5,-372.5 902.5,-372.5 902.5,-378.5 896.5,-384.5 890.5,-384.5 890.5,-384.5 604.5,-384.5 604.5,-384.5 598.5,-384.5 592.5,-378.5 592.5,-372.5 592.5,-372.5 592.5,-333.5 592.5,-333.5 592.5,-327.5 598.5,-321.5 604.5,-321.5"/>
<text text-anchor="middle" x="747.5" y="-370.9" font-family="Fira Mono" font-size="12.00">ptr: 0x5030000003d0</text>
<polyline fill="none" stroke="#8e6bd6" points="592.5,-363.5 902.5,-363.5 "/>
<text text-anchor="middle" x="747.5" y="-349.9" font-family="Fira Mono" font-size="12.00">val: ASSIGN</text>
<polyline fill="none" stroke="#8e6bd6" points="592.5,-342.5 902.5,-342.5 "/>
<text text-anchor="middle" x="670" y="-328.9" font-family="Fira Mono" font-size="12.00">prev: 0x5030000002e0</text>
<polyline fill="none" stroke="#8e6bd6" points="747.5,-321.5 747.5,-342.5 "/>
<text text-anchor="middle" x="825" y="-328.9" font-family="Fira Mono" font-size="12.00">next: 0x5030000003a0</text>
</g>
<!-- node_0x503000000400&#45;&gt;node_0x5030000003d0 -->
<g id="edge7" class="edge">
<title>node_0x503000000400&#45;&gt;node_0x5030000003d0</title>
<path fill="none" stroke="#999999" d="M747.5,-428.35C747.5,-417.78 747.5,-405.78 747.5,-394.54"/>
<polygon fill="#999999" stroke="#999999" points="751,-394.51 747.5,-384.51 744,-394.51 751,-394.51"/>
</g>
<!-- node_0x503000000220 -->
<g id="node6" class="node">
<title>node_0x503000000220</title>
<path fill="#f1eafd" stroke="#8e6bd6" d="M12,-214.5C12,-214.5 213,-214.5 213,-214.5 219,-214.5 225,-220.5 225,-226.5 225,-226.5 225,-265.5 225,-265.5 225,-271.5 219,-277.5 213,-277.5 213,-277.5 12,-277.5 12,-277.5 6,-277.5 0,-271.5 0,-265.5 0,-265.5 0,-226.5 0,-226.5 0,-220.5 6,-214.5 12,-214.5"/>
<text text-anchor="middle" x="112.5" y="-263.9" font-family="Fira Mono" font-size="12.00">ptr: 0x503000000220</text>
<polyline fill="none" stroke="#8e6bd6" points="0,-256.5 225,-256.5 "/>
<text text-anchor="middle" x="112.5" y="-242.9" font-family="Fira Mono" font-size="12.00">val: FUNC_INFO</text>
<polyline fill="none" stroke="#8e6bd6" points="0,-235.5 225,-235.5 "/>
<text text-anchor="middle" x="36.5" y="-221.9" font-family="Fira Mono" font-size="12.00">prev: (nil)</text>
<polyline fill="none" stroke="#8e6bd6" points="73,-214.5 73,-235.5 "/>
<text text-anchor="middle" x="149" y="-221.9" font-family="Fira Mono" font-size="12.00">next: 0x5030000001f0</text>
</g>
<!-- node_0x5030000002b0&#45;&gt;node_0x503000000220 -->
<g id="edge8" class="edge">
<title>node_0x5030000002b0&#45;&gt;node_0x503000000220</title>
<path fill="none" stroke="#999999" d="M304.04,-321.49C271.73,-308.92 234.15,-294.31 200.87,-281.37"/>
<polygon fill="#999999" stroke="#999999" points="201.74,-277.95 191.15,-277.59 199.21,-284.47 201.74,-277.95"/>
</g>
<!-- node_0x503000000280 -->
<g id="node8" class="node">
<title>node_0x503000000280</title>
<path fill="#f1eafd" stroke="#8e6bd6" d="M280.5,-214.5C280.5,-214.5 484.5,-214.5 484.5,-214.5 490.5,-214.5 496.5,-220.5 496.5,-226.5 496.5,-226.5 496.5,-265.5 496.5,-265.5 496.5,-271.5 490.5,-277.5 484.5,-277.5 484.5,-277.5 280.5,-277.5 280.5,-277.5 274.5,-277.5 268.5,-271.5 268.5,-265.5 268.5,-265.5 268.5,-226.5 268.5,-226.5 268.5,-220.5 274.5,-214.5 280.5,-214.5"/>
<text text-anchor="middle" x="382.5" y="-263.9" font-family="Fira Mono" font-size="12.00">ptr: 0x503000000280</text>
<polyline fill="none" stroke="#8e6bd6" points="268.5,-256.5 496.5,-256.5 "/>
<text text-anchor="middle" x="382.5" y="-242.9" font-family="Fira Mono" font-size="12.00">val: VIS_START</text>
<polyline fill="none" stroke="#8e6bd6" points="268.5,-235.5 496.5,-235.5 "/>
<text text-anchor="middle" x="305" y="-221.9" font-family="Fira Mono" font-size="12.00">prev: (nil)</text>
<polyline fill="none" stroke="#8e6bd6" points="341.5,-214.5 341.5,-235.5 "/>
<text text-anchor="middle" x="419" y="-221.9" font-family="Fira Mono" font-size="12.00">next: 0x503000000250</text>
</g>
<!-- node_0x5030000002b0&#45;&gt;node_0x503000000280 -->
<g id="edge9" class="edge">
<title>node_0x5030000002b0&#45;&gt;node_0x503000000280</title>
<path fill="none" stroke="#999999" d="M382.5,-321.35C382.5,-310.78 382.5,-298.78 382.5,-287.54"/>
<polygon fill="#999999" stroke="#999999" points="386,-287.51 382.5,-277.51 379,-287.51 386,-287.51"/>
</g>
<!-- node_0x5030000001f0 -->
<g id="node7" class="node">
<title>node_0x5030000001f0</title>
<path fill="#e8f9e5" stroke="#c9fbdb" d="M51.5,-107.5C51.5,-107.5 173.5,-107.5 173.5,-107.5 179.5,-107.5 185.5,-113.5 185.5,-119.5 185.5,-119.5 185.5,-158.5 185.5,-158.5 185.5,-164.5 179.5,-170.5 173.5,-170.5 173.5,-170.5 51.5,-170.5 51.5,-170.5 45.5,-170.5 39.5,-164.5 39.5,-158.5 39.5,-158.5 39.5,-119.5 39.5,-119.5 39.5,-113.5 45.5,-107.5 51.5,-107.5"/>
<text text-anchor="middle" x="112.5" y="-156.9" font-family="Fira Mono" font-size="12.00">ptr: 0x5030000001f0</text>
<polyline fill="none" stroke="#c9fbdb" points="39.5,-149.5 185.5,-149.5 "/>
<text text-anchor="middle" x="112.5" y="-135.9" font-family="Fira Mono" font-size="12.00">val: fff</text>
<polyline fill="none" stroke="#c9fbdb" points="39.5,-128.5 185.5,-128.5 "/>
<text text-anchor="middle" x="76" y="-114.9" font-family="Fira Mono" font-size="12.00">prev: (nil)</text>
<polyline fill="none" stroke="#c9fbdb" points="112.5,-107.5 112.5,-128.5 "/>
<text text-anchor="middle" x="149" y="-114.9" font-family="Fira Mono" font-size="12.00">next: (nil)</text>
</g>
<!-- node_0x503000000220&#45;&gt;node_0x5030000001f0 -->
<g id="edge10" class="edge">
<title>node_0x503000000220&#45;&gt;node_0x5030000001f0</title>
<path fill="none" stroke="#999999" d="M112.5,-214.35C112.5,-203.78 112.5,-191.78 112.5,-180.54"/>
<polygon fill="#999999" stroke="#999999" points="116,-180.51 112.5,-170.51 109,-180.51 116,-180.51"/>
</g>
<!-- node_0x503000000250 -->
<g id="node9" class="node">
<title>node_0x503000000250</title>
<path fill="#e8f9e5" stroke="#c9fbdb" d="M321.5,-107.5C321.5,-107.5 443.5,-107.5 443.5,-107.5 449.5,-107.5 455.5,-113.5 455.5,-119.5 455.5,-119.5 455.5,-158.5 455.5,-158.5 455.5,-164.5 449.5,-170.5 443.5,-170.5 443.5,-170.5 321.5,-170.5 321.5,-170.5 315.5,-170.5 309.5,-164.5 309.5,-158.5 309.5,-158.5 309.5,-119.5 309.5,-119.5 309.5,-113.5 315.5,-107.5 321.5,-107.5"/>
<text text-anchor="middle" x="382.5" y="-156.9" font-family="Fira Mono" font-size="12.00">ptr: 0x503000000250</text>
<polyline fill="none" stroke="#c9fbdb" points="309.5,-149.5 455.5,-149.5 "/>
<text text-anchor="middle" x="382.5" y="-135.9" font-family="Fira Mono" font-size="12.00">val: FINISH</text>
<polyline fill="none" stroke="#c9fbdb" points="309.5,-128.5 455.5,-128.5 "/>
<text text-anchor="middle" x="346" y="-114.9" font-family="Fira Mono" font-size="12.00">prev: (nil)</text>
<polyline fill="none" stroke="#c9fbdb" points="382.5,-107.5 382.5,-128.5 "/>
<text text-anchor="middle" x="419" y="-114.9" font-family="Fira Mono" font-size="12.00">next: (nil)</text>
</g>
<!-- node_0x503000000280&#45;&gt;node_0x503000000250 -->
<g id="edge11" class="edge">
<title>node_0x503000000280&#45;&gt;node_0x503000000250</title>
<path fill="none" stroke="#999999" d="M382.5,-214.35C382.5,-203.78 382.5,-191.78 382.5,-180.54"/>
<polygon fill="#999999" stroke="#999999" points="386,-180.51 382.5,-170.51 379,-180.51 386,-180.51"/>
</g>
<!-- node_0x5030000002e0 -->
<g id="node11" class="node">
<title>node_0x5030000002e0</title>
<path fill="#e8f9e5" stroke="#c9fbdb" d="M551.5,-214.5C551.5,-214.5 673.5,-214.5 673.5,-214.5 679.5,-214.5 685.5,-220.5 685.5,-226.5 685.5,-226.5 685.5,-265.5 685.5,-265.5 685.5,-271.5 679.5,-277.5 673.5,-277.5 673.5,-277.5 551.5,-277.5 551.5,-277.5 545.5,-277.5 539.5,-271.5 539.5,-265.5 539.5,-265.5 539.5,-226.5 539.5,-226.5 539.5,-220.5 545.5,-214.5 551.5,-214.5"/>
<text text-anchor="middle" x="612.5" y="-263.9" font-family="Fira Mono" font-size="12.00">ptr: 0x5030000002e0</text>
<polyline fill="none" stroke="#c9fbdb" points="539.5,-256.5 685.5,-256.5 "/>
<text text-anchor="middle" x="612.5" y="-242.9" font-family="Fira Mono" font-size="12.00">val: x</text>
<polyline fill="none" stroke="#c9fbdb" points="539.5,-235.5 685.5,-235.5 "/>
<text text-anchor="middle" x="576" y="-221.9" font-family="Fira Mono" font-size="12.00">prev: (nil)</text>
<polyline fill="none" stroke="#c9fbdb" points="612.5,-214.5 612.5,-235.5 "/>
<text text-anchor="middle" x="649" y="-221.9" font-family="Fira Mono" font-size="12.00">next: (nil)</text>
</g>
<!-- node_0x5030000003d0&#45;&gt;node_0x5030000002e0 -->
<g id="edge12" class="edge">
<title>node_0x5030000003d0&#45;&gt;node_0x5030000002e0</title>
<path fill="none" stroke="#999999" d="M708.09,-321.35C692.98,-309.59 675.58,-296.06 659.81,-283.79"/>
<polygon fill="#999999" stroke="#999999" points="661.77,-280.89 651.73,-277.51 657.47,-286.41 661.77,-280.89"/>
</g>
<!-- node_0x5030000003a0 -->
<g id="node12" class="node">
<title>node_0x5030000003a0</title>
<path fill="#f1eafd" stroke="#8e6bd6" d="M740.5,-214.5C740.5,-214.5 944.5,-214.5 944.5,-214.5 950.5,-214.5 956.5,-220.5 956.5,-226.5 956.5,-226.5 956.5,-265.5 956.5,-265.5 956.5,-271.5 950.5,-277.5 944.5,-277.5 944.5,-277.5 740.5,-277.5 740.5,-277.5 734.5,-277.5 728.5,-271.5 728.5,-265.5 728.5,-265.5 728.5,-226.5 728.5,-226.5 728.5,-220.5 734.5,-214.5 740.5,-214.5"/>
<text text-anchor="middle" x="842.5" y="-263.9" font-family="Fira Mono" font-size="12.00">ptr: 0x5030000003a0</text>
<polyline fill="none" stroke="#8e6bd6" points="728.5,-256.5 956.5,-256.5 "/>
<text text-anchor="middle" x="842.5" y="-242.9" font-family="Fira Mono" font-size="12.00">val: LOG</text>
<polyline fill="none" stroke="#8e6bd6" points="728.5,-235.5 956.5,-235.5 "/>
<text text-anchor="middle" x="806" y="-221.9" font-family="Fira Mono" font-size="12.00">prev: 0x503000000370</text>
<polyline fill="none" stroke="#8e6bd6" points="883.5,-214.5 883.5,-235.5 "/>
<text text-anchor="middle" x="920" y="-221.9" font-family="Fira Mono" font-size="12.00">next: (nil)</text>
</g>
<!-- node_0x5030000003d0&#45;&gt;node_0x5030000003a0 -->
<g id="edge13" class="edge">
<title>node_0x5030000003d0&#45;&gt;node_0x5030000003a0</title>
<path fill="none" stroke="#999999" d="M775.23,-321.35C785.48,-310.03 797.21,-297.06 807.98,-285.15"/>
<polygon fill="#999999" stroke="#999999" points="810.78,-287.27 814.9,-277.51 805.59,-282.58 810.78,-287.27"/>
</g>
<!-- node_0x503000000370 -->
<g id="node13" class="node">
<title>node_0x503000000370</title>
<path fill="#f1eafd" stroke="#8e6bd6" d="M699.5,-107.5C699.5,-107.5 985.5,-107.5 985.5,-107.5 991.5,-107.5 997.5,-113.5 997.5,-119.5 997.5,-119.5 997.5,-158.5 997.5,-158.5 997.5,-164.5 991.5,-170.5 985.5,-170.5 985.5,-170.5 699.5,-170.5 699.5,-170.5 693.5,-170.5 687.5,-164.5 687.5,-158.5 687.5,-158.5 687.5,-119.5 687.5,-119.5 687.5,-113.5 693.5,-107.5 699.5,-107.5"/>
<text text-anchor="middle" x="842.5" y="-156.9" font-family="Fira Mono" font-size="12.00">ptr: 0x503000000370</text>
<polyline fill="none" stroke="#8e6bd6" points="687.5,-149.5 997.5,-149.5 "/>
<text text-anchor="middle" x="842.5" y="-135.9" font-family="Fira Mono" font-size="12.00">val: ENUM_SEP</text>
<polyline fill="none" stroke="#8e6bd6" points="687.5,-128.5 997.5,-128.5 "/>
<text text-anchor="middle" x="765" y="-114.9" font-family="Fira Mono" font-size="12.00">prev: 0x503000000310</text>
<polyline fill="none" stroke="#8e6bd6" points="842.5,-107.5 842.5,-128.5 "/>
<text text-anchor="middle" x="920" y="-114.9" font-family="Fira Mono" font-size="12.00">next: 0x503000000340</text>
</g>
<!-- node_0x5030000003a0&#45;&gt;node_0x503000000370 -->
<g id="edge14" class="edge">
<title>node_0x5030000003a0&#45;&gt;node_0x503000000370</title>
<path fill="none" stroke="#999999" d="M842.5,-214.35C842.5,-203.78 842.5,-191.78 842.5,-180.54"/>
<polygon fill="#999999" stroke="#999999" points="846,-180.51 842.5,-170.51 839,-180.51 846,-180.51"/>
</g>
<!-- node_0x503000000310 -->
<g id="node14" class="node">
<title>node_0x503000000310</title>
<path fill="#e8f9e5" stroke="#c9fbdb" d="M687.5,-0.5C687.5,-0.5 809.5,-0.5 809.5,-0.5 815.5,-0.5 821.5,-6.5 821.5,-12.5 821.5,-12.5 821.5,-51.5 821.5,-51.5 821.5,-57.5 815.5,-63.5 809.5,-63.5 809.5,-63.5 687.5,-63.5 687.5,-63.5 681.5,-63.5 675.5,-57.5 675.5,-51.5 675.5,-51.5 675.5,-12.5 675.5,-12.5 675.5,-6.5 681.5,-0.5 687.5,-0.5"/>
<text text-anchor="middle" x="748.5" y="-49.9" font-family="Fira Mono" font-size="12.00">ptr: 0x503000000310</text>
<polyline fill="none" stroke="#c9fbdb" points="675.5,-42.5 821.5,-42.5 "/>
<text text-anchor="middle" x="748.5" y="-28.9" font-family="Fira Mono" font-size="12.00">val: 1.000000</text>
<polyline fill="none" stroke="#c9fbdb" points="675.5,-21.5 821.5,-21.5 "/>
<text text-anchor="middle" x="712" y="-7.9" font-family="Fira Mono" font-size="12.00">prev: (nil)</text>
<polyline fill="none" stroke="#c9fbdb" points="748.5,-0.5 748.5,-21.5 "/>
<text text-anchor="middle" x="785" y="-7.9" font-family="Fira Mono" font-size="12.00">next: (nil)</text>
</g>
<!-- node_0x503000000370&#45;&gt;node_0x503000000310 -->
<g id="edge15" class="edge">
<title>node_0x503000000370&#45;&gt;node_0x503000000310</title>
<path fill="none" stroke="#999999" d="M815.06,-107.35C804.92,-96.03 793.31,-83.06 782.65,-71.15"/>
<polygon fill="#999999" stroke="#999999" points="785.09,-68.63 775.81,-63.51 779.88,-73.29 785.09,-68.63"/>
</g>
<!-- node_0x503000000340 -->
<g id="node15" class="node">
<title>node_0x503000000340</title>
<path fill="#e8f9e5" stroke="#c9fbdb" d="M876.5,-0.5C876.5,-0.5 998.5,-0.5 998.5,-0.5 1004.5,-0.5 1010.5,-6.5 1010.5,-12.5 1010.5,-12.5 1010.5,-51.5 1010.5,-51.5 1010.5,-57.5 1004.5,-63.5 998.5,-63.5 998.5,-63.5 876.5,-63.5 876.5,-63.5 870.5,-63.5 864.5,-57.5 864.5,-51.5 864.5,-51.5 864.5,-12.5 864.5,-12.5 864.5,-6.5 870.5,-0.5 876.5,-0.5"/>
<text text-anchor="middle" x="937.5" y="-49.9" font-family="Fira Mono" font-size="12.00">ptr: 0x503000000340</text>
<polyline fill="none" stroke="#c9fbdb" points="864.5,-42.5 1010.5,-42.5 "/>
<text text-anchor="middle" x="937.5" y="-28.9" font-family="Fira Mono" font-size="12.00">val: 2.000000</text>
<polyline fill="none" stroke="#c9fbdb" points="864.5,-21.5 1010.5,-21.5 "/>
<text text-anchor="middle" x="901" y="-7.9" font-family="Fira Mono" font-size="12.00">prev: (nil)</text>
<polyline fill="none" stroke="#c9fbdb" points="937.5,-0.5 937.5,-21.5 "/>
<text text-anchor="middle" x="974" y="-7.9" font-family="Fira Mono" font-size="12.00">next: (nil)</text>
</g>
<!-- node_0x503000000370&#45;&gt;node_0x503000000340 -->
<g id="edge16" class="edge">
<title>node_0x503000000370&#45;&gt;node_0x503000000340</title>
<path fill="none" stroke="#999999" d="M870.23,-107.35C880.48,-96.03 892.21,-83.06 902.98,-71.15"/>
<polygon fill="#999999" stroke="#999999" points="905.78,-73.27 909.9,-63.51 900.59,-68.58 905.78,-73.27"/>
</g>
<!-- node_0x503000000460 -->
<g id="node17" class="node">
<title>node_0x503000000460</title>
<path fill="#f1eafd" stroke="#8e6bd6" d="M963.5,-321.5C963.5,-321.5 1167.5,-321.5 1167.5,-321.5 1173.5,-321.5 1179.5,-327.5 1179.5,-333.5 1179.5,-333.5 1179.5,-372.5 1179.5,-372.5 1179.5,-378.5 1173.5,-384.5 1167.5,-384.5 1167.5,-384.5 963.5,-384.5 963.5,-384.5 957.5,-384.5 951.5,-378.5 951.5,-372.5 951.5,-372.5 951.5,-333.5 951.5,-333.5 951.5,-327.5 957.5,-321.5 963.5,-321.5"/>
<text text-anchor="middle" x="1065.5" y="-370.9" font-family="Fira Mono" font-size="12.00">ptr: 0x503000000460</text>
<polyline fill="none" stroke="#8e6bd6" points="951.5,-363.5 1179.5,-363.5 "/>
<text text-anchor="middle" x="1065.5" y="-349.9" font-family="Fira Mono" font-size="12.00">val: FUNC_INFO</text>
<polyline fill="none" stroke="#8e6bd6" points="951.5,-342.5 1179.5,-342.5 "/>
<text text-anchor="middle" x="988" y="-328.9" font-family="Fira Mono" font-size="12.00">prev: (nil)</text>
<polyline fill="none" stroke="#8e6bd6" points="1024.5,-321.5 1024.5,-342.5 "/>
<text text-anchor="middle" x="1102" y="-328.9" font-family="Fira Mono" font-size="12.00">next: 0x503000000430</text>
</g>
<!-- node_0x503000000490&#45;&gt;node_0x503000000460 -->
<g id="edge17" class="edge">
<title>node_0x503000000490&#45;&gt;node_0x503000000460</title>
<path fill="none" stroke="#999999" d="M1061.25,-428.35C1061.86,-417.78 1062.54,-405.78 1063.18,-394.54"/>
<polygon fill="#999999" stroke="#999999" points="1066.68,-394.69 1063.76,-384.51 1059.69,-394.29 1066.68,-394.69"/>
</g>
<!-- node_0x503000000430 -->
<g id="node18" class="node">
<title>node_0x503000000430</title>
<path fill="#e8f9e5" stroke="#c9fbdb" d="M1011.5,-214.5C1011.5,-214.5 1133.5,-214.5 1133.5,-214.5 1139.5,-214.5 1145.5,-220.5 1145.5,-226.5 1145.5,-226.5 1145.5,-265.5 1145.5,-265.5 1145.5,-271.5 1139.5,-277.5 1133.5,-277.5 1133.5,-277.5 1011.5,-277.5 1011.5,-277.5 1005.5,-277.5 999.5,-271.5 999.5,-265.5 999.5,-265.5 999.5,-226.5 999.5,-226.5 999.5,-220.5 1005.5,-214.5 1011.5,-214.5"/>
<text text-anchor="middle" x="1072.5" y="-263.9" font-family="Fira Mono" font-size="12.00">ptr: 0x503000000430</text>
<polyline fill="none" stroke="#c9fbdb" points="999.5,-256.5 1145.5,-256.5 "/>
<text text-anchor="middle" x="1072.5" y="-242.9" font-family="Fira Mono" font-size="12.00">val: fff</text>
<polyline fill="none" stroke="#c9fbdb" points="999.5,-235.5 1145.5,-235.5 "/>
<text text-anchor="middle" x="1036" y="-221.9" font-family="Fira Mono" font-size="12.00">prev: (nil)</text>
<polyline fill="none" stroke="#c9fbdb" points="1072.5,-214.5 1072.5,-235.5 "/>
<text text-anchor="middle" x="1109" y="-221.9" font-family="Fira Mono" font-size="12.00">next: (nil)</text>
</g>
<!-- node_0x503000000460&#45;&gt;node_0x503000000430 -->
<g id="edge18" class="edge">
<title>node_0x503000000460&#45;&gt;node_0x503000000430</title>
<path fill="none" stroke="#999999" d="M1067.54,-321.35C1068.25,-310.78 1069.05,-298.78 1069.8,-287.54"/>
<polygon fill="#999999" stroke="#999999" points="1073.29,-287.72 1070.47,-277.51 1066.31,-287.25 1073.29,-287.72"/>
</g>
<!-- node_0x5030000004f0 -->
<g id="node20" class="node">
<title>node_0x5030000004f0</title>
<path fill="#e8f9e5" stroke="#c9fbdb" d="M1289.5,-428.5C1289.5,-428.5 1411.5,-428.5 1411.5,-428.5 1417.5,-428.5 1423.5,-434.5 1423.5,-440.5 1423.5,-440.5 1423.5,-479.5 1423.5,-479.5 1423.5,-485.5 1417.5,-491.5 1411.5,-491.5 1411.5,-491.5 1289.5,-491.5 1289.5,-491.5 1283.5,-491.5 1277.5,-485.5 1277.5,-479.5 1277.5,-479.5 1277.5,-440.5 1277.5,-440.5 1277.5,-434.5 1283.5,-428.5 1289.5,-428.5"/>
<text text-anchor="middle" x="1350.5" y="-477.9" font-family="Fira Mono" font-size="12.00">ptr: 0x5030000004f0</text>
<polyline fill="none" stroke="#c9fbdb" points="1277.5,-470.5 1423.5,-470.5 "/>
<text text-anchor="middle" x="1350.5" y="-456.9" font-family="Fira Mono" font-size="12.00">val: b</text>
<polyline fill="none" stroke="#c9fbdb" points="1277.5,-449.5 1423.5,-449.5 "/>
<text text-anchor="middle" x="1314" y="-435.9" font-family="Fira Mono" font-size="12.00">prev: (nil)</text>
<polyline fill="none" stroke="#c9fbdb" points="1350.5,-428.5 1350.5,-449.5 "/>
<text text-anchor="middle" x="1387" y="-435.9" font-family="Fira Mono" font-size="12.00">next: (nil)</text>
</g>
<!-- node_0x503000000550&#45;&gt;node_0x5030000004f0 -->
<g id="edge19" class="edge">
<title>node_0x503000000550&#45;&gt;node_0x5030000004f0</title>
<path fill="none" stroke="#999999" d="M1371.74,-535.35C1368.69,-524.67 1365.22,-512.53 1361.99,-501.2"/>
<polygon fill="#999999" stroke="#999999" points="1365.33,-500.16 1359.22,-491.51 1358.6,-502.09 1365.33,-500.16"/>
</g>
<!-- node_0x503000000520 -->
<g id="node21" class="node">
<title>node_0x503000000520</title>
<path fill="#e8f9e5" stroke="#c9fbdb" d="M1478.5,-428.5C1478.5,-428.5 1600.5,-428.5 1600.5,-428.5 1606.5,-428.5 1612.5,-434.5 1612.5,-440.5 1612.5,-440.5 1612.5,-479.5 1612.5,-479.5 1612.5,-485.5 1606.5,-491.5 1600.5,-491.5 1600.5,-491.5 1478.5,-491.5 1478.5,-491.5 1472.5,-491.5 1466.5,-485.5 1466.5,-479.5 1466.5,-479.5 1466.5,-440.5 1466.5,-440.5 1466.5,-434.5 1472.5,-428.5 1478.5,-428.5"/>
<text text-anchor="middle" x="1539.5" y="-477.9" font-family="Fira Mono" font-size="12.00">ptr: 0x503000000520</text>
<polyline fill="none" stroke="#c9fbdb" points="1466.5,-470.5 1612.5,-470.5 "/>
<text text-anchor="middle" x="1539.5" y="-456.9" font-family="Fira Mono" font-size="12.00">val: 5.000000</text>
<polyline fill="none" stroke="#c9fbdb" points="1466.5,-449.5 1612.5,-449.5 "/>
<text text-anchor="middle" x="1503" y="-435.9" font-family="Fira Mono" font-size="12.00">prev: (nil)</text>
<polyline fill="none" stroke="#c9fbdb" points="1539.5,-428.5 1539.5,-449.5 "/>
<text text-anchor="middle" x="1576" y="-435.9" font-family="Fira Mono" font-size="12.00">next: (nil)</text>
</g>
<!-- node_0x503000000550&#45;&gt;node_0x503000000520 -->
<g id="edge20" class="edge">
<title>node_0x503000000550&#45;&gt;node_0x503000000520</title>
<path fill="none" stroke="#999999" d="M1426.92,-535.35C1445.04,-523.38 1465.96,-509.57 1484.8,-497.12"/>
<polygon fill="#999999" stroke="#999999" points="1486.88,-499.94 1493.3,-491.51 1483.03,-494.1 1486.88,-499.94"/>
</g>
</g>
</svg>
